<svg width="1200" height="675" viewBox="0 0 1200 675" fill="none" xmlns="http://www.w3.org/2000/svg">
<g clip-path="url(#clip0_210_1435)">
<rect width="1200" height="675" fill="black"/>
<g filter="url(#filter0_f_210_1435)">
<path d="M-86.25 782.5V381.25C525.938 583.125 664.688 588.125 1238.12 381.25L1273.44 782.5C647.188 570.625 558.75 560.312 -86.25 782.5Z" fill="#2F2E05"/>
</g>
<g filter="url(#filter1_f_210_1435)">
<path d="M-86.25 680.625V459.375C526.078 587.669 664.86 590.847 1238.43 459.375V680.625C612.035 545.975 558.898 539.422 -86.25 680.625Z" fill="#F7BA00"/>
</g>
<g filter="url(#filter2_f_210_1435)">
<path d="M-86.25 625V524.375C526.078 575.001 664.86 576.255 1238.43 524.375L1273.75 625C647.356 571.866 558.898 569.28 -86.25 625Z" fill="#FFF5C4"/>
</g>
<path d="M115.201 186.965V175.381H160.146V186.965H143.928V232.527H131.418V186.965H115.201ZM182.469 232.527H169.959V175.381H182.469V197.93H204.555V175.381H217.066V232.527H204.555V209.514H182.469V232.527ZM267.546 232.527H231.25V175.381H267.546V186.965H243.76V198.162H264.843V209.128H243.76V220.944H267.546V232.527ZM310.652 232.527H297.601L317.988 175.381H330.19L350.5 232.527H337.217L333.202 220.48H314.745L310.652 232.527ZM322.467 197.776L318.374 209.978H329.649L325.556 197.776C324.939 195.845 324.243 193.606 324.012 192.216C323.78 193.529 323.162 195.691 322.467 197.776ZM371.978 175.381V232.527H359.468V175.381H371.978ZM384.906 216.928V206.425H411.317V216.928H384.906ZM446.602 232.527H424.207V175.381H445.83C462.588 175.381 474.249 187.119 474.249 204.108C474.249 220.789 462.897 232.527 446.602 232.527ZM444.595 186.965H436.718V220.944H445.367C455.252 220.944 461.044 214.688 461.044 204.108C461.044 193.297 454.943 186.965 444.595 186.965ZM497.783 232.527H485.272V175.381H507.359C521.259 175.381 529.136 182.099 529.136 193.915C529.136 201.328 525.97 206.58 519.637 209.823L529.677 232.527H516.008L507.436 212.526H497.783V232.527ZM497.783 186.501V201.56H507.281C512.764 201.56 515.931 198.78 515.931 193.915C515.931 189.127 512.919 186.501 507.359 186.501H497.783ZM553.267 175.381V232.527H540.757V175.381H553.267ZM583.725 232.527L562.334 175.381H575.694L586.505 204.263C587.818 207.815 588.899 211.368 590.135 216.31C591.602 210.827 592.683 207.661 593.919 204.263L604.576 175.381H617.627L596.622 232.527H583.725ZM662.984 232.527H626.688V175.381H662.984V186.965H639.198V198.162H660.281V209.128H639.198V220.944H662.984V232.527ZM687.892 232.527H675.536V175.381H687.892L711.986 211.754V175.381H724.342V232.527H711.986L687.892 196.232V232.527ZM708.305 314.527V254.35H733.351C745.468 254.35 752.787 260.693 752.787 271.021C752.787 277.445 749.859 282.162 744.411 284.52C750.347 286.472 753.519 291.107 753.519 297.938C753.519 308.591 746.363 314.527 733.351 314.527H708.305ZM731.969 265.898H721.479V278.99H731.969C736.686 278.99 739.288 276.632 739.288 272.322C739.288 268.093 736.767 265.898 731.969 265.898ZM732.62 290.05H721.479V302.98H732.62C737.499 302.98 740.02 300.784 740.02 296.312C740.02 292.246 737.417 290.05 732.62 290.05ZM777.245 291.676L756.915 254.35H771.634L781.718 273.867C782.694 275.738 783.344 277.201 783.995 278.746C784.727 277.283 785.377 275.738 786.353 273.786L796.437 254.35H810.749L790.419 291.676V314.527H777.245V291.676ZM857.207 314.527L839.154 254.35H852.897L860.785 280.454C861.842 284.032 862.818 287.61 863.794 293.547C864.77 287.61 865.745 284.195 866.803 280.454L874.203 254.35H888.922L895.997 280.454C896.972 284.114 897.948 287.773 899.006 293.547C900.225 287.448 901.12 284.114 902.177 280.617L910.228 254.35H923.646L905.267 314.527H892.419L881.44 275.006L870.137 314.527H857.207ZM934.898 314.527H921.155L942.624 254.35H955.472L976.86 314.527H962.873L958.644 301.841H939.208L934.898 314.527ZM947.34 277.933L943.03 290.782H954.903L950.593 277.933C949.943 275.9 949.211 273.542 948.967 272.078C948.723 273.461 948.072 275.738 947.34 277.933ZM999.07 314.527H986.303V254.35H999.07L1016.96 299.239L1034.93 254.35H1047.86V314.527H1035.1V301.923C1035.1 288.911 1035.1 286.065 1035.75 281.593L1022.98 314.527H1010.94L998.257 281.593C998.989 286.065 999.07 291.107 999.07 297.694V314.527ZM1076.01 254.35V314.527H1062.84V254.35H1076.01Z" fill="#FBF950"/>
<path d="M797.612 232.527H761.316V175.381H797.612V186.965H773.826V198.162H794.909V209.128H773.826V220.944H797.612V232.527ZM822.52 232.527H810.164V175.381H822.52L846.614 211.754V175.381H858.97V232.527H846.614L822.52 196.232V232.527ZM909.486 232.527H873.19V175.381H909.486V186.965H885.7V198.162H906.783V209.128H885.7V220.944H909.486V232.527ZM934.548 232.527H922.038V175.381H944.124C958.025 175.381 965.902 182.099 965.902 193.915C965.902 201.328 962.735 206.58 956.403 209.823L966.442 232.527H952.773L944.201 212.526H934.548V232.527ZM934.548 186.501V201.56H944.047C949.53 201.56 952.696 198.78 952.696 193.915C952.696 189.127 949.684 186.501 944.124 186.501H934.548ZM1003.24 186.192C992.89 186.192 987.561 193.451 987.561 204.495C987.561 216.001 994.048 221.716 1003.16 221.716C1012.58 221.716 1016.75 216.619 1017.29 210.673H1002.16V199.707H1029.03V232.527H1018.3L1017.6 227.353C1014.51 230.983 1008.33 233.377 1001.54 233.377C985.554 233.377 974.356 221.639 974.356 204.108C974.356 186.887 985.862 174.454 1003.55 174.454C1017.22 174.454 1027.72 182.485 1029.03 194.841H1015.9C1014.44 188.818 1009.18 186.192 1003.24 186.192ZM1051.97 210.827L1032.66 175.381H1046.64L1056.21 193.915C1057.14 195.691 1057.76 197.081 1058.37 198.548C1059.07 197.158 1059.69 195.691 1060.61 193.838L1070.19 175.381H1083.78L1064.48 210.827V232.527H1051.97V210.827ZM137.63 314.527H124.456V254.35H147.714C162.351 254.35 170.646 261.425 170.646 273.867C170.646 281.674 167.312 287.204 160.644 290.619L171.215 314.527H156.822L147.795 293.465H137.63V314.527ZM137.63 266.06V281.918H147.632C153.406 281.918 156.74 278.99 156.74 273.867C156.74 268.825 153.569 266.06 147.714 266.06H137.63ZM221.104 314.527H182.883V254.35H221.104V266.548H196.057V278.34H218.257V289.887H196.057V302.329H221.104V314.527ZM251.399 314.527L228.873 254.35H242.941L254.326 284.764C255.709 288.505 256.847 292.246 258.148 297.45C259.693 291.676 260.832 288.342 262.133 284.764L273.355 254.35H287.098L264.979 314.527H251.399ZM349.007 284.357C349.007 302.736 336.89 315.503 319.406 315.503C302.003 315.503 290.049 302.817 290.049 284.439C290.049 266.06 302.085 253.293 319.487 253.293C336.971 253.293 349.007 265.979 349.007 284.357ZM335.101 284.357C335.101 272.891 329.246 265.979 319.569 265.979C309.81 265.979 303.955 272.891 303.955 284.357C303.955 295.905 309.81 302.817 319.569 302.817C329.246 302.817 335.101 295.742 335.101 284.357ZM373.799 254.35V302.329H397.545V314.527H360.625V254.35H373.799ZM405.383 291.92V254.35H418.557V291.026C418.557 298.589 422.704 302.736 430.105 302.736C437.586 302.736 441.815 298.426 441.815 291.026V254.35H454.989V291.92C454.989 306.233 445.23 315.503 430.105 315.503C415.06 315.503 405.383 306.314 405.383 291.92ZM464.902 266.548V254.35H512.231V266.548H495.153V314.527H481.979V266.548H464.902ZM535.738 254.35V314.527H522.564V254.35H535.738ZM606.357 284.357C606.357 302.736 594.24 315.503 576.756 315.503C559.354 315.503 547.4 302.817 547.4 284.439C547.4 266.06 559.435 253.293 576.838 253.293C594.322 253.293 606.357 265.979 606.357 284.357ZM592.451 284.357C592.451 272.891 586.596 265.979 576.919 265.979C567.161 265.979 561.305 272.891 561.305 284.357C561.305 295.905 567.161 302.817 576.919 302.817C586.596 302.817 592.451 295.742 592.451 284.357ZM630.987 314.527H617.976V254.35H630.987L656.359 292.652V254.35H669.37V314.527H656.359L630.987 276.307V314.527Z" fill="white"/>
<path d="M124.15 407.027L115.013 376.3H119.348L124.958 395.085C125.383 396.7 125.808 398.315 126.233 400.652C126.743 398.187 127.21 396.7 127.678 395.085L133.5 376.3H138.005L143.785 395.085C144.295 396.742 144.72 398.357 145.188 400.652C145.698 398.06 146.123 396.487 146.548 395.127L152.2 376.3H156.45L147.185 407.027H143.19L135.753 382.717L128.23 407.027H124.15ZM180.67 407.027H161.928V376.3H180.67V380.125H166.093V389.73H179.225V393.427H166.093V403.16H180.67V407.027ZM187.98 407.027V376.3H199.71C205.703 376.3 209.358 379.36 209.358 384.417C209.358 387.945 207.828 390.325 204.768 391.6C208.168 392.705 209.91 395.17 209.91 398.825C209.91 403.925 206.213 407.027 200.135 407.027H187.98ZM199.455 379.997H192.145V389.857H199.71C203.153 389.857 205.108 387.987 205.108 384.8C205.108 381.74 203.068 379.997 199.455 379.997ZM200.05 393.47H192.145V403.33H200.05C203.62 403.33 205.618 401.502 205.618 398.315C205.618 395.255 203.578 393.47 200.05 393.47ZM230.57 407.027H226.235L237.455 376.3H242.087L253.35 407.027H248.973L246.21 399.377H233.29L230.57 407.027ZM239.24 382.93L234.565 395.765H244.977L240.26 382.93C240.047 382.335 239.835 381.612 239.75 381.145C239.665 381.57 239.452 382.292 239.24 382.93ZM262.875 407.027H258.71V376.3H262.875L278.6 400.057V376.3H282.765V407.027H278.6L262.875 383.27V407.027ZM301.353 407.027H291.196V376.3H301.183C310.363 376.3 316.568 382.505 316.568 391.685C316.568 400.822 310.448 407.027 301.353 407.027ZM300.886 380.125H295.361V403.16H301.056C307.898 403.16 312.233 398.74 312.233 391.685C312.233 384.545 307.898 380.125 300.886 380.125ZM340.118 407.027H336.038V376.3H340.118L350.701 402.14L361.283 376.3H365.448V407.027H361.368V394.872C361.368 389.135 361.411 387.052 361.623 384.885L352.656 407.027H348.746L339.821 384.97C340.033 386.457 340.118 389.602 340.118 393.895V407.027ZM401.588 391.642C401.588 400.992 395.468 407.537 386.756 407.537C378.086 407.537 372.051 400.992 372.051 391.642C372.051 382.335 378.128 375.747 386.798 375.747C395.511 375.747 401.588 382.292 401.588 391.642ZM397.211 391.642C397.211 384.502 393.046 379.785 386.798 379.785C380.551 379.785 376.428 384.502 376.428 391.642C376.428 398.782 380.551 403.542 386.798 403.542C393.046 403.542 397.211 398.74 397.211 391.642ZM408.19 407.027V376.3H419.92C425.913 376.3 429.568 379.36 429.568 384.417C429.568 387.945 428.038 390.325 424.978 391.6C428.378 392.705 430.12 395.17 430.12 398.825C430.12 403.925 426.423 407.027 420.345 407.027H408.19ZM419.665 379.997H412.355V389.857H419.92C423.363 389.857 425.318 387.987 425.318 384.8C425.318 381.74 423.278 379.997 419.665 379.997ZM420.26 393.47H412.355V403.33H420.26C423.83 403.33 425.828 401.502 425.828 398.315C425.828 395.255 423.788 393.47 420.26 393.47ZM440.774 376.3V407.027H436.609V376.3H440.774ZM453.379 376.3V403.16H466.894V407.027H449.214V376.3H453.379ZM491.436 407.027H472.694V376.3H491.436V380.125H476.859V389.73H489.991V393.427H476.859V403.16H491.436V407.027Z" fill="#FBF950"/>
<path d="M509.858 384.587C509.858 379.317 514.108 375.747 520.44 375.747C526.305 375.747 530.088 379.02 530.428 384.332H526.22C526.008 381.272 523.84 379.487 520.398 379.487C516.53 379.487 514.023 381.442 514.023 384.46C514.023 386.925 515.425 388.412 518.315 389.092L523.373 390.282C528.388 391.43 530.938 394.15 530.938 398.485C530.938 404.01 526.645 407.537 520.1 407.537C513.853 407.537 509.688 404.265 509.433 398.995H513.683C513.768 401.927 516.233 403.797 520.1 403.797C524.18 403.797 526.773 401.885 526.773 398.825C526.773 396.402 525.455 394.872 522.523 394.192L517.465 393.045C512.45 391.897 509.858 389.007 509.858 384.587ZM565.157 391.642C565.157 400.992 559.037 407.537 550.324 407.537C541.654 407.537 535.619 400.992 535.619 391.642C535.619 382.335 541.697 375.747 550.367 375.747C559.079 375.747 565.157 382.292 565.157 391.642ZM560.779 391.642C560.779 384.502 556.614 379.785 550.367 379.785C544.119 379.785 539.997 384.502 539.997 391.642C539.997 398.782 544.119 403.542 550.367 403.542C556.614 403.542 560.779 398.74 560.779 391.642ZM587.994 393.98H575.924V407.027H571.759V376.3H590.289V380.125H575.924V390.197H587.994V393.98ZM593.633 380.125V376.3H616.285V380.125H607.063V407.027H602.898V380.125H593.633ZM628.368 407.027L619.23 376.3H623.565L629.175 395.085C629.6 396.7 630.025 398.315 630.45 400.652C630.96 398.187 631.428 396.7 631.895 395.085L637.718 376.3H642.223L648.003 395.085C648.513 396.742 648.938 398.357 649.405 400.652C649.915 398.06 650.34 396.487 650.765 395.127L656.418 376.3H660.668L651.403 407.027H647.408L639.97 382.717L632.448 407.027H628.368ZM664.266 407.027H659.931L671.151 376.3H675.783L687.046 407.027H682.668L679.906 399.377H666.986L664.266 407.027ZM672.936 382.93L668.261 395.765H678.673L673.956 382.93C673.743 382.335 673.531 381.612 673.446 381.145C673.361 381.57 673.148 382.292 672.936 382.93ZM696.571 407.027H692.406V376.3H704.008C710.596 376.3 714.506 379.785 714.506 385.522C714.506 389.772 712.381 392.832 708.556 394.065L714.803 407.027H710.171L704.433 394.872H696.571V407.027ZM696.571 380.04V391.175H704.051C707.918 391.175 710.128 389.092 710.128 385.565C710.128 381.995 707.833 380.04 704.008 380.04H696.571ZM740.231 407.027H721.488V376.3H740.231V380.125H725.653V389.73H738.786V393.427H725.653V403.16H740.231V407.027ZM770.595 407.027H760.437V376.3H770.425C779.605 376.3 785.81 382.505 785.81 391.685C785.81 400.822 779.69 407.027 770.595 407.027ZM770.127 380.125H764.602V403.16H770.297C777.14 403.16 781.475 398.74 781.475 391.685C781.475 384.545 777.14 380.125 770.127 380.125ZM811.126 407.027H792.383V376.3H811.126V380.125H796.548V389.73H809.681V393.427H796.548V403.16H811.126V407.027ZM826.979 407.027L815.291 376.3H819.754L827.234 395.935C827.914 397.677 828.509 399.42 829.146 401.715C829.869 399.292 830.591 397.252 831.101 395.892L838.539 376.3H842.874L831.314 407.027H826.979ZM866.884 407.027H848.141V376.3H866.884V380.125H852.306V389.73H865.439V393.427H852.306V403.16H866.884V407.027ZM878.359 376.3V403.16H891.874V407.027H874.194V376.3H878.359ZM923.89 391.642C923.89 400.992 917.77 407.537 909.057 407.537C900.387 407.537 894.352 400.992 894.352 391.642C894.352 382.335 900.43 375.747 909.1 375.747C917.812 375.747 923.89 382.292 923.89 391.642ZM919.512 391.642C919.512 384.502 915.347 379.785 909.1 379.785C902.852 379.785 898.73 384.502 898.73 391.642C898.73 398.782 902.852 403.542 909.1 403.542C915.347 403.542 919.512 398.74 919.512 391.642ZM942.434 396.062H934.657V407.027H930.492V376.3H942.434C948.469 376.3 952.337 380.252 952.337 386.16C952.337 391.897 948.427 396.062 942.434 396.062ZM941.712 380.04H934.657V392.322H941.542C945.664 392.322 947.959 389.9 947.959 386.117C947.959 382.25 945.622 380.04 941.712 380.04ZM962.409 407.027H958.329V376.3H962.409L972.992 402.14L983.574 376.3H987.739V407.027H983.659V394.872C983.659 389.135 983.702 387.052 983.914 384.885L974.947 407.027H971.037L962.112 384.97C962.324 386.457 962.409 389.602 962.409 393.895V407.027ZM1014.91 407.027H996.169V376.3H1014.91V380.125H1000.33V389.73H1013.47V393.427H1000.33V403.16H1014.91V407.027ZM1026.39 407.027H1022.22V376.3H1026.39L1042.11 400.057V376.3H1046.28V407.027H1042.11L1026.39 383.27V407.027ZM1051.73 380.125V376.3H1074.39V380.125H1065.16V407.027H1061V380.125H1051.73Z" fill="white"/>
<path d="M129.32 24.0439C128.688 24.2477 126.435 26.1826 124.966 27.7875C124.118 28.7141 123.021 30.093 122.857 30.434C122.775 30.6078 122.73 30.7968 122.725 30.9888C122.72 31.1809 122.755 31.3719 122.828 31.5498C122.9 31.7278 123.009 31.8888 123.147 32.0227C123.286 32.1566 123.45 32.2606 123.631 32.328C123.921 32.4392 124.322 32.4429 124.612 32.3317C124.91 32.2168 125.099 32.0352 125.587 31.3902C126.873 29.6852 128.606 27.9543 130.291 26.6941C130.968 26.19 131.139 25.8934 131.113 25.2893C131.1 25.0295 131.013 24.7787 130.863 24.5666C130.712 24.3544 130.503 24.1898 130.261 24.0921C129.997 23.992 129.558 23.9698 129.32 24.0439Z" fill="#FBF950"/>
<path d="M121.013 33.9554C120.619 34.0888 120.418 34.2853 120.05 34.8857C119.425 35.9124 118.689 37.7286 117.923 40.149C117.309 42.0801 116.852 43.6702 115.573 48.3034C113.598 55.457 112.665 58.4408 111.627 60.9353C110.976 62.4995 110.236 63.7819 109.749 64.1822L109.615 64.2897L109.485 64.223C109.109 64.0191 108.6 63.2037 108.198 62.1659C107.663 60.787 107.309 59.4823 106.424 55.6238C105.357 50.9758 104.81 49.1522 103.981 47.5176C103.144 45.8608 102.196 44.9564 100.939 44.6117C100.735 44.5561 100.556 44.5413 100.102 44.5413C99.6003 44.5413 99.4888 44.5524 99.247 44.6265C97.8562 45.0602 96.7815 46.3575 95.8518 48.7111C95.2605 50.2086 94.8514 51.5985 93.8734 55.42C93.1333 58.3111 92.8284 59.4045 92.4379 60.5721C91.8838 62.24 91.2665 63.4669 90.7458 63.9413C90.5078 64.16 90.3963 64.2008 90.2698 64.1192C90.1025 64.008 89.7975 63.5521 89.5223 62.9998C89.0575 62.0584 88.8009 61.3467 87.9604 58.6632C87.3729 56.7803 87.094 55.9537 86.763 55.1234C85.744 52.5511 84.5726 51.3539 83.0144 51.2798C82.6797 51.2649 82.5459 51.276 82.2818 51.3391C81.6682 51.4836 81.1439 51.7838 80.6604 52.2657C80.1063 52.8217 79.701 53.4221 79.2026 54.4377C78.6709 55.5163 78.3622 56.3206 77.4288 59.0524C76.5065 61.747 76.1123 62.733 75.64 63.5187C75.4504 63.8338 75.2235 64.1303 75.1677 64.1303C75.0934 64.1303 74.8293 63.8227 74.5764 63.4335C74.1451 62.7774 73.8029 62.0843 72.929 60.0902C72.1034 58.211 71.4489 56.9582 70.8911 56.2057C70.4151 55.5608 69.7048 54.9603 69.1581 54.7454C68.3697 54.4303 67.6371 54.4711 66.9492 54.8714C66.5512 55.1049 65.9748 55.7017 65.5843 56.291C65.0414 57.1064 64.7439 57.6847 63.751 59.8307C63.0258 61.4023 62.4643 62.5291 62.163 63.0295C61.9176 63.4335 61.5718 63.9079 61.516 63.9079C61.4825 63.9079 61.0697 63.3112 60.8689 62.9628C60.8206 62.8812 60.4412 62.151 60.0284 61.3356C59.6157 60.5202 59.1434 59.6454 58.9872 59.386C58.0538 57.8255 57.1501 57.125 56.0716 57.125C55.2275 57.125 54.4093 57.5698 53.7883 58.363C53.2453 59.0524 52.9181 59.7047 52.0739 61.7767C51.6202 62.8923 51.1107 63.9079 51.0103 63.9079C50.9583 63.9079 50.6608 63.263 50.4004 62.5921C49.6716 60.7092 49.4373 60.1903 49.0617 59.6269C48.3848 58.6113 47.5407 58.122 46.5366 58.1702C45.923 58.2036 45.4024 58.4371 44.7925 58.9597C44.2309 59.4416 43.3793 60.509 43.1153 61.0539C43.0112 61.2689 43 61.3282 43 61.6284C43.0037 61.8805 43.0223 62.0102 43.0855 62.1659C43.2148 62.4761 43.4526 62.729 43.7549 62.8775C43.9855 62.9924 44.0301 62.9998 44.376 62.9998C44.6995 62.9998 44.7739 62.9887 44.9524 62.9035C45.2313 62.7737 45.3986 62.6218 45.6069 62.303C45.8482 61.9332 46.1193 61.5837 46.4176 61.2578L46.6258 61.0354L46.7039 61.128C46.8341 61.28 47.1576 61.962 47.4254 62.6477C48.039 64.2267 48.1691 64.5418 48.3439 64.8902C48.898 65.991 49.5005 66.5766 50.3261 66.8213C50.6273 66.9139 51.2446 66.9139 51.5644 66.825C52.2747 66.6322 52.9106 66.1244 53.4387 65.335C53.7585 64.8531 54.2568 63.8227 54.7514 62.6106C55.2126 61.4764 55.7407 60.3756 55.9229 60.1643L56.0344 60.0346L56.1609 60.1829C56.3989 60.4534 56.8228 61.2059 57.5777 62.6774C58.3736 64.2378 58.567 64.5825 58.9872 65.2052C59.2884 65.65 59.8499 66.2356 60.1772 66.4469C60.6532 66.7546 61.2408 66.8991 61.754 66.8361C62.8361 66.699 63.7212 65.9169 64.6918 64.2415L64.915 63.8523L66.6033 63.8338C68.2545 63.8153 68.2916 63.8116 68.5036 63.7263C68.7788 63.6188 69.1284 63.3001 69.2511 63.0443C69.6602 62.1992 69.1656 61.2318 68.2321 61.0539C68.1243 61.0354 67.6446 61.0168 67.1686 61.0168C66.6926 61.0168 66.2984 61.0057 66.2984 60.9946C66.2984 60.9612 66.9194 59.6343 67.1463 59.1821C67.5219 58.4334 68.0797 57.5104 68.2024 57.4363C68.2656 57.3955 68.5259 57.6847 68.8086 58.1072C69.266 58.7892 69.5969 59.4601 70.5267 61.5728C71.0882 62.8479 71.5568 63.8227 71.8729 64.3713C72.5832 65.5981 73.2525 66.3246 74.0149 66.6878C74.5281 66.9362 75.0413 67.0251 75.521 66.951C76.949 66.7286 77.9568 65.5536 79.013 62.8886C79.3328 62.088 79.5708 61.4208 80.1881 59.6083C81.1215 56.8692 81.6347 55.6386 82.2112 54.7713C82.4157 54.4563 82.795 54.0485 82.8805 54.0485C82.9549 54.0485 83.1743 54.2746 83.3566 54.5378C83.9032 55.3273 84.3904 56.5801 85.3201 59.5713C86.1048 62.1066 86.5585 63.3445 87.0531 64.3194C87.7038 65.6018 88.4402 66.395 89.3067 66.7509C90.0393 67.0511 91.0024 66.9992 91.7536 66.6211C92.6536 66.1689 93.4792 65.2052 94.1485 63.8153C94.9183 62.2289 95.4539 60.5239 96.6253 55.9389C97.5401 52.3547 97.938 51.0018 98.4698 49.6748C98.9458 48.4961 99.5334 47.5547 99.9239 47.3545C100.571 47.0209 101.478 48.3182 102.282 50.7386C102.68 51.9321 103.003 53.1923 103.747 56.443C104.781 60.9464 105.29 62.6662 106.041 64.197C106.96 66.0614 108.221 67.0622 109.649 67.0585C111.411 67.0548 112.839 65.4091 114.353 61.6469C115.402 59.0412 116.361 55.9426 118.306 48.8964C119.652 44.0112 120.165 42.2506 120.786 40.3714C121.467 38.3106 122.04 36.9354 122.534 36.1793C122.757 35.8309 122.828 35.653 122.85 35.3565C122.87 35.0528 122.789 34.7511 122.62 34.4979C122.45 34.2447 122.202 34.0541 121.913 33.9554C121.657 33.8664 121.274 33.8664 121.013 33.9554Z" fill="#FBF950"/>
<path d="M44.9709 78.3038C44.8822 78.3049 44.7959 78.2745 44.7274 78.2182C44.6557 78.1588 44.6038 78.079 44.5786 77.9895L43.0361 72.8823C42.9858 72.7106 42.9858 72.582 43.0502 72.4823C43.1078 72.3823 43.2079 72.3341 43.3369 72.3341C43.4214 72.3323 43.5042 72.3574 43.5734 72.4056C43.6495 72.4609 43.7025 72.5422 43.7222 72.6339L45.0609 77.2986H44.8921L46.132 72.684C46.1524 72.6053 46.2009 72.5368 46.2684 72.4912C46.3391 72.4397 46.4245 72.4122 46.512 72.4126C46.595 72.4138 46.6764 72.4359 46.7485 72.4768C46.7843 72.4976 46.8154 72.5255 46.84 72.5587C46.8646 72.5919 46.8822 72.6297 46.8917 72.6699L48.139 77.2916H47.9884L49.3357 72.5913C49.3859 72.4197 49.515 72.3341 49.7299 72.3341C49.8731 72.3341 49.9664 72.3911 50.0096 72.4983C50.0527 72.6054 50.0523 72.734 50.0096 72.8841L48.4685 77.9843C48.4377 78.0754 48.3833 78.1567 48.3108 78.2201C48.2423 78.2764 48.156 78.3067 48.0672 78.3057C47.9746 78.3088 47.8844 78.2756 47.8162 78.213C47.7478 78.1533 47.6964 78.0766 47.6675 77.9906L46.4332 73.2322H46.6191L45.3722 77.9765C45.341 78.0674 45.2866 78.1486 45.2145 78.2123C45.1483 78.2731 45.061 78.3059 44.9709 78.3038V78.3038Z" fill="#FBF950"/>
<path d="M52.5745 78.3052C52.5079 78.3066 52.4422 78.2901 52.3841 78.2575C52.3261 78.2249 52.2779 78.1774 52.2446 78.1199C52.1658 77.9987 52.1587 77.8701 52.2234 77.727L54.3804 72.5983C54.4592 72.4196 54.5808 72.334 54.7522 72.334C54.9382 72.334 55.0602 72.4196 55.1241 72.5983L57.2885 77.7415C57.3457 77.8842 57.3387 78.0128 57.2598 78.1273C57.1881 78.2415 57.0739 78.2985 56.9229 78.2985C56.8464 78.2992 56.7715 78.2768 56.708 78.2344C56.6379 78.1947 56.5845 78.1314 56.5573 78.0558L54.6581 73.3485H54.8731L52.9393 78.0558C52.9073 78.1323 52.8522 78.1971 52.7816 78.2411C52.7201 78.2816 52.6482 78.3038 52.5745 78.3052V78.3052ZM52.9758 76.9909L53.284 76.3337H56.287L56.5953 76.9909H52.9758Z" fill="#FBF950"/>
<path d="M60.515 78.3037C60.4619 78.305 60.4092 78.2955 60.3599 78.2759C60.3106 78.2562 60.2659 78.2268 60.2284 78.1894C60.1909 78.152 60.1614 78.1074 60.1416 78.0584C60.1219 78.0093 60.1124 77.9567 60.1137 77.9038V72.7321C60.1112 72.679 60.1201 72.626 60.14 72.5767C60.1598 72.5274 60.19 72.4829 60.2286 72.4463C60.3057 72.3729 60.4083 72.332 60.515 72.3321C60.5879 72.3309 60.6597 72.3504 60.7219 72.3883C60.7842 72.4263 60.8343 72.4811 60.8664 72.5464L63.2672 77.3397H63.0237L65.3598 72.5464C65.3891 72.4911 65.4309 72.4434 65.4819 72.407C65.5329 72.3706 65.5918 72.3466 65.6537 72.3369C65.7157 72.3272 65.7791 72.332 65.8388 72.351C65.8986 72.37 65.9531 72.4026 65.998 72.4463C66.0365 72.483 66.0666 72.5275 66.0864 72.5768C66.1062 72.6261 66.1151 72.679 66.1125 72.7321V77.9038C66.113 77.9572 66.1024 78.0102 66.0814 78.0594C66.0604 78.1085 66.0295 78.1529 65.9905 78.1896C65.9543 78.2267 65.9109 78.256 65.8628 78.2756C65.8148 78.2953 65.7632 78.3048 65.7112 78.3037C65.6582 78.3051 65.6054 78.2956 65.5561 78.276C65.5068 78.2564 65.462 78.227 65.4244 78.1896C65.3869 78.1522 65.3573 78.1076 65.3376 78.0584C65.3179 78.0093 65.3083 77.9567 65.3096 77.9038V73.8322L65.4584 73.7951L63.4502 77.8723C63.3643 78.008 63.2494 78.0725 63.1062 78.0725C63.0282 78.0764 62.9508 78.0558 62.8852 78.0135C62.8196 77.9712 62.769 77.9093 62.7407 77.8367L60.7556 73.8707L60.9043 73.8337V77.9053C60.9062 77.9582 60.8969 78.011 60.8772 78.0602C60.8575 78.1094 60.8277 78.154 60.7898 78.1911C60.7156 78.2616 60.6175 78.3019 60.515 78.3037Z" fill="#FBF950"/>
<path d="M69.9622 78.3041C69.9092 78.3054 69.8564 78.2959 69.8071 78.2763C69.7578 78.2567 69.7131 78.2273 69.6755 78.1899C69.638 78.1525 69.6085 78.1078 69.5888 78.0587C69.5691 78.0096 69.5596 77.957 69.561 77.9041V72.7324C69.5584 72.6794 69.5673 72.6264 69.5871 72.5771C69.6068 72.5278 69.637 72.4833 69.6755 72.4466C69.7528 72.3732 69.8555 72.3323 69.9622 72.3325C70.0154 72.3299 70.0686 72.3388 70.118 72.3585C70.1675 72.3782 70.2122 72.4082 70.249 72.4466C70.2861 72.4843 70.3153 72.529 70.335 72.5781C70.3547 72.6271 70.3643 72.6796 70.3635 72.7324V77.9041C70.365 77.957 70.3556 78.0096 70.3357 78.0586C70.3157 78.1076 70.2858 78.1519 70.2478 78.1888C70.2107 78.2264 70.1661 78.2561 70.117 78.2759C70.0679 78.2957 70.0152 78.3053 69.9622 78.3041Z" fill="#FBF950"/>
<path d="M75.7174 78.3735C75.3984 78.3754 75.0812 78.3253 74.7784 78.2252C74.4956 78.1316 74.2329 77.9862 74.0038 77.7964C73.7934 77.6273 73.6283 77.4089 73.5233 77.1607C73.4978 77.1144 73.4851 77.0623 73.4864 77.0096C73.4877 76.9568 73.503 76.9054 73.5307 76.8605C73.588 76.7678 73.6739 76.7122 73.803 76.6822C73.8958 76.6611 73.9933 76.6764 74.0752 76.7248C74.1627 76.7738 74.2328 76.8487 74.276 76.939C74.3489 77.0766 74.4517 77.1963 74.5768 77.2893C74.7308 77.4029 74.9029 77.4899 75.0859 77.5465C75.2901 77.6127 75.5035 77.6463 75.7181 77.6462C75.9501 77.6497 76.1807 77.611 76.3987 77.5321C76.5921 77.465 76.7649 77.3494 76.9004 77.1963C77.0312 77.0489 77.1005 76.8573 77.0941 76.6607C77.0941 76.3894 76.9866 76.1462 76.7788 75.932C76.5638 75.7177 76.2209 75.5891 75.7323 75.532C75.1001 75.4675 74.5999 75.2818 74.2343 74.976C73.8688 74.6617 73.6899 74.2829 73.6899 73.8189C73.6899 73.4831 73.7829 73.1973 73.9763 72.9615C74.1624 72.7258 74.4205 72.5473 74.7505 72.4259C75.0971 72.2996 75.4637 72.2368 75.8327 72.2406C76.1108 72.2356 76.3877 72.2792 76.6508 72.3692C76.8737 72.4511 77.08 72.5721 77.26 72.7265C77.4365 72.8844 77.5886 73.0674 77.7114 73.2696C77.7832 73.3837 77.8118 73.4838 77.7973 73.5839C77.7914 73.6316 77.7749 73.6775 77.7492 73.7182C77.7235 73.7589 77.6892 73.7936 77.6486 73.8196C77.6026 73.85 77.5501 73.8692 77.4953 73.8757C77.4406 73.8821 77.385 73.8756 77.3332 73.8567C77.2801 73.8417 77.2306 73.8162 77.1874 73.7819C77.1443 73.7475 77.1086 73.7049 77.0822 73.6565C77.008 73.514 76.9057 73.388 76.7814 73.2859C76.657 73.1828 76.5166 73.1008 76.3656 73.0431C76.186 72.9826 75.9973 72.9536 75.8078 72.9575C75.4277 72.9501 75.1124 73.0216 74.8546 73.1647C74.5969 73.3077 74.4746 73.5353 74.4746 73.8359C74.4766 73.9921 74.5186 74.1452 74.5966 74.2807C74.6754 74.4234 74.8197 74.545 75.0335 74.6451C75.2473 74.7451 75.5497 74.8163 75.9509 74.8593C76.5601 74.9238 77.0331 75.1021 77.37 75.4153C77.707 75.7225 77.8788 76.1295 77.8788 76.6384C77.8788 76.9312 77.8215 77.1811 77.6999 77.3957C77.5815 77.6074 77.4174 77.7904 77.2194 77.9313C77.0109 78.0779 76.778 78.1867 76.5314 78.2526C76.269 78.339 75.9937 78.3799 75.7174 78.3735V78.3735Z" fill="#FBF950"/>
<path d="M83.7725 78.3745C83.3507 78.3787 82.9321 78.301 82.5401 78.1458C82.1788 78.0033 81.8515 77.7868 81.5795 77.5101C81.3063 77.2329 81.0939 76.9021 80.9559 76.5386C80.8071 76.168 80.7328 75.7529 80.7328 75.3029C80.7267 74.8828 80.8025 74.4655 80.9559 74.0742C81.0985 73.7153 81.3104 73.3879 81.5795 73.1105C81.8516 72.8338 82.1788 72.6171 82.5401 72.4744C83.3335 72.17 84.2119 72.17 85.0053 72.4744C85.3658 72.6193 85.6928 72.8359 85.9664 73.111C86.24 73.3861 86.4544 73.714 86.5966 74.0745C86.7494 74.466 86.8251 74.8832 86.8197 75.3033C86.8251 75.7256 86.7494 76.145 86.5966 76.539C86.4562 76.9014 86.2425 77.2311 85.9687 77.5076C85.695 77.7841 85.367 78.0015 85.0053 78.1462C84.6327 78.3044 84.224 78.3745 83.7725 78.3745ZM83.7725 77.6602C84.0874 77.6647 84.3998 77.6038 84.6899 77.4816C84.9633 77.3665 85.2099 77.1963 85.414 76.9816C85.6193 76.7681 85.7801 76.5161 85.887 76.2403C85.9973 75.9455 86.0531 75.6334 86.0518 75.3188C86.0538 75.0042 85.998 74.6919 85.887 74.3974C85.7846 74.1193 85.6232 73.8665 85.414 73.6561C85.21 73.4429 84.9633 73.2749 84.6899 73.1631C84.3988 73.0445 84.0871 72.9839 83.7725 72.9848C83.4578 72.9805 83.1455 73.0412 82.8555 73.1631C82.5821 73.2749 82.3354 73.4429 82.1314 73.6561C81.9283 73.8713 81.7678 74.1228 81.6584 74.3974C81.4293 74.9905 81.4293 75.6472 81.6584 76.2403C81.7661 76.5157 81.9268 76.7675 82.1314 76.9816C82.3349 77.1974 82.581 77.3688 82.8543 77.4849C83.1459 77.6031 83.4578 77.6632 83.7725 77.6617V77.6602Z" fill="#FBF950"/>
<path d="M89.9017 78.3038C89.8486 78.3052 89.7959 78.2957 89.7466 78.2761C89.6973 78.2565 89.6525 78.2271 89.615 78.1896C89.5775 78.1522 89.548 78.1076 89.5283 78.0585C89.5086 78.0094 89.4991 77.9568 89.5004 77.9039V72.7322C89.4979 72.6791 89.5068 72.6262 89.5265 72.5769C89.5463 72.5276 89.5765 72.4831 89.615 72.4464C89.6922 72.3729 89.7949 72.332 89.9017 72.3322H93.3706C93.4753 72.329 93.5775 72.3647 93.6573 72.4323C93.6932 72.4676 93.7213 72.51 93.7398 72.5567C93.7583 72.6034 93.7668 72.6534 93.7648 72.7036C93.7668 72.7517 93.7582 72.7997 93.7396 72.8441C93.721 72.8885 93.693 72.9284 93.6573 72.9609C93.578 73.0294 93.4755 73.0652 93.3706 73.0609H90.3029V74.9179H92.5034C92.6081 74.9149 92.7102 74.9505 92.7901 75.018C92.859 75.0888 92.8976 75.1836 92.8976 75.2823C92.8976 75.3809 92.859 75.4757 92.7901 75.5465C92.7183 75.6181 92.625 75.6466 92.5034 75.6466H90.3029V77.8969C90.3047 77.9498 90.2955 78.0025 90.2758 78.0517C90.2561 78.1009 90.2263 78.1455 90.1884 78.1826C90.1515 78.2214 90.1071 78.2522 90.0577 78.273C90.0084 78.2939 89.9553 78.3044 89.9017 78.3038V78.3038Z" fill="#FBF950"/>
<path d="M96.4145 73.0678C96.3164 73.0698 96.2214 73.0339 96.1493 72.9677C96.0779 72.9036 96.0489 72.8105 96.0489 72.7034C96.0471 72.6058 96.083 72.5111 96.1493 72.4392C96.1841 72.405 96.2256 72.3784 96.2713 72.3612C96.3169 72.344 96.3657 72.3364 96.4145 72.3391H100.514C100.612 72.3372 100.707 72.3731 100.779 72.4392C100.813 72.4738 100.84 72.5152 100.857 72.5607C100.875 72.6062 100.882 72.6548 100.88 72.7034C100.881 72.8011 100.846 72.8957 100.779 72.9677C100.715 73.0392 100.622 73.0678 100.514 73.0678H96.4145ZM98.4643 78.3036C98.4112 78.305 98.3584 78.2955 98.3092 78.2759C98.2599 78.2563 98.2151 78.2268 98.1776 78.1894C98.1401 78.152 98.1105 78.1074 98.0908 78.0583C98.0712 78.0092 98.0617 77.9566 98.063 77.9037V72.332H98.8585V77.9037C98.8598 77.956 98.8506 78.008 98.8313 78.0567C98.8121 78.1054 98.7832 78.1497 98.7465 78.187C98.7097 78.2243 98.6657 78.2539 98.6173 78.2739C98.5688 78.2939 98.5167 78.3041 98.4643 78.3036Z" fill="#FBF950"/>
<path d="M104.958 78.3038C104.869 78.3049 104.783 78.2746 104.714 78.2182C104.643 78.1587 104.591 78.0789 104.565 77.9895L103.024 72.8823C102.974 72.7106 102.974 72.582 103.039 72.4823C103.096 72.3822 103.196 72.3341 103.326 72.3341C103.41 72.3324 103.493 72.3575 103.562 72.4056C103.638 72.4609 103.691 72.5422 103.711 72.6339L105.05 77.2986H104.878L106.118 72.684C106.138 72.6053 106.186 72.5368 106.254 72.4912C106.324 72.4399 106.41 72.4124 106.497 72.4126C106.58 72.4138 106.662 72.4359 106.734 72.4768C106.77 72.4976 106.801 72.5255 106.825 72.5587C106.85 72.5919 106.868 72.6297 106.877 72.6699L108.124 77.2916H107.976L109.323 72.5913C109.373 72.4197 109.502 72.3341 109.717 72.3341C109.861 72.3341 109.954 72.3911 109.997 72.4983C110.04 72.6054 110.04 72.734 109.997 72.8841L108.456 77.9843C108.425 78.0754 108.37 78.1567 108.298 78.22C108.23 78.2765 108.143 78.3069 108.054 78.3057C107.962 78.3089 107.872 78.2756 107.804 78.213C107.734 78.1536 107.682 78.0768 107.653 77.9906L106.42 73.2333H106.606L105.359 77.9776C105.328 78.0686 105.274 78.1499 105.202 78.2134C105.135 78.2738 105.048 78.3062 104.958 78.3038V78.3038Z" fill="#FBF950"/>
<path d="M112.555 78.3052C112.488 78.3065 112.423 78.29 112.365 78.2574C112.307 78.2248 112.259 78.1773 112.225 78.1199C112.146 77.9987 112.139 77.8701 112.204 77.727L114.361 72.5983C114.439 72.4196 114.561 72.334 114.733 72.334C114.918 72.334 115.04 72.4196 115.104 72.5983L117.269 77.7415C117.326 77.8842 117.319 78.0128 117.24 78.1273C117.168 78.2415 117.054 78.2985 116.903 78.2985C116.827 78.2992 116.752 78.2768 116.688 78.2344C116.619 78.1944 116.566 78.1311 116.54 78.0558L114.64 73.3485H114.855L112.921 78.0558C112.889 78.1323 112.834 78.1971 112.764 78.2411C112.702 78.2829 112.629 78.3052 112.555 78.3052V78.3052ZM112.964 76.9909L113.272 76.3337H116.275L116.583 76.9909H112.964Z" fill="#FBF950"/>
<path d="M120.503 78.3036C120.45 78.305 120.397 78.2955 120.348 78.2759C120.299 78.2563 120.254 78.2268 120.217 78.1894C120.179 78.152 120.15 78.1074 120.13 78.0583C120.11 78.0092 120.101 77.9566 120.102 77.9037V72.732C120.099 72.6789 120.108 72.626 120.128 72.5767C120.148 72.5274 120.178 72.4829 120.217 72.4462C120.294 72.3727 120.396 72.3318 120.503 72.332H121.886C122.266 72.332 122.61 72.4106 122.904 72.5748C123.194 72.7262 123.435 72.9567 123.599 73.2394C123.764 73.5178 123.85 73.8465 123.85 74.2179C123.856 74.54 123.77 74.8571 123.603 75.1326C123.436 75.4081 123.193 75.6308 122.904 75.7747C122.588 75.9306 122.239 76.009 121.886 76.0034H120.905V77.9033C120.906 77.9563 120.897 78.009 120.877 78.0582C120.858 78.1074 120.828 78.152 120.79 78.1891C120.713 78.2628 120.61 78.3039 120.503 78.3036V78.3036ZM120.897 75.268H121.879C122.095 75.2737 122.309 75.2271 122.503 75.1323C122.676 75.0506 122.822 74.9222 122.926 74.7617C123.027 74.5965 123.079 74.4057 123.074 74.212C123.079 74.0046 123.028 73.7998 122.926 73.6189C122.824 73.4475 122.678 73.3066 122.503 73.2112C122.324 73.1115 122.116 73.0685 121.879 73.0685H120.898L120.897 75.268ZM123.687 78.3036C123.62 78.3048 123.553 78.2902 123.493 78.261C123.432 78.227 123.38 78.1777 123.344 78.1179L121.961 75.9037L122.735 75.6813L123.989 77.6954C124.082 77.8437 124.096 77.9812 124.026 78.1098C123.958 78.2395 123.843 78.3036 123.687 78.3036H123.687Z" fill="#FBF950"/>
<path d="M127.261 78.3038C127.208 78.3052 127.155 78.2957 127.106 78.2761C127.057 78.2565 127.012 78.2271 126.974 78.1896C126.937 78.1522 126.907 78.1076 126.888 78.0585C126.868 78.0094 126.858 77.9568 126.86 77.9039V72.7322C126.857 72.6791 126.866 72.6262 126.886 72.5769C126.906 72.5276 126.936 72.4831 126.974 72.4464C127.052 72.3729 127.154 72.332 127.261 72.3322H130.73C130.835 72.329 130.937 72.3647 131.017 72.4323C131.053 72.4675 131.081 72.5097 131.099 72.5563C131.118 72.6029 131.126 72.6528 131.124 72.7029C131.126 72.751 131.118 72.799 131.099 72.8434C131.081 72.8878 131.052 72.9277 131.017 72.9601C130.938 73.0289 130.835 73.0648 130.73 73.0602H127.663V74.9172H129.863C129.967 74.9141 130.07 74.9498 130.149 75.0172C130.218 75.0881 130.257 75.1829 130.257 75.2815C130.257 75.3802 130.218 75.475 130.149 75.5458C130.078 75.6173 129.985 75.6459 129.863 75.6459H127.663V77.5603H130.73C130.835 77.5571 130.937 77.5927 131.017 77.6604C131.052 77.6928 131.081 77.7326 131.099 77.7771C131.118 77.8215 131.126 77.8695 131.124 77.9176C131.126 77.9678 131.118 78.0179 131.099 78.0646C131.081 78.1113 131.053 78.1537 131.017 78.1889C130.945 78.2605 130.852 78.289 130.73 78.289H127.261V78.3038Z" fill="#FBF950"/>
<g clip-path="url(#clip1_210_1435)">
<path d="M176.214 61.5957C176.458 61.5957 176.947 62.1928 176.903 62.7247C176.857 63.2865 176.471 63.7833 176.155 63.7833C176.008 63.7833 175.442 63.8104 172.3 63.8104C172.032 66.0557 170.619 78.0263 170.57 78.2745C170.521 78.7172 169.669 79.2173 168.28 79.2458C167.232 79.2732 165.99 78.8571 166.063 78.3861C166.111 78.0263 167.573 66.1948 167.891 63.8104H163.732C163.44 63.8104 162.875 63.3759 162.875 62.7317C162.875 62.1462 163.323 61.5957 163.614 61.5957H176.214Z" fill="#3E634C"/>
<path d="M199.68 65.6094H192.677C188.443 65.6094 185.232 66.6327 184.541 71.1362C183.848 75.6127 186.007 77.3805 189.771 77.3805H193.202L193.559 75.4458H190.989C189.577 75.4458 188.636 74.3702 189.135 71.1906C189.632 68.0417 191.127 67.82 191.737 67.82H196.58C195.916 72.4078 195.445 75.4458 195.445 75.4458H195.441L195.102 77.3805H195.113C194.724 79.6747 193.674 80.3644 192.788 80.3644H185.675C185.675 80.3644 185.566 80.3644 185.427 80.4483C185.151 80.7793 185.01 81.2207 185.01 81.6633C185.01 81.884 185.038 82.1055 185.094 82.2988C190.242 82.3254 193.866 82.3254 193.866 82.3254C197.493 82.3254 199.292 79.8944 199.68 77.3805C199.873 76.1927 201.063 68.2339 201.174 67.5445C201.367 66.3556 200.924 65.6094 199.68 65.6094Z" fill="#3E634C"/>
<path d="M181.244 79.1804C181.244 79.1804 181.218 79.3063 181.165 79.3384C180.554 79.6201 179.863 79.7783 179.04 79.7783C178.243 79.7783 177.525 79.6201 176.941 79.3384C176.914 79.3384 176.861 79.2741 176.861 79.2125C178.535 65.9504 178.535 65.8886 178.535 65.8886C178.535 65.8886 178.561 65.7934 178.615 65.7625C179.226 65.4469 179.943 65.2891 180.74 65.2891C181.563 65.2891 182.255 65.4469 182.865 65.7625C182.919 65.7934 182.919 65.8886 182.919 65.8886C182.919 65.9198 181.405 77.8568 181.244 79.1804Z" fill="#3E634C"/>
<path fill-rule="evenodd" clip-rule="evenodd" d="M211.059 79.9104C214.615 79.9104 219.993 79.7548 220.965 73.0379C221.908 66.3214 218.139 65.6387 212.822 65.6387C206.834 65.6387 203.551 66.5396 202.853 72.044C202.032 78.4805 204.28 79.9104 211.059 79.9104ZM211.059 77.5786C208.474 77.5786 207.168 76.9265 207.898 72.2303C208.474 68.5299 209.994 67.9699 212.456 67.9699C215.039 67.9699 216.742 68.8713 216.134 72.5716C215.313 77.5159 213.855 77.5786 211.059 77.5786Z" fill="#3E634C"/>
<path d="M179.129 63.1005C179.129 63.1005 177.812 58.5056 185.478 59.0438C185.478 59.0438 183.943 59.627 183.305 62.8561C183.305 62.8561 182.243 65.9176 179.483 64.0841C179.483 64.0841 179.233 63.5328 179.129 63.1005Z" fill="#55B947"/>
<path d="M184.951 59.0254C184.951 59.0254 182.418 59.9947 181.223 60.9636C181.223 60.9636 181.088 60.0026 182.054 59.1788L181.788 59.2405C181.788 59.2405 180.938 59.8842 181.043 61.092C181.043 61.092 179.18 62.5914 179.502 64.1077L179.682 64.2186C179.682 64.2186 179.249 63.021 180.714 61.6275C180.714 61.6275 181.758 62.82 183.169 62.4237L183.216 62.2367C183.216 62.2367 181.917 62.6664 180.846 61.4969C180.846 61.4969 182.059 60.3716 184.972 59.1716L185.193 59.0405L184.951 59.0254Z" fill="white"/>
<path fill-rule="evenodd" clip-rule="evenodd" d="M223.629 66.3252C224.096 66.3252 224.495 66.16 224.824 65.8294C225.154 65.4989 225.319 65.1003 225.319 64.6335C225.319 64.1683 225.154 63.7719 224.824 63.4444C224.495 63.1169 224.096 62.9531 223.629 62.9531C223.164 62.9531 222.768 63.1169 222.44 63.4444C222.11 63.7733 221.945 64.1697 221.945 64.6335C221.945 65.1017 222.109 65.5004 222.435 65.8294C222.763 66.16 223.161 66.3252 223.629 66.3252ZM222.603 63.6096C222.321 63.8927 222.18 64.2347 222.18 64.6357C222.18 65.0398 222.32 65.3841 222.601 65.6688C222.883 65.9533 223.225 66.0958 223.629 66.0958C224.032 66.0958 224.374 65.9533 224.656 65.6688C224.938 65.3841 225.08 65.0398 225.08 64.6357C225.08 64.2347 224.938 63.8927 224.656 63.6096C224.373 63.325 224.03 63.1826 223.629 63.1826C223.228 63.1826 222.887 63.325 222.603 63.6096ZM224.102 63.7703C223.995 63.726 223.826 63.7037 223.596 63.7037H222.948V65.554H223.275V64.8263H223.532C223.705 64.8263 223.826 64.8461 223.895 64.8858C224.012 64.9544 224.07 65.0956 224.07 65.3092V65.4556L224.077 65.515C224.079 65.5227 224.08 65.5295 224.082 65.5357C224.083 65.5418 224.085 65.5478 224.086 65.554H224.392L224.38 65.5311C224.373 65.5157 224.368 65.4837 224.364 65.4347C224.362 65.3858 224.36 65.34 224.36 65.2972V65.1619C224.36 65.0686 224.326 64.9732 224.259 64.8752C224.192 64.7774 224.086 64.717 223.941 64.6941C224.056 64.6757 224.145 64.6458 224.209 64.6044C224.33 64.5263 224.39 64.4045 224.39 64.2392C224.39 64.0062 224.294 63.8501 224.102 63.7703ZM223.949 63.9952C223.867 63.9494 223.735 63.9263 223.554 63.9263H223.275V64.5967H223.57C223.708 64.5967 223.812 64.583 223.881 64.5553C224.009 64.505 224.072 64.4085 224.072 64.2662C224.072 64.1315 224.031 64.0411 223.949 63.9952Z" fill="#3E634C"/>
</g>
</g>
<defs>
<filter id="filter0_f_210_1435" x="-148.75" y="318.75" width="1484.69" height="526.25" filterUnits="userSpaceOnUse" color-interpolation-filters="sRGB">
<feFlood flood-opacity="0" result="BackgroundImageFix"/>
<feBlend mode="normal" in="SourceGraphic" in2="BackgroundImageFix" result="shape"/>
<feGaussianBlur stdDeviation="31.25" result="effect1_foregroundBlur_210_1435"/>
</filter>
<filter id="filter1_f_210_1435" x="-148.75" y="396.875" width="1449.68" height="346.25" filterUnits="userSpaceOnUse" color-interpolation-filters="sRGB">
<feFlood flood-opacity="0" result="BackgroundImageFix"/>
<feBlend mode="normal" in="SourceGraphic" in2="BackgroundImageFix" result="shape"/>
<feGaussianBlur stdDeviation="31.25" result="effect1_foregroundBlur_210_1435"/>
</filter>
<filter id="filter2_f_210_1435" x="-117.5" y="493.125" width="1422.5" height="163.125" filterUnits="userSpaceOnUse" color-interpolation-filters="sRGB">
<feFlood flood-opacity="0" result="BackgroundImageFix"/>
<feBlend mode="normal" in="SourceGraphic" in2="BackgroundImageFix" result="shape"/>
<feGaussianBlur stdDeviation="15.625" result="effect1_foregroundBlur_210_1435"/>
</filter>
<clipPath id="clip0_210_1435">
<rect width="1200" height="675" fill="white"/>
</clipPath>
<clipPath id="clip1_210_1435">
<rect width="62.5" height="23.622" fill="white" transform="translate(162.875 59)"/>
</clipPath>
</defs>
</svg>
