<svg width="790" height="755" viewBox="0 0 790 755" fill="none" xmlns="http://www.w3.org/2000/svg">
<path opacity="0.0126582" d="M647.733 281.765C648.024 282.667 647.856 283.742 647.179 285.004C646.502 286.267 645.331 287.688 643.674 289.257C640.361 292.393 635.152 296.075 628.228 300.219C614.381 308.505 593.726 318.609 567.791 329.864C515.925 352.372 442.977 379.471 361.242 405.824C279.507 432.177 204.469 452.792 149.223 464.818C121.598 470.832 98.9299 474.696 82.8514 476.058C74.81 476.739 68.4315 476.794 63.9105 476.183C61.6495 475.878 59.8696 475.408 58.5828 474.779C57.296 474.149 56.5316 473.375 56.2408 472.473C55.9499 471.571 56.1182 470.496 56.7949 469.234C57.4717 467.971 58.6419 466.55 60.2988 464.981C63.6119 461.845 68.8207 458.163 75.7456 454.019C89.5917 445.733 110.248 435.629 136.183 424.374C188.049 401.865 260.997 374.766 342.732 348.413C424.467 322.06 499.506 301.446 554.752 289.42C582.376 283.406 605.043 279.542 621.122 278.18C629.163 277.498 635.542 277.444 640.063 278.055C642.324 278.36 644.104 278.83 645.391 279.459C646.678 280.089 647.443 280.863 647.733 281.765Z" stroke="#FBF950" stroke-width="0.553407"/>
<path opacity="0.0253165" d="M646.166 279.642C646.497 280.641 646.361 281.811 645.726 283.164C645.09 284.518 643.963 286.033 642.353 287.697C639.133 291.026 634.025 294.908 627.207 299.258C613.573 307.956 593.151 318.489 567.458 330.166C516.076 353.521 443.645 381.436 362.343 408.375C281.042 435.314 206.272 456.175 151.111 468.124C123.529 474.098 100.859 477.844 84.7289 479.008C76.6618 479.591 70.2465 479.527 65.6762 478.78C63.3907 478.406 61.5823 477.864 60.2634 477.158C58.9459 476.452 58.1383 475.594 57.8073 474.595C57.4765 473.596 57.6122 472.426 58.2475 471.074C58.8836 469.719 60.0106 468.205 61.6208 466.54C64.8407 463.212 69.9482 459.33 76.767 454.98C90.4006 446.282 110.821 435.748 136.514 424.071C187.896 400.717 260.328 372.801 341.63 345.862C422.931 318.923 497.7 298.063 552.861 286.114C580.444 280.139 603.115 276.394 619.245 275.229C627.312 274.647 633.727 274.711 638.297 275.458C640.583 275.832 642.391 276.374 643.71 277.08C645.027 277.786 645.835 278.643 646.166 279.642Z" stroke="#FBF950" stroke-width="0.553407"/>
<path opacity="0.0379747" d="M644.531 277.382C644.903 278.475 644.803 279.741 644.211 281.184C643.618 282.63 642.536 284.238 640.975 285.999C637.853 289.519 632.852 293.603 626.145 298.16C612.734 307.273 592.559 318.244 567.12 330.355C516.245 354.575 444.353 383.338 363.504 410.902C282.655 438.465 208.165 459.606 153.09 471.507C125.551 477.457 102.876 481.095 86.6914 482.072C78.5971 482.561 72.1426 482.382 67.5201 481.502C65.2089 481.062 63.3702 480.449 62.0173 479.667C60.6665 478.886 59.8146 477.945 59.4417 476.851C59.0688 475.758 59.1687 474.493 59.761 473.049C60.3543 471.603 61.4357 469.995 62.9968 468.235C66.119 464.714 71.1201 460.629 77.8273 456.072C91.2381 446.959 111.413 435.988 136.852 423.877C187.727 399.657 259.618 370.894 340.468 343.331C421.317 315.767 495.807 294.626 550.882 282.725C578.421 276.775 601.096 273.137 617.28 272.16C625.375 271.672 631.83 271.851 636.452 272.731C638.763 273.171 640.602 273.784 641.955 274.566C643.306 275.347 644.158 276.288 644.531 277.382Z" stroke="#FBF950" stroke-width="0.553407"/>
<path opacity="0.0506329" d="M642.828 274.993C643.662 277.368 642.58 280.439 639.546 284.169C636.527 287.883 631.636 292.169 625.046 296.937C611.869 306.469 591.953 317.884 566.779 330.437C516.436 355.542 445.109 385.183 364.731 413.406C284.354 441.629 210.154 463.088 155.167 474.968C127.671 480.909 104.99 484.451 88.7466 485.249C80.6227 485.649 74.126 485.36 69.4476 484.35C64.748 483.335 61.9832 481.615 61.1491 479.24C60.3152 476.864 61.3975 473.793 64.4309 470.063C67.4506 466.35 72.3411 462.063 78.9311 457.296C92.108 447.764 112.025 436.349 137.198 423.796C187.541 398.691 258.868 369.05 339.246 340.826C419.624 312.603 493.824 291.145 548.811 279.265C576.306 273.325 598.987 269.781 615.231 268.983C623.354 268.584 629.851 268.872 634.53 269.882C639.229 270.897 641.994 272.617 642.828 274.993Z" stroke="#FBF950" stroke-width="0.553407"/>
<path opacity="0.0632911" d="M641.048 272.482C641.973 275.038 640.977 278.297 638.056 282.216C635.143 286.121 630.369 290.611 623.901 295.59C610.97 305.544 591.324 317.409 566.429 330.413C516.643 356.421 445.905 386.968 366.019 415.885C286.133 444.803 212.233 466.613 157.335 478.5C129.884 484.443 107.195 487.903 90.8885 488.533C82.7331 488.847 76.1907 488.454 71.4532 487.317C66.7 486.177 63.8488 484.31 62.9235 481.755C61.9984 479.199 62.9945 475.94 65.9161 472.021C68.8283 468.115 73.6028 463.625 80.0701 458.646C93.0015 448.692 112.648 436.827 137.542 423.822C187.329 397.815 258.066 367.268 337.953 338.351C417.839 309.433 491.739 287.623 546.637 275.736C574.087 269.792 596.776 266.333 613.083 265.703C621.238 265.388 627.781 265.783 632.519 266.919C637.272 268.06 640.123 269.926 641.048 272.482Z" stroke="#FBF950" stroke-width="0.553407"/>
<path opacity="0.0759494" d="M639.199 269.851C640.22 272.585 639.317 276.03 636.511 280.138C633.711 284.236 629.059 288.931 622.721 294.121C610.047 304.5 590.684 316.82 566.08 330.285C516.876 357.211 446.755 388.689 367.381 418.334C288.007 447.979 214.419 470.173 159.611 482.093C132.205 488.053 109.505 491.442 93.1308 491.912C84.9417 492.148 78.3514 491.652 73.5509 490.392C68.7393 489.13 65.7986 487.119 64.7777 484.386C63.757 481.653 64.6599 478.207 67.4657 474.099C70.265 470.001 74.9172 465.307 81.2555 460.116C93.9295 449.737 113.293 437.417 137.897 423.953C187.1 397.026 257.221 365.548 336.595 335.903C415.969 306.259 489.557 284.065 544.366 272.145C571.772 266.184 594.471 262.795 610.846 262.325C619.035 262.09 625.625 262.585 630.426 263.845C635.237 265.108 638.178 267.118 639.199 269.851Z" stroke="#FBF950" stroke-width="0.553407"/>
<path opacity="0.0886076" d="M637.272 267.105C638.394 270.013 637.59 273.645 634.905 277.942C632.224 282.232 627.7 287.131 621.497 292.534C609.093 303.339 590.026 316.12 565.727 330.051C517.133 357.91 447.656 390.344 368.816 420.747C289.975 451.149 216.71 473.759 161.992 485.739C134.632 491.729 111.92 495.058 95.473 495.379C87.2477 495.539 80.6061 494.946 75.7387 493.567C70.8638 492.185 67.8315 490.033 66.7099 487.125C65.5885 484.217 66.3906 480.586 69.0758 476.289C71.7568 471.998 76.2809 467.1 82.4842 461.696C94.8883 450.891 113.955 438.11 138.254 424.179C186.848 396.32 256.325 363.886 335.165 333.484C414.006 303.081 487.271 280.471 541.989 268.492C569.349 262.501 592.061 259.172 608.508 258.851C616.733 258.691 623.375 259.284 628.242 260.663C633.118 262.045 636.151 264.197 637.272 267.105Z" stroke="#FBF950" stroke-width="0.553407"/>
<path opacity="0.101266" d="M635.26 264.259C636.487 267.338 635.791 271.153 633.232 275.639C630.675 280.121 626.285 285.223 620.223 290.841C608.102 302.073 589.346 315.318 565.365 329.722C517.409 358.527 448.604 391.94 370.318 423.129C292.033 454.319 219.101 477.374 164.475 489.439C137.16 495.471 114.434 498.753 97.9095 498.933C89.6456 499.023 82.9495 498.337 78.0114 496.842C73.0683 495.344 69.9396 493.054 68.7127 489.974C67.4858 486.895 68.1821 483.08 70.7414 478.594C73.2982 474.112 77.688 469.01 83.7498 463.392C95.8712 452.16 114.627 438.915 138.608 424.511C186.564 395.706 255.369 362.293 333.655 331.103C411.94 299.914 484.872 276.859 539.498 264.794C566.813 258.762 589.539 255.48 606.064 255.3C614.327 255.21 621.023 255.896 625.962 257.391C630.905 258.888 634.033 261.179 635.26 264.259Z" stroke="#FBF950" stroke-width="0.553407"/>
<path opacity="0.113924" d="M633.17 261.316C634.508 264.564 633.926 268.561 631.497 273.236C629.071 277.908 624.821 283.213 618.908 289.044C607.082 300.705 588.651 314.418 565.003 329.3C517.713 359.062 449.608 393.474 371.901 425.477C294.193 457.48 221.608 481.01 167.074 493.184C139.805 499.272 117.062 502.516 100.455 502.565C92.1495 502.59 85.3955 501.816 80.3825 500.208C75.3665 498.599 72.1391 496.171 70.8014 492.923C69.4639 489.675 70.0456 485.679 72.4736 481.004C74.9003 476.332 79.1504 471.026 85.0641 465.195C96.8897 453.535 115.321 439.822 138.968 424.94C186.258 395.178 254.363 360.766 332.07 328.763C409.778 296.76 482.363 273.23 536.897 261.056C564.167 254.968 586.91 251.724 603.517 251.675C611.822 251.65 618.576 252.424 623.589 254.032C628.604 255.641 631.832 258.068 633.17 261.316Z" stroke="#FBF950" stroke-width="0.553407"/>
<path opacity="0.126582" d="M630.997 258.276C632.451 261.689 631.989 265.865 629.698 270.727C627.408 275.588 623.305 281.098 617.546 287.143C606.03 299.231 587.938 313.413 564.639 328.778C518.044 359.505 450.669 394.934 373.562 427.776C296.455 460.619 224.228 484.651 169.787 496.958C142.564 503.112 119.802 506.332 103.107 506.26C94.7577 506.223 87.9427 505.364 82.8507 503.647C77.7573 501.93 74.4266 499.37 72.9728 495.957C71.519 492.544 71.9806 488.368 74.2717 483.506C76.5622 478.645 80.6643 473.135 86.4232 467.09C97.9392 455.002 116.032 440.82 139.331 425.455C185.927 394.728 253.3 359.298 330.407 326.456C407.514 293.614 479.742 269.582 534.183 257.275C561.406 251.121 584.167 247.902 600.863 247.974C609.212 248.01 616.027 248.869 621.12 250.585C626.213 252.302 629.544 254.863 630.997 258.276Z" stroke="#FBF950" stroke-width="0.553407"/>
<path opacity="0.139241" d="M628.742 255.151C630.317 258.726 629.983 263.079 627.835 268.128C625.687 273.176 621.738 278.887 616.141 285.146C604.948 297.661 587.21 312.314 564.274 328.166C518.404 359.867 451.79 396.328 375.307 430.033C298.825 463.737 226.967 488.298 172.62 500.761C145.444 506.993 122.659 510.197 105.87 510.013C97.4752 509.921 90.5953 508.982 85.42 507.16C80.2447 505.339 76.8066 502.648 75.2313 499.074C73.656 495.499 73.9899 491.146 76.1379 486.097C78.2859 481.049 82.2347 475.337 87.8316 469.079C99.0243 456.564 116.763 441.911 139.7 426.059C185.57 394.359 252.183 357.897 328.665 324.192C405.148 290.487 477.006 265.928 531.354 253.464C558.53 247.232 581.313 244.028 598.102 244.212C606.497 244.304 613.377 245.243 618.552 247.065C623.728 248.886 627.167 251.576 628.742 255.151Z" stroke="#FBF950" stroke-width="0.553407"/>
<path opacity="0.151899" d="M626.4 251.956C628.102 255.689 627.902 260.216 625.904 265.45C623.905 270.684 620.116 276.596 614.687 283.067C603.832 296.007 586.463 311.132 563.904 327.473C518.79 360.152 452.968 397.661 377.134 432.249C301.299 466.837 229.823 491.949 175.57 504.591C148.441 510.912 125.633 514.113 108.745 513.826C100.301 513.683 93.3529 512.668 88.0901 510.746C82.828 508.824 79.2781 506.006 77.5756 502.274C75.873 498.541 76.0728 494.013 78.0715 488.78C80.0705 483.546 83.859 477.634 89.287 471.163C100.142 458.223 117.511 443.098 140.07 426.757C185.184 394.077 251.006 356.568 326.84 321.98C402.675 287.392 474.151 262.28 528.404 249.638C555.533 243.317 578.341 240.117 595.229 240.404C603.674 240.547 610.622 241.562 615.885 243.484C621.147 245.406 624.697 248.223 626.4 251.956Z" stroke="#FBF950" stroke-width="0.553407"/>
<path opacity="0.164557" d="M623.968 248.691C625.803 252.578 625.744 257.278 623.901 262.694C622.058 268.112 618.436 274.223 613.184 280.905C602.681 294.268 585.696 309.864 563.531 326.696C519.204 360.357 454.205 398.925 379.042 434.416C303.88 469.906 232.799 495.593 178.641 508.435C151.56 514.857 128.725 518.063 111.732 517.683C103.236 517.494 96.2152 516.407 90.8603 514.388C85.5069 512.37 81.8413 509.429 80.0059 505.542C78.1706 501.655 78.2286 496.956 80.0716 491.54C81.915 486.122 85.5371 480.011 90.7891 473.33C101.293 459.967 118.278 444.37 140.443 427.538C184.77 393.877 249.768 355.309 324.931 319.818C400.093 284.327 471.175 258.641 525.333 245.799C552.414 239.377 575.248 236.172 592.241 236.551C600.737 236.741 607.758 237.827 613.112 239.845C618.466 241.864 622.132 244.804 623.968 248.691Z" stroke="#FBF950" stroke-width="0.553407"/>
<path opacity="0.177215" d="M621.448 245.363C623.422 249.4 623.511 254.268 621.83 259.865C620.149 265.463 616.701 271.772 611.632 278.663C601.495 292.445 584.91 308.512 563.154 325.836C519.645 360.481 455.501 400.117 381.035 436.527C306.57 472.938 235.896 499.221 181.835 512.283C154.802 518.815 131.937 522.037 114.834 521.574C106.283 521.342 99.1866 520.189 93.7355 518.078C88.2864 515.967 84.5003 512.907 82.5264 508.871C80.5524 504.833 80.462 499.966 82.1428 494.369C83.8241 488.77 87.2721 482.462 92.3409 475.57C102.478 461.788 119.063 445.721 140.819 428.398C184.328 393.753 248.472 354.116 322.937 317.706C397.403 281.296 468.076 255.013 522.138 241.95C549.171 235.419 572.036 232.197 589.138 232.66C597.69 232.891 604.786 234.044 610.237 236.155C615.687 238.266 619.474 241.326 621.448 245.363Z" stroke="#FBF950" stroke-width="0.553407"/>
<path opacity="0.189873" d="M618.839 241.982C620.957 246.165 621.201 251.198 619.689 256.973C618.177 262.75 614.911 269.253 610.033 276.352C600.276 290.55 584.107 307.085 562.776 324.9C520.116 360.529 456.859 401.24 383.115 438.585C309.371 475.929 239.119 502.828 185.154 516.131C158.17 522.783 135.273 526.031 118.054 525.494C109.445 525.225 102.269 524.01 96.7172 521.81C91.1675 519.611 87.2559 516.436 85.1375 512.253C83.0192 508.07 82.7743 503.037 84.2861 497.263C85.7986 491.485 89.0655 484.982 93.9437 477.883C103.7 463.685 119.869 447.15 141.2 429.335C183.859 393.707 247.116 352.995 320.86 315.65C394.604 278.306 464.856 251.407 518.821 238.104C545.806 231.452 568.704 228.204 585.922 228.741C594.532 229.01 601.706 230.226 607.258 232.425C612.808 234.624 616.72 237.799 618.839 241.982Z" stroke="#FBF950" stroke-width="0.553407"/>
<path opacity="0.202532" d="M616.138 238.555C620.676 247.207 617.754 259.345 608.38 273.975C599.02 288.584 583.282 305.583 562.392 323.889C520.614 360.498 458.276 402.291 385.278 440.583C312.281 478.874 242.463 506.406 188.596 519.968C161.66 526.75 138.729 530.035 121.389 529.432C104.024 528.829 92.3765 524.333 87.8379 515.681C83.2994 507.029 86.2208 494.89 95.5949 480.26C104.956 465.651 120.693 448.652 141.583 430.346C183.361 393.737 245.699 351.944 318.696 313.653C391.693 275.362 461.513 247.829 515.38 234.267C542.315 227.485 565.247 224.201 582.587 224.803C599.952 225.407 611.6 229.903 616.138 238.555Z" stroke="#FBF950" stroke-width="0.553407"/>
<path opacity="0.21519" d="M613.345 235.088C618.195 244.013 615.64 256.505 606.678 271.537C597.728 286.552 582.437 304.013 562.004 322.807C521.14 360.393 459.752 403.268 387.527 442.517C315.302 481.766 245.93 509.948 192.162 523.788C165.276 530.708 142.306 534.039 124.839 533.381C107.35 532.721 95.4782 528.07 90.6282 519.145C85.7782 510.22 88.334 497.728 97.2953 482.695C106.246 467.681 121.536 450.22 141.97 431.426C182.834 393.84 244.221 350.965 316.446 311.716C388.671 272.467 458.043 244.285 511.812 230.445C538.698 223.524 561.668 220.194 579.135 220.852C596.623 221.511 608.495 226.163 613.345 235.088Z" stroke="#FBF950" stroke-width="0.553407"/>
<path opacity="0.227848" d="M610.463 231.592C615.637 240.781 613.46 253.619 604.926 269.049C596.401 284.462 581.574 302.38 561.613 321.659C521.695 360.215 461.29 404.174 389.861 444.388C318.433 484.603 249.521 513.451 195.853 527.585C169.017 534.652 146.008 538.037 128.408 537.332C110.79 536.627 98.6841 531.829 93.5108 522.64C88.3377 513.452 90.5144 500.613 99.0484 485.184C107.574 469.771 122.401 451.853 142.361 432.574C182.28 394.018 242.684 350.06 314.112 309.845C385.541 269.63 454.453 240.782 508.121 226.648C534.957 219.581 557.966 216.196 575.567 216.901C593.184 217.606 605.29 222.403 610.463 231.592Z" stroke="#FBF950" stroke-width="0.553407"/>
<path opacity="0.240506" d="M607.493 228.076C613.002 237.519 611.219 250.695 603.127 266.514C595.041 282.32 580.692 300.688 561.22 320.448C522.278 359.966 462.889 405.005 392.282 446.192C321.676 487.378 253.238 516.904 199.671 531.349C172.885 538.572 149.834 542.021 132.095 541.279C114.341 540.537 101.995 535.602 96.4866 526.16C90.9783 516.717 92.7606 503.541 100.853 487.721C108.939 471.916 123.287 453.547 142.76 433.787C181.702 394.269 241.09 349.23 311.696 308.043C382.303 266.857 450.742 237.331 504.309 222.885C531.095 215.662 554.146 212.214 571.885 212.956C589.639 213.699 601.985 218.633 607.493 228.076Z" stroke="#FBF950" stroke-width="0.553407"/>
<path opacity="0.253165" d="M604.426 224.539C610.281 234.227 608.907 247.732 601.27 263.934C593.638 280.124 579.783 298.936 560.815 319.173C522.882 359.642 464.54 405.758 394.78 447.92C325.021 490.082 257.069 520.298 203.604 535.069C176.87 542.456 153.773 545.977 135.89 545.207C117.995 544.436 105.4 539.375 99.5448 529.688C93.6902 520.001 95.0645 506.496 102.702 490.294C110.333 474.104 124.188 455.291 143.156 435.055C181.09 394.586 239.431 348.47 309.19 306.307C378.949 264.145 446.902 233.93 500.367 219.159C527.102 211.772 550.199 208.251 568.081 209.021C585.976 209.791 598.571 214.853 604.426 224.539Z" stroke="#FBF950" stroke-width="0.553407"/>
<path opacity="0.265823" d="M601.279 221.005C607.491 230.925 606.539 244.749 599.371 261.325C592.208 277.891 578.864 297.141 560.415 317.847C523.521 359.256 466.257 406.442 397.369 449.582C328.481 492.722 261.029 523.637 207.667 538.749C180.984 546.306 157.839 549.906 139.808 549.118C121.766 548.328 108.913 543.15 102.701 533.229C96.4881 523.309 97.4404 509.485 104.608 492.908C111.771 476.342 125.116 457.093 143.564 436.387C180.459 394.978 237.721 347.792 306.609 304.652C375.498 261.512 442.951 230.597 496.313 215.485C522.995 207.928 546.14 204.327 564.171 205.116C582.213 205.905 595.066 211.084 601.279 221.005Z" stroke="#FBF950" stroke-width="0.553407"/>
<path opacity="0.278481" d="M598.038 217.466C604.62 227.61 604.103 241.743 597.419 258.685C590.738 275.618 577.918 295.297 560.005 316.466C524.18 358.8 468.026 407.046 400.033 451.163C332.041 495.28 265.101 526.903 211.844 542.37C185.213 550.103 162.019 553.793 143.832 552.994C125.638 552.195 112.52 546.909 105.938 536.765C99.3568 526.622 99.8739 512.488 106.558 495.547C113.239 478.613 126.059 458.936 143.973 437.767C179.797 395.433 235.95 347.186 303.943 303.069C371.935 258.952 438.876 227.33 492.133 211.863C518.764 204.129 541.958 200.439 560.144 201.238C578.339 202.036 591.456 207.323 598.038 217.466Z" stroke="#FBF950" stroke-width="0.553407"/>
<path opacity="0.291139" d="M594.713 213.938C601.675 224.294 601.606 238.725 595.419 256.022C589.235 273.313 576.954 293.41 559.591 315.033C524.866 358.276 469.852 407.573 402.779 452.665C335.706 497.756 269.29 530.093 216.138 545.927C189.561 553.844 166.314 557.631 147.968 556.831C129.615 556.032 116.225 550.648 109.263 540.293C102.302 529.937 102.37 515.505 108.557 498.208C114.742 480.917 127.023 460.819 144.386 439.196C179.112 395.953 234.125 346.656 301.198 301.564C368.272 256.473 434.687 224.137 487.839 208.303C514.416 200.386 537.662 196.599 556.008 197.399C574.361 198.198 587.752 203.582 594.713 213.938Z" stroke="#FBF950" stroke-width="0.553407"/>
<path opacity="0.303797" d="M591.302 210.428C598.655 220.984 599.048 235.703 593.371 253.346C587.696 270.983 575.969 291.49 559.17 313.558C525.573 357.693 471.73 408.026 405.599 454.088C339.468 500.149 273.589 533.205 220.544 549.418C194.02 557.524 170.72 561.415 152.209 560.624C133.693 559.832 120.023 554.36 112.67 543.804C105.318 533.248 104.924 518.529 110.601 500.887C116.276 483.25 128.003 462.743 144.802 440.674C178.398 396.539 232.243 346.206 298.374 300.144C364.505 254.083 430.383 221.027 483.428 204.815C509.952 196.708 533.252 192.818 551.763 193.609C570.279 194.401 583.95 199.872 591.302 210.428Z" stroke="#FBF950" stroke-width="0.553407"/>
<path opacity="0.316456" d="M587.813 206.938C595.567 217.683 596.433 232.678 591.28 250.655C586.127 268.627 574.968 289.533 558.747 312.037C526.308 357.044 473.662 408.398 408.496 455.423C343.33 502.447 278 536.225 225.063 552.827C198.593 561.129 175.237 565.131 156.556 564.356C137.871 563.582 123.914 558.033 116.161 547.288C108.407 536.544 107.539 521.548 112.693 503.572C117.846 485.599 129.005 464.694 145.225 442.189C177.665 397.182 230.311 345.828 295.477 298.803C360.643 251.779 425.973 218.001 478.909 201.399C505.379 193.097 528.736 189.096 547.417 189.87C566.102 190.645 580.06 196.193 587.813 206.938Z" stroke="#FBF950" stroke-width="0.553407"/>
<path opacity="0.329114" d="M584.247 203.483C592.412 214.405 593.765 229.664 589.147 247.963C584.53 266.26 573.951 287.551 558.323 310.481C527.067 356.338 475.647 408.696 411.467 456.676C347.287 504.655 282.518 539.157 229.691 556.158C203.275 564.659 179.861 568.78 161.005 568.031C142.147 567.282 127.895 561.666 119.73 550.744C111.565 539.822 110.212 524.563 114.83 506.264C119.447 487.967 130.026 466.676 145.654 443.746C176.91 397.889 228.33 345.53 292.51 297.551C356.69 249.572 421.459 215.07 474.286 198.069C500.702 189.568 524.116 185.447 542.972 186.196C561.83 186.945 576.082 192.562 584.247 203.483Z" stroke="#FBF950" stroke-width="0.553407"/>
<path opacity="0.341772" d="M580.602 200.066C589.187 211.152 591.038 226.663 586.968 245.273C582.897 263.88 572.913 285.547 557.89 308.891C527.844 355.576 477.676 408.918 414.504 457.841C351.331 506.764 287.133 541.99 234.415 559.4C208.055 568.105 184.58 572.35 165.546 571.636C146.51 570.921 131.956 565.247 123.371 554.161C114.786 543.075 112.934 527.565 117.005 508.956C121.075 490.348 131.059 468.682 146.082 445.338C176.128 398.652 226.296 345.31 289.469 296.387C352.642 247.464 416.839 212.238 469.557 194.829C495.917 186.124 519.392 181.878 538.426 182.593C557.462 183.308 572.016 188.98 580.602 200.066Z" stroke="#FBF950" stroke-width="0.553407"/>
<path opacity="0.35443" d="M576.889 196.695C585.904 207.932 588.264 223.681 584.752 242.588C581.241 261.494 571.863 283.522 557.457 307.267C528.646 354.756 479.756 409.06 417.61 458.915C355.464 508.769 291.848 544.718 239.241 562.544C212.937 571.457 189.4 575.834 170.182 575.162C150.964 574.489 136.102 568.77 127.087 557.532C118.071 546.294 115.711 530.546 119.223 511.639C122.735 492.732 132.112 470.704 146.518 446.959C175.329 399.47 224.219 345.165 286.365 295.311C348.511 245.457 412.126 209.508 464.733 191.682C491.038 182.769 514.575 178.392 533.793 179.065C553.012 179.737 567.874 185.457 576.889 196.695Z" stroke="#FBF950" stroke-width="0.553407"/>
<path opacity="0.367089" d="M573.108 193.378C582.562 204.755 585.442 220.728 582.5 239.92C579.558 259.111 570.798 281.487 557.021 305.621C529.469 353.888 481.88 409.132 420.78 459.903C359.68 510.674 296.655 547.343 244.16 565.592C217.911 574.717 194.31 579.231 174.905 578.609C155.499 577.987 140.323 572.232 130.869 560.854C121.416 549.477 118.536 533.505 121.478 514.313C124.42 495.122 133.179 472.746 146.955 448.612C174.508 400.345 222.097 345.101 283.197 294.33C344.298 243.559 407.321 206.89 459.817 188.641C486.065 179.516 509.668 175.002 529.073 175.624C548.479 176.246 563.654 182.001 573.108 193.378Z" stroke="#FBF950" stroke-width="0.553407"/>
<path opacity="0.379747" d="M569.261 190.116C579.161 201.62 582.57 217.803 580.209 237.265C577.847 256.728 569.716 279.438 556.58 303.947C530.309 352.964 484.043 409.123 424.006 460.795C363.969 512.467 301.545 549.851 249.162 568.529C222.97 577.868 199.302 582.526 179.705 581.963C160.108 581.399 144.613 575.618 134.712 564.115C124.811 552.611 121.402 536.427 123.764 516.965C126.126 497.503 134.256 474.792 147.392 450.283C173.663 401.266 219.929 345.107 279.966 293.435C340.003 241.763 402.427 204.378 454.81 185.701C481.002 176.361 504.671 171.704 524.268 172.268C543.864 172.831 559.36 178.612 569.261 190.116Z" stroke="#FBF950" stroke-width="0.553407"/>
<path opacity="0.392405" d="M565.356 186.918C575.711 198.535 579.659 214.916 577.887 234.635C576.115 254.354 568.624 277.384 556.138 302.254C531.169 351.993 486.248 409.04 427.29 461.595C368.332 514.149 306.517 552.244 254.247 571.356C228.111 580.912 204.375 585.718 184.583 585.221C164.791 584.724 148.97 578.927 138.614 567.31C128.259 555.693 124.312 539.312 126.084 519.594C127.856 499.875 135.346 476.845 147.831 451.974C172.801 402.235 217.722 345.188 276.68 292.633C335.638 240.078 397.453 201.984 449.723 182.872C475.859 173.316 499.596 168.511 519.388 169.007C539.18 169.504 555.001 175.301 565.356 186.918Z" stroke="#FBF950" stroke-width="0.553407"/>
<path opacity="0.405063" d="M561.403 183.796C572.22 195.513 576.715 212.077 575.542 232.037C574.369 251.998 567.526 275.333 555.702 300.549C532.052 350.981 488.496 408.888 430.632 462.307C372.767 515.725 311.569 554.522 259.412 574.072C233.332 583.847 209.526 588.806 189.535 588.383C169.545 587.96 153.393 582.158 142.575 570.441C131.758 558.723 127.263 542.159 128.436 522.199C129.61 502.238 136.451 478.903 148.276 453.686C171.925 403.255 215.481 345.347 273.346 291.929C331.21 238.511 392.409 199.713 444.566 180.163C470.646 170.388 494.452 165.43 514.443 165.853C534.434 166.276 550.586 172.078 561.403 183.796Z" stroke="#FBF950" stroke-width="0.553407"/>
<path opacity="0.417722" d="M557.396 180.741C568.682 192.547 573.732 209.279 573.166 229.466C572.6 249.655 566.415 273.278 555.259 298.826C532.948 349.92 490.774 408.658 434.017 462.919C377.259 517.18 316.684 556.671 264.639 576.663C238.616 586.659 214.739 591.775 194.545 591.433C174.353 591.091 157.864 585.294 146.578 573.489C135.293 561.683 130.243 544.952 130.809 524.764C131.375 504.575 137.559 480.952 148.714 455.405C171.025 404.311 213.2 345.572 269.958 291.311C326.715 237.051 387.29 197.559 439.335 177.568C465.358 167.572 489.236 162.456 509.43 162.798C529.622 163.14 546.11 168.936 557.396 180.741Z" stroke="#FBF950" stroke-width="0.553407"/>
<path opacity="0.43038" d="M553.35 177.773C565.111 189.652 570.723 206.538 570.772 226.938C570.82 247.339 565.301 271.235 554.823 297.097C533.866 348.822 493.089 408.361 437.45 463.442C381.812 518.523 321.865 558.699 269.933 579.134C243.966 589.352 220.016 594.63 199.616 594.376C179.218 594.123 162.39 588.34 150.629 576.461C138.868 564.581 133.256 547.695 133.207 527.296C133.159 506.894 138.677 482.998 149.156 457.135C170.112 405.411 210.89 345.872 266.528 290.791C322.166 235.71 382.113 195.534 434.045 175.098C460.012 164.881 483.963 159.603 504.363 159.857C524.761 160.111 541.589 165.893 553.35 177.773Z" stroke="#FBF950" stroke-width="0.553407"/>
<path opacity="0.443038" d="M549.26 174.886C561.501 186.828 567.682 203.853 568.352 224.449C569.021 245.047 564.176 269.201 554.381 295.363C534.792 347.685 495.427 407.993 440.917 463.871C386.408 519.749 327.095 560.598 275.274 581.478C249.363 591.918 225.338 597.361 204.729 597.202C184.122 597.044 166.949 591.287 154.708 579.345C142.467 567.404 136.286 550.379 135.616 529.782C134.947 509.184 139.792 485.031 149.587 458.869C169.175 406.546 208.541 346.238 263.05 290.361C317.559 234.483 376.872 193.634 428.693 172.753C454.604 162.313 478.63 156.87 499.239 157.029C519.845 157.188 537.018 162.945 549.26 174.886Z" stroke="#FBF950" stroke-width="0.553407"/>
<path opacity="0.455696" d="M545.145 172.09C570.599 196.071 572.169 240.711 553.951 293.626C535.742 346.515 497.799 407.558 444.428 464.208C391.056 520.858 332.38 562.369 280.669 583.694C228.933 605.031 184.279 606.122 158.824 582.14C133.37 558.159 131.8 513.519 150.018 460.604C168.227 407.715 206.171 346.672 259.542 290.022C312.913 233.373 371.589 191.861 423.3 170.536C475.036 149.2 519.69 148.109 545.145 172.09Z" stroke="#FBF950" stroke-width="0.553407"/>
<path opacity="0.468354" d="M541.003 169.383C567.437 193.437 570.35 238.442 553.524 291.887C536.706 345.308 500.194 407.054 447.967 464.45C395.74 521.846 337.705 564.005 286.103 585.776C234.478 607.556 189.399 608.891 162.964 584.838C136.53 560.784 133.617 515.779 150.443 462.333C167.261 408.912 203.772 347.166 255.999 289.77C308.226 232.374 366.262 190.215 417.864 168.444C469.489 146.664 514.569 145.33 541.003 169.383Z" stroke="#FBF950" stroke-width="0.553407"/>
<path opacity="0.481013" d="M536.847 166.781C564.268 190.882 568.534 236.221 553.108 290.164C537.689 344.084 502.618 406.497 451.54 464.613C400.463 522.728 343.068 565.521 291.574 587.735C240.058 609.958 194.546 611.548 167.124 587.447C139.703 563.346 135.438 518.008 150.863 464.065C166.283 410.145 201.353 347.731 252.431 289.616C303.508 231.5 360.903 188.707 412.398 166.494C463.914 144.271 509.425 142.68 536.847 166.781Z" stroke="#FBF950" stroke-width="0.553407"/>
<path opacity="0.493671" d="M532.676 164.275C561.092 188.399 566.718 234.038 552.698 288.443C538.685 342.828 505.059 405.876 455.134 464.683C405.209 523.49 348.455 566.902 297.066 589.557C245.657 612.22 199.711 614.075 171.295 589.951C142.879 565.828 137.253 520.189 151.272 465.784C165.285 411.399 198.91 348.351 248.835 289.544C298.76 230.736 355.515 187.325 406.904 164.67C458.313 142.007 504.26 140.151 532.676 164.275Z" stroke="#FBF950" stroke-width="0.553407"/>
<path opacity="0.506329" d="M528.502 161.873C557.918 185.996 564.91 231.904 552.302 286.738C539.698 341.554 507.522 405.2 458.751 464.67C409.981 524.14 353.867 568.154 302.579 591.247C251.274 614.347 204.887 616.478 175.471 592.354C146.056 568.231 139.064 522.325 151.672 467.49C164.276 412.674 196.451 349.028 245.222 289.558C293.992 230.088 350.107 186.074 401.395 162.982C452.699 139.882 499.087 137.749 528.502 161.873Z" stroke="#FBF950" stroke-width="0.553407"/>
<path opacity="0.518987" d="M524.326 159.577C554.746 183.677 563.108 229.819 551.913 285.049C540.722 340.263 509.996 404.471 462.379 464.576C414.762 524.68 359.285 569.28 308.097 592.806C256.893 616.339 210.062 618.754 179.641 594.654C149.221 570.554 140.858 524.412 152.053 469.182C163.245 413.969 193.97 349.76 241.587 289.656C289.204 229.551 344.681 184.952 395.87 161.426C447.074 137.892 493.906 135.477 524.326 159.577Z" stroke="#FBF950" stroke-width="0.553407"/>
<path opacity="0.531646" d="M520.163 157.385C551.592 181.44 561.326 227.785 551.545 283.377C541.766 338.954 512.491 403.69 466.025 464.399C419.559 525.108 364.716 570.275 313.622 594.23C262.515 618.191 215.235 620.898 183.807 596.844C152.379 572.789 142.644 526.443 152.426 470.851C162.204 415.275 191.479 350.539 237.945 289.83C284.411 229.121 339.254 183.954 390.348 159.999C441.456 136.038 488.735 133.33 520.163 157.385Z" stroke="#FBF950" stroke-width="0.553407"/>
<path opacity="0.544304" d="M516.018 155.302C548.456 179.29 559.563 225.808 551.194 281.728C542.827 337.635 514.998 402.862 469.679 464.146C424.359 525.43 370.146 571.146 319.143 595.523C268.127 619.907 220.397 622.913 187.958 598.925C155.52 574.937 144.412 528.419 152.781 472.499C161.148 416.592 188.976 351.365 234.295 290.081C279.615 228.797 333.829 183.081 384.832 158.704C435.847 134.32 483.579 131.313 516.018 155.302Z" stroke="#FBF950" stroke-width="0.553407"/>
<path opacity="0.556962" d="M511.89 153.33C545.34 177.231 557.82 223.892 550.86 280.108C543.901 336.312 517.513 401.995 473.334 463.823C429.155 525.652 375.565 571.897 324.647 596.691C273.719 621.49 225.532 624.8 192.082 600.899C158.632 576.998 146.152 530.338 153.112 474.122C160.071 417.918 186.458 352.235 230.637 290.406C274.817 228.578 328.407 182.332 379.324 157.538C430.253 132.739 478.44 129.428 511.89 153.33Z" stroke="#FBF950" stroke-width="0.553407"/>
<path opacity="0.56962" d="M507.792 151.464C542.253 175.26 556.103 222.033 550.546 278.513C544.99 334.982 520.036 401.085 476.989 463.428C433.942 525.77 380.968 572.525 330.131 597.728C279.284 622.935 230.637 626.555 196.176 602.76C161.714 578.964 147.865 532.191 153.422 475.712C158.978 419.243 183.931 353.14 226.978 290.797C270.025 228.455 323 181.699 373.838 156.497C424.684 131.29 473.33 127.669 507.792 151.464Z" stroke="#FBF950" stroke-width="0.553407"/>
<path opacity="0.582278" d="M503.733 149.712C539.206 173.384 554.42 220.241 550.259 276.952C546.099 333.654 522.57 400.144 480.645 462.97C438.719 525.796 386.352 573.04 335.588 598.643C284.816 624.25 235.709 628.184 200.236 604.512C164.763 580.84 149.549 533.984 153.71 477.272C157.87 420.57 181.399 354.08 223.324 291.254C265.249 228.428 317.618 181.184 368.381 155.581C419.153 129.974 468.261 126.04 503.733 149.712Z" stroke="#FBF950" stroke-width="0.553407"/>
<path opacity="0.594937" d="M499.717 148.073C536.2 171.604 552.772 218.518 549.998 275.431C547.225 332.335 525.109 399.176 484.293 462.455C443.478 525.734 391.707 573.447 341.01 599.441C290.307 625.439 240.734 629.688 204.251 606.157C167.769 582.626 151.196 535.712 153.97 478.8C156.743 421.895 178.86 355.054 219.675 291.775C260.49 228.496 312.261 180.783 362.958 154.789C413.661 128.792 463.235 124.542 499.717 148.073Z" stroke="#FBF950" stroke-width="0.553407"/>
<path opacity="0.607595" d="M495.753 146.541C533.242 169.916 551.165 216.86 549.767 273.944C548.37 331.021 527.653 398.18 487.934 461.882C448.215 525.583 397.028 573.743 346.392 600.118C295.749 626.497 245.708 631.064 208.218 607.689C170.729 584.313 152.806 537.369 154.203 480.285C155.6 423.208 176.317 356.049 216.036 292.348C255.755 228.646 306.942 180.486 357.579 154.111C408.222 127.732 458.264 123.165 495.753 146.541Z" stroke="#FBF950" stroke-width="0.553407"/>
<path opacity="0.620253" d="M491.843 145.117C530.336 168.322 549.601 215.273 549.567 272.5C549.534 329.72 530.2 397.164 491.561 461.258C452.923 525.352 402.308 573.937 351.723 600.683C301.132 627.432 250.619 632.316 212.125 609.111C173.633 585.905 154.368 538.955 154.402 481.729C154.436 424.508 173.768 357.064 212.407 292.97C251.046 228.877 301.661 180.291 352.247 153.545C402.837 126.796 453.35 121.912 491.843 145.117Z" stroke="#FBF950" stroke-width="0.553407"/>
<path opacity="0.632911" d="M487.999 143.803C527.491 166.826 548.087 213.758 549.403 271.1C550.718 328.437 532.751 396.134 495.175 460.59C457.599 525.046 407.541 574.035 356.999 601.14C306.452 628.247 255.464 633.448 215.971 610.426C176.479 587.403 155.882 540.47 154.567 483.128C153.252 425.791 171.219 358.095 208.794 293.639C246.371 229.182 296.428 180.193 346.971 153.088C397.518 125.98 448.506 120.78 487.999 143.803Z" stroke="#FBF950" stroke-width="0.553407"/>
<path opacity="0.64557" d="M484.224 142.593C524.712 165.422 546.626 212.315 549.275 269.746C551.924 327.172 535.304 395.091 498.771 459.88C462.239 524.669 412.723 574.039 362.214 601.491C311.701 628.945 260.234 634.461 219.747 611.631C179.26 588.802 157.345 541.909 154.696 484.478C152.047 427.052 168.668 359.133 205.2 294.344C241.733 229.555 291.249 180.185 341.758 152.733C392.271 125.279 443.737 119.763 484.224 142.593Z" stroke="#FBF950" stroke-width="0.553407"/>
<path opacity="0.658228" d="M480.525 141.49C522.001 164.117 545.222 210.95 549.187 268.444C553.152 325.935 537.856 394.045 502.346 459.138C466.836 524.231 417.846 573.959 367.36 601.746C316.871 629.533 264.922 635.36 223.446 612.734C181.969 590.107 158.748 543.272 154.783 485.778C150.819 428.287 166.114 360.177 201.625 295.084C237.135 229.991 286.125 180.263 336.611 152.477C387.1 124.689 439.049 118.863 480.525 141.49Z" stroke="#FBF950" stroke-width="0.553407"/>
<path opacity="0.670886" d="M476.906 140.495C519.366 162.911 543.877 209.667 549.139 267.201C554.4 324.733 540.408 393.005 505.897 458.373C471.387 523.741 422.904 573.805 372.43 601.912C321.954 630.02 269.52 636.153 227.061 613.737C184.601 591.32 160.09 544.565 154.828 487.03C149.566 429.498 163.559 361.225 198.07 295.857C232.58 230.489 281.063 180.426 331.536 152.319C382.013 124.211 434.447 118.078 476.906 140.495Z" stroke="#FBF950" stroke-width="0.553407"/>
<path opacity="0.683544" d="M473.38 139.597C516.816 161.797 542.602 208.457 549.141 266.01C555.679 323.56 542.965 391.968 509.429 457.583C475.894 523.198 427.899 573.575 377.426 601.988C326.951 630.401 274.029 636.833 230.593 614.634C187.157 592.434 161.371 545.774 154.832 488.222C148.294 430.672 161.009 362.263 194.544 296.648C228.08 231.033 276.074 180.657 326.547 152.244C377.022 123.831 429.944 117.397 473.38 139.597Z" stroke="#FBF950" stroke-width="0.553407"/>
<path opacity="0.696203" d="M469.941 138.795C514.346 160.774 541.392 207.325 549.185 264.875C556.979 322.423 545.513 390.938 512.928 456.773C480.342 522.609 432.816 573.276 382.331 601.979C331.845 630.683 278.43 637.408 234.025 615.429C189.62 593.451 162.575 546.901 154.781 489.35C146.988 431.802 158.452 363.285 191.038 297.45C223.624 231.615 271.151 180.949 321.635 152.246C372.121 123.542 425.536 116.816 469.941 138.795Z" stroke="#FBF950" stroke-width="0.553407"/>
<path opacity="0.708861" d="M466.604 138.095C511.97 159.85 540.256 206.278 549.282 263.807C558.308 321.334 548.066 389.933 516.402 455.961C484.739 521.99 437.658 572.924 387.15 601.902C336.64 630.88 282.728 637.889 237.361 616.134C191.995 594.379 163.71 547.952 154.684 490.423C145.658 432.896 155.899 364.296 187.563 298.267C219.227 232.239 266.308 181.306 316.816 152.328C367.326 123.35 421.238 116.339 466.604 138.095Z" stroke="#FBF950" stroke-width="0.553407"/>
<path opacity="0.721519" d="M463.375 137.484C509.694 159.016 539.202 205.31 549.435 262.799C559.669 320.288 550.621 388.947 519.851 455.143C489.081 521.338 442.424 572.516 391.877 601.752C341.33 630.988 286.918 638.272 240.598 616.741C194.278 595.21 164.77 548.916 154.536 491.427C144.303 433.938 153.35 365.278 184.121 299.082C214.891 232.887 261.548 181.71 312.094 152.474C362.642 123.238 417.055 115.953 463.375 137.484Z" stroke="#FBF950" stroke-width="0.553407"/>
<path opacity="0.734177" d="M460.247 136.967C507.512 158.275 538.222 204.426 549.638 261.862C561.054 319.297 553.17 387.993 523.263 454.331C493.356 520.668 447.099 572.066 396.501 601.543C345.902 631.02 290.983 638.567 243.719 617.259C196.454 595.95 165.744 549.8 154.328 492.365C142.912 434.93 150.796 366.233 180.702 299.895C210.609 233.558 256.867 182.161 307.465 152.684C358.064 123.207 412.982 115.659 460.247 136.967Z" stroke="#FBF950" stroke-width="0.553407"/>
<path opacity="0.746835" d="M457.239 136.539C505.44 157.627 537.331 203.628 549.904 260.995C562.477 318.362 555.724 387.075 526.65 453.53C497.575 519.985 451.693 571.579 401.027 601.279C350.362 630.979 294.934 638.776 246.733 617.688C198.532 596.6 166.64 550.6 154.067 493.233C141.494 435.865 148.247 367.152 177.322 300.697C206.396 234.242 252.279 182.648 302.944 152.948C353.61 123.248 409.039 115.45 457.239 136.539Z" stroke="#FBF950" stroke-width="0.553407"/>
<path opacity="0.759494" d="M454.343 136.195C503.471 157.068 536.523 202.914 550.226 260.201C563.928 317.488 558.273 386.198 529.998 452.747C501.723 519.297 456.19 571.064 405.443 600.969C354.695 630.873 298.752 638.905 249.624 618.032C200.496 597.159 167.444 551.315 153.742 494.028C140.039 436.74 145.693 368.029 173.968 301.48C202.243 234.931 247.777 183.164 298.524 153.26C349.272 123.356 405.215 115.322 454.343 136.195Z" stroke="#FBF950" stroke-width="0.553407"/>
<path opacity="0.772152" d="M451.571 135.932C501.617 156.597 535.808 202.285 550.612 259.481C565.415 316.678 560.825 385.368 533.316 451.988C505.808 518.608 460.597 570.526 409.751 600.615C358.906 630.704 302.442 638.957 252.396 618.292C202.35 597.627 168.16 551.941 153.356 494.744C138.552 437.548 143.143 368.857 170.651 302.237C198.16 235.617 243.371 183.7 294.216 153.611C345.061 123.522 401.525 115.268 451.571 135.932Z" stroke="#FBF950" stroke-width="0.553407"/>
<path opacity="0.78481" d="M448.926 135.752C499.88 156.217 535.187 201.744 551.063 258.841C566.94 315.939 563.379 384.593 536.602 451.262C509.824 517.932 464.908 569.976 413.948 600.229C362.989 630.483 305.999 638.94 255.045 618.475C204.091 598.01 168.784 552.482 152.908 495.385C137.031 438.288 140.592 369.634 167.369 302.964C194.147 236.295 239.063 184.251 290.023 153.997C340.982 123.744 397.972 115.286 448.926 135.752Z" stroke="#FBF950" stroke-width="0.553407"/>
<path opacity="0.797468" d="M446.406 135.648C550.104 176.197 592.022 317.154 539.85 450.576C487.677 583.998 361.261 659.131 257.563 618.581C153.865 578.032 111.947 437.075 164.12 303.653C216.292 170.231 342.708 95.0983 446.406 135.648Z" stroke="#FBF950" stroke-width="0.553407"/>
<path opacity="0.810127" d="M444.019 135.616C549.496 175.813 593.914 316.498 543.063 449.934C492.211 583.369 365.427 658.81 259.95 618.613C154.473 578.416 110.054 437.73 160.906 304.295C211.758 170.859 338.542 95.4189 444.019 135.616Z" stroke="#FBF950" stroke-width="0.553407"/>
<path opacity="0.822785" d="M441.768 135.655C549.004 175.528 595.849 315.935 546.244 449.345C496.638 582.755 369.44 658.448 262.205 618.575C154.97 578.701 108.124 438.294 157.73 304.885C207.335 171.475 334.533 95.782 441.768 135.655Z" stroke="#FBF950" stroke-width="0.553407"/>
<path opacity="0.835443" d="M439.65 135.762C548.624 175.344 597.818 315.469 549.383 448.815C500.949 582.162 373.293 658.05 264.319 618.468C155.344 578.886 106.149 438.761 154.584 305.414C203.019 172.068 330.675 96.1796 439.65 135.762Z" stroke="#FBF950" stroke-width="0.553407"/>
<path opacity="0.848101" d="M437.673 135.932C548.367 175.259 599.833 315.102 552.492 448.35C505.151 581.598 376.991 657.623 266.297 618.295C155.603 578.967 104.138 439.124 151.479 305.876C198.82 172.629 326.98 96.6041 437.673 135.932Z" stroke="#FBF950" stroke-width="0.553407"/>
<path opacity="0.860759" d="M435.836 136.166C548.229 175.28 601.886 314.846 555.561 447.96C509.236 581.074 380.526 657.174 268.133 618.06C155.741 578.947 102.083 439.381 148.407 306.267C194.732 173.153 323.444 97.0526 435.836 136.166Z" stroke="#FBF950" stroke-width="0.553407"/>
<path opacity="0.873418" d="M434.141 136.461C548.212 175.404 603.981 314.702 558.594 447.65C513.206 580.598 383.898 656.71 269.826 617.767C155.754 578.823 99.9846 439.526 145.372 306.578C190.76 173.631 320.069 97.5174 434.141 136.461Z" stroke="#FBF950" stroke-width="0.553407"/>
<path opacity="0.886076" d="M432.591 136.814C548.322 175.635 606.121 314.677 561.592 447.426C517.062 580.176 387.108 656.237 271.378 617.416C155.647 578.595 97.8461 439.554 142.376 306.804C186.905 174.054 316.861 97.9927 432.591 136.814Z" stroke="#FBF950" stroke-width="0.553407"/>
<path opacity="0.898734" d="M431.185 137.22C548.555 175.969 608.304 314.773 564.553 447.294C520.801 579.815 390.153 655.758 272.784 617.009C155.415 578.259 95.6646 439.456 139.416 306.935C183.168 174.415 313.816 98.4704 431.185 137.22Z" stroke="#FBF950" stroke-width="0.553407"/>
<path opacity="0.911392" d="M429.925 137.679C548.912 176.412 610.53 314.998 567.476 447.26C524.422 579.523 393.031 655.28 274.044 616.547C155.057 577.815 93.4398 439.23 136.494 306.967C179.547 174.705 310.938 98.947 429.925 137.679Z" stroke="#FBF950" stroke-width="0.553407"/>
<path opacity="0.924051" d="M428.81 138.191C549.394 176.965 612.796 315.357 570.36 447.333C527.923 579.308 395.743 654.81 275.159 616.036C154.576 577.263 91.172 438.871 133.609 306.896C176.046 174.92 308.227 99.4178 428.81 138.191Z" stroke="#FBF950" stroke-width="0.553407"/>
<path opacity="0.936709" d="M427.843 138.753C550.002 177.629 615.109 315.855 573.208 447.517C531.308 579.178 398.289 654.351 276.13 615.475C153.971 576.599 88.8642 438.374 130.764 306.712C172.665 175.051 305.684 99.8772 427.843 138.753Z" stroke="#FBF950" stroke-width="0.553407"/>
<path opacity="0.949367" d="M427.018 139.362C550.731 178.406 617.458 316.495 576.014 447.816C534.569 579.137 400.665 653.907 276.952 614.864C153.238 575.821 86.5105 437.732 127.955 306.411C169.399 175.09 303.304 100.319 427.018 139.362Z" stroke="#FBF950" stroke-width="0.553407"/>
<path opacity="0.962025" d="M426.34 140.018C551.586 179.297 619.851 317.284 578.782 448.239C537.713 579.193 402.875 653.485 277.63 614.206C152.385 574.928 84.1194 436.941 125.188 305.987C166.257 175.032 301.095 100.74 426.34 140.018Z" stroke="#FBF950" stroke-width="0.553407"/>
<path opacity="0.974684" d="M425.809 140.722C552.564 180.306 622.284 318.229 581.511 448.791C540.738 579.353 404.92 653.088 278.165 613.504C151.41 573.92 81.6901 435.998 122.463 305.436C163.236 174.874 299.054 101.138 425.809 140.722Z" stroke="#FBF950" stroke-width="0.553407"/>
<path opacity="0.987342" d="M425.415 141.47C553.657 181.433 624.748 319.33 584.191 449.476C543.634 579.621 406.792 652.72 278.55 612.756C150.309 572.793 79.217 434.897 119.773 304.751C160.33 174.606 297.173 101.507 425.415 141.47Z" stroke="#FBF950" stroke-width="0.553407"/>
<circle cx="351.985" cy="377.113" r="245.989" transform="rotate(17.3084 351.985 377.113)" stroke="#FBF950" stroke-width="0.553407"/>
<g filter="url(#filter0_f_179_64)">
<path opacity="0.0126582" d="M770.656 264.423C771.239 264.953 771.412 265.692 771.122 266.661C770.832 267.627 770.087 268.794 768.898 270.154C766.521 272.874 762.39 276.331 756.667 280.435C745.221 288.639 727.435 299.407 704.654 311.994C659.094 337.166 593.575 369.601 518.895 403.332C444.216 437.063 374.52 465.702 322.209 484.736C296.053 494.254 274.248 501.368 258.342 505.518C250.387 507.593 243.917 508.923 239.121 509.444C236.723 509.705 234.757 509.761 233.24 509.611C231.719 509.461 230.69 509.109 230.107 508.579C229.524 508.049 229.353 507.31 229.643 506.342C229.933 505.376 230.676 504.207 231.865 502.847C234.243 500.128 238.374 496.671 244.097 492.568C255.543 484.363 273.329 473.595 296.11 461.009C341.67 435.837 407.189 403.401 481.869 369.67C556.548 335.939 626.244 307.301 678.555 288.266C704.711 278.749 726.516 271.634 742.422 267.485C750.377 265.41 756.846 264.079 761.642 263.558C764.041 263.297 766.008 263.241 767.525 263.391C769.045 263.541 770.073 263.894 770.656 264.423Z" stroke="#FBF950" stroke-width="0.385305"/>
<path opacity="0.0253165" d="M768.392 263.36C769.047 263.945 769.282 264.739 769.063 265.757C768.844 266.774 768.174 267.993 767.063 269.407C764.841 272.232 760.877 275.8 755.326 280.016C744.226 288.445 726.814 299.446 704.413 312.258C659.613 337.882 594.876 370.744 520.822 404.769C446.769 438.794 377.424 467.538 325.175 486.505C299.049 495.989 277.203 503.026 261.182 507.057C253.17 509.073 246.625 510.335 241.735 510.776C239.29 510.997 237.272 511.012 235.699 510.819C234.125 510.625 233.026 510.227 232.372 509.643C231.717 509.058 231.482 508.263 231.701 507.245C231.919 506.228 232.589 505.008 233.7 503.595C235.922 500.77 239.887 497.202 245.438 492.986C256.537 484.556 273.949 473.556 296.35 460.744C341.15 435.12 405.887 402.258 479.941 368.233C553.994 334.208 623.339 305.464 675.588 286.497C701.714 277.013 723.56 269.976 739.581 265.945C747.593 263.928 754.139 262.667 759.028 262.226C761.473 262.005 763.491 261.99 765.064 262.183C766.639 262.377 767.738 262.775 768.392 263.36Z" stroke="#FBF950" stroke-width="0.385305"/>
<path opacity="0.0379747" d="M766.016 262.221C766.744 262.86 767.045 263.708 766.9 264.775C766.754 265.843 766.162 267.115 765.131 268.581C763.07 271.512 759.276 275.19 753.904 279.518C743.162 288.173 726.138 299.408 704.132 312.451C660.12 338.536 596.2 371.84 522.803 406.179C449.406 440.519 380.434 469.39 328.257 488.307C302.167 497.767 280.283 504.735 264.146 508.656C256.077 510.616 249.455 511.811 244.471 512.177C241.978 512.359 239.906 512.333 238.275 512.097C236.644 511.861 235.476 511.418 234.748 510.78C234.021 510.142 233.719 509.293 233.864 508.226C234.01 507.158 234.603 505.887 235.634 504.421C237.695 501.489 241.488 497.812 246.86 493.484C257.602 484.829 274.625 473.593 296.631 460.55C340.643 434.465 404.563 401.161 477.96 366.822C551.357 332.482 620.329 303.612 672.506 284.694C698.596 275.235 720.481 268.267 736.617 264.346C744.687 262.386 751.309 261.19 756.294 260.825C758.787 260.642 760.858 260.668 762.489 260.904C764.12 261.14 765.289 261.583 766.016 262.221Z" stroke="#FBF950" stroke-width="0.385305"/>
<path opacity="0.0506329" d="M763.525 261.013C764.327 261.703 764.698 262.604 764.628 263.721C764.557 264.839 764.044 266.162 763.096 267.68C761.2 270.716 757.584 274.503 752.397 278.944C742.026 287.825 725.404 299.297 703.808 312.574C660.616 339.128 597.547 372.888 524.838 407.562C452.129 442.235 383.552 471.254 331.457 490.141C305.408 499.585 283.487 506.493 267.234 510.309C259.105 512.217 252.406 513.349 247.324 513.641C244.782 513.787 242.658 513.722 240.966 513.444C239.276 513.167 238.037 512.68 237.235 511.99C236.433 511.3 236.061 510.398 236.131 509.281C236.202 508.163 236.715 506.84 237.663 505.322C239.559 502.286 243.175 498.5 248.362 494.059C258.733 485.178 275.354 473.705 296.951 460.428C340.142 433.875 403.212 400.114 475.921 365.44C548.63 330.767 617.206 301.748 669.301 282.862C695.35 273.418 717.272 266.51 733.525 262.694C741.654 260.786 748.353 259.653 753.435 259.361C755.977 259.215 758.102 259.28 759.793 259.558C761.483 259.835 762.723 260.322 763.525 261.013Z" stroke="#FBF950" stroke-width="0.385305"/>
<path opacity="0.0632911" d="M760.926 259.737C762.683 261.22 762.701 263.555 760.969 266.707C759.243 269.847 755.81 273.743 750.814 278.297C740.826 287.402 724.622 299.113 703.451 312.627C661.111 339.655 598.927 373.886 526.936 408.912C454.946 443.938 386.786 473.124 334.783 491.997C308.78 501.434 286.824 508.29 270.453 512.009C262.265 513.869 255.487 514.942 250.304 515.163C245.101 515.385 241.596 514.746 239.839 513.264C238.082 511.781 238.063 509.445 239.795 506.293C241.52 503.154 244.953 499.257 249.948 494.704C259.937 485.598 276.141 473.887 297.312 460.372C339.653 433.344 401.836 399.114 473.826 364.088C545.817 329.062 613.978 299.876 665.981 281.003C691.983 271.566 713.939 264.71 730.31 260.991C738.497 259.131 745.276 258.059 750.459 257.838C755.663 257.615 759.169 258.254 760.926 259.737Z" stroke="#FBF950" stroke-width="0.385305"/>
<path opacity="0.0759494" d="M758.21 258.399C760.12 259.978 760.293 262.416 758.739 265.667C757.19 268.91 753.945 272.913 749.148 277.579C739.555 286.91 723.783 298.859 703.053 312.614C661.595 340.122 600.333 374.834 529.093 410.23C457.853 445.625 390.13 474.998 338.228 493.875C312.277 503.314 290.288 510.125 273.797 513.754C265.55 515.569 258.691 516.586 253.405 516.74C248.104 516.894 244.463 516.18 242.552 514.6C240.641 513.021 240.469 510.584 242.023 507.333C243.572 504.091 246.816 500.086 251.614 495.42C261.206 486.09 276.978 474.14 297.708 460.386C339.166 432.878 400.429 398.165 471.669 362.77C542.909 327.375 610.632 298.001 662.533 279.125C688.485 269.686 710.473 262.874 726.964 259.245C735.211 257.43 742.071 256.414 747.357 256.26C752.658 256.106 756.299 256.82 758.21 258.399Z" stroke="#FBF950" stroke-width="0.385305"/>
<path opacity="0.0886076" d="M755.383 257.006C757.451 258.678 757.784 261.216 756.413 264.565C755.046 267.909 751.996 272.02 747.404 276.797C738.22 286.351 722.895 298.54 702.622 312.536C662.079 340.528 601.772 375.732 531.314 411.512C460.856 447.292 393.593 476.871 341.802 495.768C315.906 505.217 293.885 511.993 277.273 515.539C268.965 517.312 262.023 518.275 256.631 518.365C251.229 518.454 247.45 517.667 245.382 515.994C243.313 514.322 242.98 511.785 244.351 508.435C245.719 505.092 248.768 500.981 253.36 496.203C262.544 486.65 277.869 474.46 298.142 460.464C338.685 432.472 398.991 397.268 469.449 361.488C539.907 325.708 607.171 296.129 658.962 277.232C684.858 267.783 706.879 261.008 723.491 257.461C731.799 255.688 738.741 254.725 744.133 254.635C749.536 254.546 753.314 255.333 755.383 257.006Z" stroke="#FBF950" stroke-width="0.385305"/>
<path opacity="0.101266" d="M752.44 255.561C754.67 257.324 755.17 259.959 753.987 263.406C752.806 266.848 749.959 271.065 745.578 275.953C736.817 285.727 721.954 298.156 702.155 312.396C662.558 340.874 603.244 376.579 533.598 412.759C463.953 448.938 397.17 478.739 345.499 497.673C319.662 507.141 297.611 513.888 280.875 517.358C272.506 519.094 265.48 520.007 259.98 520.035C254.472 520.064 250.553 519.205 248.322 517.442C246.092 515.679 245.592 513.044 246.774 509.597C247.955 506.155 250.803 501.938 255.184 497.05C263.944 487.276 278.807 474.847 298.607 460.607C338.203 432.129 397.517 396.424 467.162 360.245C536.808 324.065 603.592 294.264 655.263 275.33C681.1 265.862 703.15 259.115 719.886 255.644C728.255 253.909 735.282 252.996 740.782 252.968C746.29 252.939 750.209 253.798 752.44 255.561Z" stroke="#FBF950" stroke-width="0.385305"/>
<path opacity="0.113924" d="M749.384 254.067C751.781 255.917 752.455 258.647 751.466 262.19C750.478 265.73 747.837 270.05 743.674 275.048C735.349 285.041 720.964 297.707 701.655 312.191C663.037 341.157 604.751 377.37 535.95 413.963C467.149 450.555 400.867 480.595 349.324 499.581C323.552 509.075 301.472 515.802 284.611 519.205C276.18 520.906 269.066 521.773 263.455 521.743C257.838 521.713 253.775 520.786 251.379 518.936C248.982 517.085 248.308 514.355 249.297 510.812C250.285 507.273 252.924 502.952 257.087 497.955C265.412 487.961 279.798 475.294 299.107 460.811C337.725 431.845 396.01 395.632 464.811 359.039C533.612 322.447 599.895 292.407 651.438 273.42C677.21 263.927 699.289 257.2 716.15 253.798C724.582 252.096 731.696 251.229 737.308 251.259C742.924 251.289 746.988 252.216 749.384 254.067Z" stroke="#FBF950" stroke-width="0.385305"/>
<path opacity="0.126582" d="M746.213 252.531C748.781 254.466 749.635 257.288 748.845 260.926C748.056 264.561 745.629 268.984 741.691 274.089C733.816 284.298 719.924 297.201 701.12 311.929C663.515 341.383 606.293 378.109 538.368 415.126C470.443 452.143 404.683 482.437 353.277 501.491C327.572 511.019 305.465 517.734 288.476 521.075C279.98 522.746 272.778 523.57 267.052 523.485C261.323 523.401 257.113 522.407 254.545 520.473C251.978 518.538 251.125 515.716 251.914 512.079C252.704 508.444 255.129 504.021 259.067 498.916C266.942 488.707 280.835 475.803 299.639 461.075C337.244 431.622 394.466 394.895 462.391 357.878C530.316 320.861 596.076 290.567 647.482 271.513C673.187 261.985 695.293 255.271 712.282 251.93C720.778 250.259 727.981 249.435 733.707 249.519C739.436 249.604 743.646 250.597 746.213 252.531Z" stroke="#FBF950" stroke-width="0.385305"/>
<path opacity="0.139241" d="M742.935 250.957C745.677 252.972 746.718 255.883 746.133 259.613C745.548 263.341 743.341 267.865 739.635 273.076C732.224 283.497 718.841 296.636 700.56 311.607C663.999 341.547 607.876 378.792 540.858 416.243C473.84 453.695 408.623 484.257 357.361 503.395C331.729 512.964 309.594 519.673 292.475 522.96C283.914 524.604 276.62 525.389 270.777 525.253C264.932 525.117 260.573 524.061 257.83 522.045C255.087 520.03 254.047 517.119 254.632 513.39C255.217 509.661 257.423 505.138 261.129 499.927C268.54 489.506 281.924 476.367 300.206 461.396C336.766 431.456 392.888 394.211 459.906 356.759C526.924 319.308 592.143 288.745 643.404 269.608C669.037 260.039 691.17 253.33 708.289 250.043C716.85 248.399 724.144 247.613 729.988 247.749C735.833 247.885 740.192 248.942 742.935 250.957Z" stroke="#FBF950" stroke-width="0.385305"/>
<path opacity="0.151899" d="M739.54 249.351C742.462 251.443 743.694 254.441 743.32 258.26C742.945 262.079 740.965 266.701 737.498 272.016C730.564 282.645 717.706 296.016 699.963 311.229C664.481 341.653 609.494 379.419 543.414 417.314C477.333 455.209 412.678 486.053 361.569 505.287C336.013 514.905 313.853 521.616 296.6 524.856C287.973 526.477 280.586 527.227 274.622 527.043C268.658 526.859 264.144 525.743 261.222 523.651C258.299 521.558 257.067 518.56 257.441 514.741C257.816 510.922 259.796 506.301 263.263 500.986C270.197 490.356 283.055 476.985 300.798 461.772C336.281 431.349 391.268 393.582 457.349 355.687C523.429 317.792 588.083 286.949 639.192 267.714C664.748 258.097 686.908 251.386 704.161 248.145C712.788 246.525 720.175 245.775 726.139 245.958C732.104 246.142 736.617 247.258 739.54 249.351Z" stroke="#FBF950" stroke-width="0.385305"/>
<path opacity="0.164557" d="M736.035 247.718C739.142 249.884 740.572 252.965 740.414 256.871C740.256 260.777 738.509 265.495 735.287 270.911C728.845 281.745 716.526 295.344 699.339 310.797C664.966 341.7 611.15 379.989 546.038 418.335C480.926 456.681 416.855 487.819 365.906 507.164C340.429 516.837 318.244 523.558 300.855 526.759C292.161 528.36 284.679 529.078 278.591 528.85C272.504 528.622 267.834 527.449 264.727 525.283C261.62 523.117 260.19 520.036 260.348 516.13C260.506 512.223 262.252 507.506 265.473 502.089C271.915 491.256 284.235 477.656 301.422 462.203C335.795 431.3 389.61 393.011 454.722 354.665C519.835 316.319 583.906 285.181 634.856 265.836C660.332 256.163 682.517 249.442 699.905 246.241C708.6 244.641 716.083 243.922 722.171 244.151C728.258 244.379 732.929 245.552 736.035 247.718Z" stroke="#FBF950" stroke-width="0.385305"/>
<path opacity="0.177215" d="M732.419 246.064C735.715 248.3 737.35 251.46 737.414 255.451C737.479 259.443 735.971 264.253 733.002 269.769C727.066 280.801 715.302 294.626 698.686 310.316C665.456 341.694 612.846 380.504 548.733 419.308C484.62 458.111 421.152 489.554 370.37 509.024C344.978 518.759 322.767 525.496 305.24 528.665C296.477 530.249 288.897 530.939 282.681 530.67C276.467 530.402 271.637 529.175 268.341 526.939C265.046 524.704 263.412 521.543 263.347 517.553C263.283 513.561 264.79 508.751 267.759 503.235C273.696 492.203 285.459 478.378 302.075 462.688C335.305 431.31 387.915 392.5 452.028 353.696C516.141 314.893 579.609 283.449 630.391 263.98C655.784 254.245 677.994 247.508 695.521 244.339C704.284 242.754 711.865 242.064 718.08 242.333C724.293 242.602 729.124 243.828 732.419 246.064Z" stroke="#FBF950" stroke-width="0.385305"/>
<path opacity="0.189873" d="M728.697 244.391C732.185 246.693 734.029 249.929 734.322 254.001C734.615 258.075 733.354 262.975 730.645 268.588C725.226 279.813 714.034 293.859 698.005 309.782C665.949 341.627 614.581 380.958 551.496 420.223C488.412 459.488 425.566 491.248 374.959 510.854C349.654 520.657 327.419 527.418 309.751 530.562C300.917 532.134 293.236 532.799 286.891 532.493C280.547 532.187 275.554 530.911 272.065 528.61C268.576 526.308 266.731 523.072 266.438 519C266.145 514.927 267.407 510.026 270.116 504.413C275.534 493.188 286.727 479.143 302.756 463.22C334.812 431.374 386.18 392.043 449.264 352.778C512.349 313.513 575.195 281.754 625.802 262.148C651.107 252.344 673.342 245.583 691.01 242.439C699.843 240.867 707.524 240.202 713.869 240.508C720.213 240.814 725.208 242.09 728.697 244.391Z" stroke="#FBF950" stroke-width="0.385305"/>
<path opacity="0.202532" d="M724.867 242.707C732.243 247.435 733.108 255.949 728.217 267.375C723.33 278.787 712.723 293.047 697.298 309.201C666.448 341.506 616.355 381.354 554.329 421.084C492.303 460.814 430.098 492.897 379.672 512.652C354.458 522.53 332.2 529.321 314.388 532.448C296.557 535.577 283.27 535.019 275.894 530.291C268.519 525.563 267.655 517.049 272.546 505.624C277.432 494.211 288.039 479.951 303.465 463.798C334.314 431.493 384.407 391.645 446.433 351.915C508.459 312.185 570.664 280.101 621.09 260.346C646.305 250.468 668.563 243.677 686.374 240.551C704.205 237.421 717.492 237.979 724.867 242.707Z" stroke="#FBF950" stroke-width="0.385305"/>
<path opacity="0.21519" d="M720.934 241.02C728.712 245.862 730.062 254.533 725.717 266.136C721.377 277.729 711.369 292.199 696.562 308.578C666.95 341.333 618.165 381.692 557.227 421.889C496.288 462.085 434.743 494.501 384.505 514.417C359.385 524.375 337.103 531.203 319.145 534.319C301.171 537.438 287.608 536.824 279.828 531.982C272.049 527.139 270.699 518.469 275.044 506.865C279.385 495.272 289.391 480.802 304.198 464.424C333.811 431.669 382.595 391.309 443.534 351.113C504.473 310.916 566.017 278.5 616.255 258.585C641.375 248.627 663.658 241.798 681.616 238.682C699.59 235.563 713.154 236.177 720.934 241.02Z" stroke="#FBF950" stroke-width="0.385305"/>
<path opacity="0.227848" d="M716.898 239.329C725.09 244.278 726.936 253.097 723.151 264.872C719.368 276.639 709.976 291.312 695.803 307.91C667.458 341.105 620.015 381.97 560.192 422.634C500.368 463.298 439.501 496.053 389.459 516.14C364.436 526.184 342.131 533.056 324.024 536.169C305.903 539.284 292.056 538.622 283.864 533.673C275.672 528.724 273.827 519.906 277.612 508.131C281.394 496.364 290.785 481.691 304.958 465.092C333.303 431.898 380.746 391.032 440.57 350.369C500.393 309.705 561.26 276.95 611.303 256.863C636.325 246.819 658.631 239.947 676.739 236.834C694.859 233.72 708.706 234.381 716.898 239.329Z" stroke="#FBF950" stroke-width="0.385305"/>
<path opacity="0.240506" d="M712.763 237.642C721.377 242.688 723.73 251.647 720.517 263.586C717.306 275.519 708.543 290.389 695.018 307.201C667.97 340.824 621.902 382.186 563.221 423.315C504.54 464.445 444.369 497.545 394.527 517.814C369.605 527.949 347.277 534.871 329.017 537.987C310.747 541.105 296.613 540.404 287.999 535.358C279.386 530.311 277.032 521.353 280.245 509.413C283.456 497.48 292.218 482.611 305.743 465.799C332.791 432.176 378.86 390.813 437.541 349.684C496.221 308.555 556.392 275.454 606.234 255.186C631.156 245.051 653.484 238.128 671.744 235.012C690.015 231.894 704.149 232.595 712.763 237.642Z" stroke="#FBF950" stroke-width="0.385305"/>
<path opacity="0.253165" d="M708.531 235.966C717.575 241.101 720.448 250.191 717.819 262.287C715.191 274.378 707.072 289.436 694.21 306.456C668.488 340.493 623.823 382.344 566.311 423.936C508.8 465.529 449.341 498.98 399.707 519.44C374.888 529.671 352.537 536.649 334.122 539.776C315.699 542.905 301.271 542.171 292.227 537.036C283.184 531.901 280.31 522.811 282.94 510.715C285.568 498.624 293.688 483.566 306.55 466.546C332.272 432.509 376.936 390.657 434.448 349.065C491.96 307.472 551.419 274.022 601.053 253.562C625.871 243.331 648.221 236.353 666.636 233.226C685.059 230.097 699.487 230.83 708.531 235.966Z" stroke="#FBF950" stroke-width="0.385305"/>
<path opacity="0.265823" d="M704.21 234.301C713.692 239.516 717.096 248.729 715.062 260.973C713.029 273.214 705.566 288.453 693.381 305.673C669.012 340.11 625.782 382.439 569.465 424.491C513.147 466.543 454.418 500.348 404.997 521.009C380.285 531.34 357.913 538.38 339.34 541.525C320.762 544.672 306.035 543.914 296.552 538.699C287.07 533.484 283.666 524.272 285.699 512.027C287.732 499.786 295.196 484.547 307.381 467.328C331.75 432.89 374.98 390.561 431.297 348.509C487.614 306.457 546.344 272.652 595.765 251.991C620.477 241.66 642.849 234.62 661.422 231.475C680 228.329 694.727 229.087 704.21 234.301Z" stroke="#FBF950" stroke-width="0.385305"/>
<path opacity="0.278481" d="M699.799 232.657C709.728 237.942 713.673 247.267 712.246 259.652C710.819 272.034 704.024 287.445 692.529 304.857C669.54 339.68 627.773 382.474 572.675 424.98C517.577 467.486 459.591 501.647 410.389 522.518C385.787 532.953 363.392 540.061 344.659 543.231C325.923 546.402 310.893 545.628 300.964 540.343C291.035 535.058 287.089 525.732 288.516 513.348C289.943 500.966 296.738 485.555 308.233 468.143C331.223 433.32 372.989 390.526 428.087 348.02C483.185 305.514 541.171 271.353 590.373 250.482C614.976 240.046 637.37 232.939 656.103 229.769C674.84 226.598 689.87 227.372 699.799 232.657Z" stroke="#FBF950" stroke-width="0.385305"/>
<path opacity="0.291139" d="M695.303 231.034C705.686 236.38 710.184 245.809 709.375 258.324C708.565 270.838 702.45 286.413 691.658 304.009C670.073 339.2 629.797 382.446 575.941 425.4C522.085 468.354 464.859 502.873 415.881 523.961C391.391 534.505 368.974 541.687 350.079 544.889C331.181 548.092 315.843 547.309 305.46 541.963C295.077 536.618 290.58 527.189 291.389 514.673C292.199 502.16 298.314 486.585 309.106 468.989C330.691 433.797 370.967 390.551 424.823 347.597C478.678 304.643 535.905 270.124 584.883 249.037C609.373 238.492 631.79 231.311 650.685 228.109C669.583 224.906 684.921 225.689 695.303 231.034Z" stroke="#FBF950" stroke-width="0.385305"/>
<path opacity="0.303797" d="M690.727 229.443C701.571 234.84 706.629 244.362 706.447 256.999C706.266 269.635 700.843 285.364 690.765 303.136C670.609 338.679 631.849 382.362 579.258 425.756C526.666 469.15 470.214 504.028 421.464 525.34C397.088 535.997 374.649 543.257 355.589 546.498C336.528 549.739 320.878 548.956 310.034 543.559C299.19 538.163 294.131 528.64 294.313 516.003C294.495 503.367 299.917 487.639 309.995 469.867C330.151 434.324 368.911 390.641 421.503 347.247C474.094 303.853 530.546 268.975 579.296 247.662C603.672 237.005 626.111 229.745 645.171 226.504C664.232 223.263 679.882 224.046 690.727 229.443Z" stroke="#FBF950" stroke-width="0.385305"/>
<path opacity="0.316456" d="M686.078 227.881C697.39 233.319 703.018 242.925 703.473 255.674C703.929 268.422 699.209 284.295 689.856 302.233C671.152 338.108 633.932 382.213 582.626 426.038C531.32 469.862 475.654 505.099 427.138 526.643C402.879 537.415 380.418 544.76 361.191 548.046C341.963 551.332 325.996 550.557 314.684 545.119C303.372 539.681 297.744 530.075 297.289 517.327C296.833 504.578 301.553 488.706 310.906 470.767C329.611 434.892 366.83 390.788 418.136 346.963C469.442 303.138 525.108 267.902 573.625 246.358C597.884 235.585 620.344 228.241 639.571 224.955C658.799 221.668 674.766 222.443 686.078 227.881Z" stroke="#FBF950" stroke-width="0.385305"/>
<path opacity="0.329114" d="M681.358 226.357C693.145 231.826 699.352 241.505 700.453 254.356C701.555 267.206 697.549 283.213 688.933 301.308C671.7 337.496 636.042 382.005 586.04 426.251C536.039 470.497 481.172 506.091 432.893 527.873C408.753 538.764 386.271 546.197 366.874 549.535C347.478 552.873 331.191 552.114 319.405 546.644C307.619 541.175 301.412 531.496 300.31 518.646C299.209 505.796 303.215 489.789 311.831 471.694C329.064 435.506 364.721 390.997 414.722 346.751C464.724 302.505 519.591 266.911 567.87 245.129C592.01 234.238 614.493 226.805 633.889 223.467C653.285 220.128 669.572 220.888 681.358 226.357Z" stroke="#FBF950" stroke-width="0.385305"/>
<path opacity="0.341772" d="M676.573 224.873C688.839 230.363 695.632 240.105 697.388 253.046C699.145 265.988 695.861 282.118 687.99 300.359C672.248 336.841 638.175 381.736 589.496 426.392C540.816 471.047 486.759 506.996 438.721 529.021C414.702 540.034 392.198 547.56 372.63 550.957C353.063 554.354 336.452 553.619 324.186 548.128C311.92 542.637 305.126 532.896 303.37 519.954C301.614 507.012 304.898 490.882 312.769 472.641C328.511 436.159 362.583 391.264 411.263 346.609C459.943 301.953 514 266.004 562.038 243.979C586.057 232.967 608.561 225.44 628.129 222.043C647.696 218.647 664.307 219.382 676.573 224.873Z" stroke="#FBF950" stroke-width="0.385305"/>
<path opacity="0.35443" d="M671.731 223.432C684.482 228.934 691.87 238.727 694.288 251.749C696.707 264.772 694.153 281.015 687.036 299.392C672.804 336.146 640.333 381.408 592.992 426.461C545.65 471.514 492.413 507.816 444.62 530.089C420.724 541.225 398.198 548.85 378.457 552.312C358.717 555.773 341.778 555.07 329.027 549.568C316.275 544.066 308.888 534.273 306.47 521.25C304.051 508.227 306.605 491.985 313.721 473.607C327.954 436.854 360.425 391.592 407.766 346.538C455.108 301.485 508.345 265.184 556.137 242.911C580.034 231.774 602.561 224.149 622.301 220.688C642.041 217.226 658.98 217.93 671.731 223.432Z" stroke="#FBF950" stroke-width="0.385305"/>
<path opacity="0.367089" d="M666.841 222.041C680.082 227.544 688.069 237.378 691.156 250.47C694.244 263.563 692.428 279.907 686.074 298.41C673.367 335.414 642.516 381.023 596.526 426.461C550.537 471.898 498.13 508.548 450.585 531.073C426.813 542.336 404.264 550.063 384.349 553.596C364.435 557.128 347.166 556.466 333.924 550.963C320.683 545.459 312.696 535.625 309.608 522.533C306.521 509.439 308.336 493.095 314.69 474.593C327.398 437.589 358.248 391.98 404.237 346.542C450.227 301.105 502.634 264.455 550.179 241.929C573.952 230.666 596.5 222.939 616.416 219.407C636.33 215.874 653.599 216.537 666.841 222.041Z" stroke="#FBF950" stroke-width="0.385305"/>
<path opacity="0.379747" d="M661.899 220.697C689.371 231.686 696.272 260.162 685.098 297.409C673.929 334.641 644.713 380.578 600.089 426.385C555.464 472.193 503.893 509.186 456.599 531.968C409.286 554.758 366.332 563.291 338.861 552.302C311.389 541.313 304.488 512.837 315.661 475.59C326.831 438.358 356.047 392.422 400.671 346.615C445.296 300.807 496.866 263.813 544.161 241.031C591.474 218.241 634.427 209.708 661.899 220.697Z" stroke="#FBF950" stroke-width="0.385305"/>
<path opacity="0.392405" d="M656.921 219.41C685.388 230.362 693.738 258.948 684.116 296.399C674.497 333.837 646.928 380.078 603.68 426.241C560.431 472.404 509.704 509.735 462.662 532.777C415.604 555.825 372.306 564.542 343.839 553.591C315.372 542.64 307.021 514.054 316.643 476.603C326.262 439.165 353.831 392.924 397.079 346.761C440.328 300.598 491.054 263.266 538.097 240.225C585.155 217.176 628.453 208.459 656.921 219.41Z" stroke="#FBF950" stroke-width="0.385305"/>
<path opacity="0.405063" d="M651.912 218.177C681.381 229.071 691.19 257.744 683.131 295.375C675.073 332.996 649.162 379.52 607.299 426.023C565.435 472.526 515.557 510.189 468.768 533.493C421.966 556.803 378.321 565.715 348.851 554.822C319.382 543.928 309.573 515.255 317.633 477.624C325.691 440.002 351.602 393.479 393.466 346.976C435.329 300.473 485.207 262.81 531.996 239.506C578.797 216.196 622.443 207.284 651.912 218.177Z" stroke="#FBF950" stroke-width="0.385305"/>
<path opacity="0.417722" d="M646.876 217.006C677.353 227.823 688.63 256.559 682.139 294.348C675.65 332.128 651.406 378.911 610.934 425.737C570.462 472.563 521.437 510.552 474.903 534.12C428.358 557.693 384.364 566.812 353.887 555.996C323.41 545.179 312.133 516.444 318.624 478.655C325.113 440.875 349.357 394.091 389.829 347.265C430.301 300.439 479.325 262.451 525.86 238.883C572.405 215.31 616.4 206.19 646.876 217.006Z" stroke="#FBF950" stroke-width="0.385305"/>
<path opacity="0.43038" d="M641.824 215.895C673.313 226.615 686.062 255.389 681.147 293.311C676.233 331.227 653.662 378.247 614.587 425.379C575.511 472.512 527.342 510.818 481.063 534.652C434.775 558.49 390.429 567.827 358.94 557.107C327.451 546.387 314.701 517.613 319.616 479.69C324.53 441.774 347.102 394.754 386.177 347.621C425.253 300.489 473.421 262.183 519.701 238.35C565.989 214.512 610.335 205.175 641.824 215.895Z" stroke="#FBF950" stroke-width="0.385305"/>
<path opacity="0.443038" d="M636.76 214.847C669.264 225.451 683.492 254.239 680.157 292.272C676.822 330.3 655.926 377.533 618.25 424.955C580.574 472.376 533.263 510.992 487.238 535.093C441.207 559.197 396.508 568.76 364.004 558.156C331.5 547.551 317.271 518.764 320.606 480.731C323.941 442.703 344.837 395.469 382.513 348.047C420.188 300.626 467.5 262.011 513.525 237.91C559.557 213.806 604.256 204.243 636.76 214.847Z" stroke="#FBF950" stroke-width="0.385305"/>
<path opacity="0.455696" d="M631.692 213.862C665.214 224.332 680.924 253.11 679.17 291.23C677.415 329.346 658.198 376.769 621.922 424.461C585.646 472.154 539.192 511.071 493.42 535.439C447.644 559.809 402.591 569.608 369.069 559.138C335.548 548.668 319.837 519.891 321.592 481.771C323.346 443.656 342.563 396.232 378.839 348.539C415.114 300.847 461.569 261.931 507.341 237.563C553.118 213.192 598.17 203.392 631.692 213.862Z" stroke="#FBF950" stroke-width="0.385305"/>
<path opacity="0.468354" d="M626.629 212.944C661.169 223.261 678.361 252.005 678.188 290.188C678.014 328.368 660.475 375.958 625.598 423.903C590.721 471.848 545.122 511.057 499.602 535.692C454.078 560.329 408.67 570.374 374.13 560.057C339.589 549.739 322.396 520.995 322.57 482.812C322.743 444.632 340.283 397.042 375.16 349.097C410.037 301.151 455.636 261.943 501.156 237.309C546.68 212.671 592.088 202.627 626.629 212.944Z" stroke="#FBF950" stroke-width="0.385305"/>
<path opacity="0.481013" d="M621.58 212.093C657.139 222.24 675.814 250.926 677.22 289.149C678.625 327.37 662.759 375.102 629.278 423.282C595.797 471.461 551.05 510.952 505.78 535.854C460.507 560.757 414.741 571.055 379.182 560.908C343.623 550.761 324.949 522.075 323.544 483.851C322.138 445.631 338.003 397.899 371.484 349.719C404.965 301.539 449.713 262.049 494.983 237.147C540.256 212.244 586.021 201.946 621.58 212.093Z" stroke="#FBF950" stroke-width="0.385305"/>
<path opacity="0.493671" d="M616.551 211.309C653.127 221.268 673.28 249.874 676.26 288.114C679.24 326.352 665.044 374.202 632.953 422.598C600.861 470.993 556.961 510.755 511.937 535.923C466.911 561.091 420.788 571.651 384.211 561.691C347.634 551.732 327.481 523.126 324.501 484.886C321.521 446.648 335.717 398.797 367.808 350.402C399.899 302.007 443.799 262.245 488.823 237.077C533.849 211.909 579.974 201.349 616.551 211.309Z" stroke="#FBF950" stroke-width="0.385305"/>
<path opacity="0.506329" d="M611.55 210.593C649.143 220.349 670.772 248.852 675.32 287.085C679.868 325.318 667.333 373.263 636.624 421.855C605.916 470.447 562.857 510.472 518.075 535.904C473.292 561.336 426.808 572.163 389.215 562.408C351.622 552.652 329.994 524.149 325.446 485.916C320.897 447.683 333.433 399.737 364.142 351.145C394.85 302.553 437.909 262.529 482.691 237.097C527.474 211.665 573.957 200.838 611.55 210.593Z" stroke="#FBF950" stroke-width="0.385305"/>
<path opacity="0.518987" d="M606.58 209.946C645.186 219.482 668.283 247.86 674.391 286.065C680.5 324.269 669.615 372.287 640.279 421.057C610.943 469.827 568.719 510.102 524.175 535.796C479.63 561.49 432.785 572.592 394.179 563.057C355.573 553.521 332.477 525.143 326.368 486.938C320.26 448.733 331.143 400.717 360.479 351.946C389.815 303.176 432.041 262.9 476.585 237.207C521.129 211.513 567.973 200.41 606.58 209.946Z" stroke="#FBF950" stroke-width="0.385305"/>
<path opacity="0.531646" d="M601.657 209.364C641.272 218.665 665.829 246.897 673.488 285.052C681.146 323.206 671.901 371.271 643.926 420.201C615.951 469.13 574.55 509.646 530.238 535.599C485.926 561.552 438.719 572.936 399.103 563.635C359.488 554.335 334.93 526.102 327.271 487.948C319.613 449.793 328.858 401.728 356.833 352.799C384.808 303.869 426.209 263.354 470.521 237.4C514.833 211.447 562.041 200.064 601.657 209.364Z" stroke="#FBF950" stroke-width="0.385305"/>
<path opacity="0.544304" d="M596.782 208.851C637.403 217.902 663.412 245.967 672.609 284.051C681.806 322.134 674.185 370.225 647.557 419.295C620.929 468.365 580.341 509.11 536.255 535.32C492.169 561.53 444.598 573.199 403.977 564.147C363.356 555.095 337.347 527.03 328.15 488.947C318.954 450.864 326.574 402.773 353.202 353.703C379.83 304.633 420.418 263.888 464.504 237.678C508.59 211.468 556.161 199.799 596.782 208.851Z" stroke="#FBF950" stroke-width="0.385305"/>
<path opacity="0.556962" d="M591.969 208.407C675.205 225.983 701.777 319.94 651.172 418.343C600.567 516.747 492.031 582.173 408.795 564.596C325.559 547.019 298.987 453.062 349.592 354.659C400.197 256.256 508.733 190.83 591.969 208.407Z" stroke="#FBF950" stroke-width="0.385305"/>
<path opacity="0.56962" d="M587.215 208.023C672.439 225.05 702.737 318.734 654.76 417.343C606.782 515.951 498.766 582.001 413.542 564.974C328.318 547.947 298.019 454.264 345.997 355.655C393.974 257.046 501.991 190.996 587.215 208.023Z" stroke="#FBF950" stroke-width="0.385305"/>
<path opacity="0.582278" d="M582.539 207.709C669.739 224.162 703.722 317.525 658.331 416.304C612.941 515.082 505.423 581.745 418.223 565.291C331.024 548.838 297.041 455.475 342.431 356.696C387.822 257.918 495.34 191.255 582.539 207.709Z" stroke="#FBF950" stroke-width="0.385305"/>
<path opacity="0.594937" d="M577.938 207.456C667.099 223.315 704.72 316.313 661.873 415.227C619.025 514.14 511.982 581.405 422.821 565.546C333.66 549.686 296.039 456.689 338.886 357.775C381.734 258.862 488.778 191.596 577.938 207.456Z" stroke="#FBF950" stroke-width="0.385305"/>
<path opacity="0.607595" d="M573.427 207.264C664.534 222.511 705.744 315.1 665.392 414.115C625.04 513.13 518.443 580.985 427.336 565.738C336.229 550.492 295.019 457.902 335.371 358.887C375.724 259.872 482.32 192.018 573.427 207.264Z" stroke="#FBF950" stroke-width="0.385305"/>
<path opacity="0.620253" d="M569.007 207.13C662.045 221.747 706.788 313.888 668.88 412.971C630.971 512.055 524.795 580.485 431.757 565.869C338.719 551.253 293.975 459.112 331.883 360.028C369.791 260.945 475.968 192.514 569.007 207.13Z" stroke="#FBF950" stroke-width="0.385305"/>
<path opacity="0.632911" d="M564.684 207.056C659.637 221.028 707.857 312.683 672.338 411.804C636.818 510.924 531.031 579.917 436.078 565.944C341.125 551.972 292.905 460.318 328.424 361.198C363.943 262.077 469.731 193.084 564.684 207.056Z" stroke="#FBF950" stroke-width="0.385305"/>
<path opacity="0.64557" d="M560.47 207.035C657.321 220.35 708.958 311.485 675.769 410.612C642.581 509.738 537.149 579.278 440.298 565.963C343.447 552.647 291.81 461.513 324.998 362.387C358.187 263.26 463.619 193.72 560.47 207.035Z" stroke="#FBF950" stroke-width="0.385305"/>
<path opacity="0.658228" d="M556.36 207.068C655.091 219.717 710.082 310.299 679.163 409.402C648.244 508.506 543.132 578.577 444.401 565.929C345.669 553.28 290.678 462.698 321.597 363.594C352.516 264.491 457.629 194.42 556.36 207.068Z" stroke="#FBF950" stroke-width="0.385305"/>
<path opacity="0.670886" d="M552.372 207.154C652.967 219.128 711.245 309.13 682.531 408.183C653.817 507.236 548.987 577.821 448.393 565.847C347.798 553.873 289.52 463.872 318.234 364.819C346.948 265.766 451.777 195.18 552.372 207.154Z" stroke="#FBF950" stroke-width="0.385305"/>
<path opacity="0.683544" d="M548.502 207.284C650.942 218.579 712.44 307.973 685.864 406.949C659.288 505.926 554.701 577.008 452.26 565.713C349.82 554.418 288.322 465.024 314.898 366.047C341.474 267.071 446.061 195.989 548.502 207.284Z" stroke="#FBF950" stroke-width="0.385305"/>
<path opacity="0.696203" d="M544.759 207.463C649.027 218.076 713.675 306.841 689.167 405.716C664.658 504.59 560.271 576.15 456.002 565.537C351.733 554.925 287.086 466.16 311.594 367.285C336.102 268.411 440.49 196.851 544.759 207.463Z" stroke="#FBF950" stroke-width="0.385305"/>
<path opacity="0.708861" d="M541.147 207.684C647.227 217.615 714.951 305.732 692.438 404.481C669.925 503.23 565.694 575.249 459.614 565.318C353.534 555.388 285.809 467.271 308.322 368.522C330.834 269.773 435.067 197.753 541.147 207.684Z" stroke="#FBF950" stroke-width="0.385305"/>
<path opacity="0.721519" d="M537.672 207.942C645.546 217.193 716.273 304.646 695.681 403.247C675.089 501.849 570.966 574.307 463.091 565.056C355.217 555.805 284.49 468.352 305.082 369.751C325.674 271.149 429.798 198.691 537.672 207.942Z" stroke="#FBF950" stroke-width="0.385305"/>
<path opacity="0.734177" d="M534.336 208.242C643.988 216.818 717.642 303.594 698.893 402.028C680.144 500.462 576.081 573.337 466.429 564.761C356.777 556.185 283.122 469.409 301.87 370.976C320.619 272.542 424.684 199.666 534.336 208.242Z" stroke="#FBF950" stroke-width="0.385305"/>
<path opacity="0.746835" d="M531.139 208.573C642.553 216.482 719.06 302.571 702.075 400.819C685.091 499.065 581.034 572.337 469.621 564.428C358.207 556.519 281.701 470.43 298.685 372.183C315.669 273.936 419.725 200.664 531.139 208.573Z" stroke="#FBF950" stroke-width="0.385305"/>
<path opacity="0.759494" d="M528.092 208.937C641.252 216.188 720.532 301.586 705.231 399.629C689.93 497.672 585.83 571.316 472.669 564.065C359.509 556.813 280.228 471.416 295.529 373.373C310.83 275.33 414.931 201.685 528.092 208.937Z" stroke="#FBF950" stroke-width="0.385305"/>
<path opacity="0.772152" d="M525.192 209.329C640.085 215.936 722.06 300.639 708.359 398.462C694.659 496.285 590.459 570.28 475.566 563.673C360.673 557.065 278.698 472.364 292.398 374.541C306.098 276.718 410.299 202.722 525.192 209.329Z" stroke="#FBF950" stroke-width="0.385305"/>
<path opacity="0.78481" d="M522.447 209.748C639.058 215.726 723.649 299.733 711.466 397.322C699.283 494.91 594.925 569.231 478.313 563.253C361.702 557.275 277.111 473.268 289.294 375.679C301.478 278.091 405.835 203.77 522.447 209.748Z" stroke="#FBF950" stroke-width="0.385305"/>
<path opacity="0.797468" d="M519.855 210.19C638.173 215.556 725.301 298.873 714.548 396.214C703.796 493.555 599.222 568.177 480.905 562.81C362.587 557.444 275.459 474.127 286.212 376.786C296.964 279.445 401.538 204.823 519.855 210.19Z" stroke="#FBF950" stroke-width="0.385305"/>
<path opacity="0.810127" d="M517.422 210.655C637.434 215.43 727.019 298.064 717.612 395.146C708.204 492.228 603.353 567.124 483.341 562.348C363.329 557.572 273.744 474.94 283.152 377.858C292.56 280.776 397.41 205.879 517.422 210.655Z" stroke="#FBF950" stroke-width="0.385305"/>
<path opacity="0.822785" d="M515.145 211.136C636.84 215.343 728.803 297.303 720.652 394.116C712.501 490.929 607.311 566.072 485.616 561.865C363.921 557.657 271.958 475.698 280.109 378.886C288.26 282.073 393.45 206.929 515.145 211.136Z" stroke="#FBF950" stroke-width="0.385305"/>
<path opacity="0.835443" d="M513.029 211.635C636.398 215.299 730.659 296.598 723.676 393.133C716.694 489.668 611.1 565.031 487.731 561.367C364.363 557.702 270.101 476.402 277.084 379.868C284.067 283.333 389.66 207.97 513.029 211.635Z" stroke="#FBF950" stroke-width="0.385305"/>
<path opacity="0.848101" d="M511.078 212.149C636.111 215.299 732.591 295.953 726.687 392.202C720.783 488.451 614.721 564.004 489.688 560.855C364.654 557.706 268.173 477.051 274.077 380.802C279.981 284.553 386.043 209 511.078 212.149Z" stroke="#FBF950" stroke-width="0.385305"/>
<path opacity="0.860759" d="M509.284 212.673C572.618 214.005 628.953 234.678 668.835 267.014C708.717 299.351 732.138 343.343 729.68 391.324C727.223 439.305 699.35 482.218 656.245 512.809C613.14 543.4 554.811 561.661 491.477 560.329C428.142 558.997 371.808 538.324 331.926 505.988C292.044 473.652 268.623 429.659 271.08 381.678C273.538 333.697 301.411 290.784 344.516 260.193C387.621 229.602 445.95 211.341 509.284 212.673Z" stroke="#FBF950" stroke-width="0.385305"/>
<path opacity="0.873418" d="M507.658 213.208C571.816 214.314 629.079 234.723 669.795 266.815C710.511 298.907 734.673 342.674 732.664 390.506C730.656 438.338 702.857 481.209 659.507 511.852C616.156 542.495 557.264 560.9 493.105 559.793C428.946 558.687 371.683 538.28 330.967 506.188C290.25 474.095 266.089 430.328 268.098 382.496C270.106 334.664 297.905 291.793 341.255 261.151C384.606 230.508 443.499 212.102 507.658 213.208Z" stroke="#FBF950" stroke-width="0.385305"/>
<path opacity="0.886076" d="M506.193 213.75C571.173 214.648 629.343 234.807 670.862 266.665C712.382 298.523 737.24 342.07 735.636 389.75C734.032 437.431 706.267 480.25 662.644 510.932C619.02 541.613 559.548 560.147 494.568 559.249C429.587 558.351 371.416 538.192 329.897 506.334C288.378 474.477 263.519 430.93 265.123 383.25C266.728 335.569 294.492 292.749 338.116 262.067C381.74 231.386 441.212 212.852 506.193 213.75Z" stroke="#FBF950" stroke-width="0.385305"/>
<path opacity="0.898734" d="M504.894 214.301C570.694 215.009 629.751 234.936 672.042 266.571C714.334 298.205 739.848 341.537 738.602 389.065C737.357 436.592 709.586 479.351 665.661 510.057C621.736 540.764 561.667 559.408 495.867 558.7C430.067 557.991 371.009 538.066 328.718 506.431C286.427 474.796 260.914 431.464 262.159 383.937C263.405 336.41 291.175 293.651 335.1 262.944C379.025 232.238 439.094 213.593 504.894 214.301Z" stroke="#FBF950" stroke-width="0.385305"/>
<path opacity="0.911392" d="M503.759 214.857C570.376 215.396 630.301 235.107 673.333 266.53C716.365 297.953 742.492 341.078 741.56 388.451C740.627 435.824 712.811 478.512 668.555 509.23C624.3 539.947 563.619 558.684 497.001 558.145C430.384 557.607 370.46 537.896 327.428 506.473C284.395 475.049 258.268 431.925 259.2 384.552C260.133 337.18 287.95 294.491 332.205 263.773C376.46 233.055 437.141 214.319 503.759 214.857Z" stroke="#FBF950" stroke-width="0.385305"/>
<path opacity="0.924051" d="M502.788 215.416C570.222 215.806 630.994 235.321 674.736 266.546C718.478 297.771 745.177 340.695 744.512 387.912C743.848 435.129 715.945 477.738 671.331 508.453C626.717 539.167 565.405 557.975 497.972 557.585C430.538 557.196 369.766 537.682 326.024 506.457C282.281 475.231 255.583 432.307 256.247 385.09C256.912 337.873 284.815 295.265 329.429 264.55C374.043 233.836 435.354 215.026 502.788 215.416Z" stroke="#FBF950" stroke-width="0.385305"/>
<path opacity="0.936709" d="M501.983 215.977C570.231 216.241 631.831 235.578 676.253 266.619C720.676 297.66 747.904 340.393 747.462 387.453C747.02 434.513 718.991 477.033 673.988 507.729C628.987 538.425 567.028 557.286 498.779 557.023C430.53 556.759 368.93 537.422 324.508 506.381C280.086 475.34 252.857 432.607 253.299 385.547C253.741 338.487 281.771 295.967 326.773 265.271C371.775 234.575 433.734 215.714 501.983 215.977Z" stroke="#FBF950" stroke-width="0.385305"/>
<path opacity="0.949367" d="M501.34 216.541C570.403 216.701 632.812 235.882 677.884 266.754C722.956 297.626 750.675 340.177 750.41 387.08C750.145 433.983 721.948 476.403 676.528 507.066C631.11 537.728 568.486 556.619 499.423 556.459C430.36 556.299 367.95 537.118 322.879 506.246C277.806 475.374 250.088 432.825 250.353 385.922C250.617 339.018 278.815 296.598 324.234 265.935C369.653 235.273 432.277 216.382 501.34 216.541Z" stroke="#FBF950" stroke-width="0.385305"/>
<path opacity="0.962025" d="M500.858 217.107C570.735 217.188 633.934 236.235 679.626 266.953C725.319 297.672 753.485 340.048 753.353 386.794C753.221 433.54 724.816 475.851 678.95 506.463C633.085 537.075 569.779 555.976 499.902 555.895C430.025 555.814 366.825 536.767 321.134 506.049C275.441 475.33 247.274 432.953 247.406 386.208C247.538 339.462 275.944 297.151 321.81 266.538C367.674 235.926 430.981 217.026 500.858 217.107Z" stroke="#FBF950" stroke-width="0.385305"/>
<path opacity="0.974684" d="M500.541 217.671C571.231 217.699 635.203 236.634 681.485 267.215C727.769 297.797 756.343 340.01 756.299 386.598C756.255 433.186 727.602 475.377 681.261 505.924C634.921 536.469 570.914 555.355 500.223 555.327C429.533 555.3 365.561 536.365 319.278 505.784C272.995 475.202 244.42 432.989 244.464 386.4C244.508 339.812 273.162 297.621 319.503 267.075C365.843 236.53 429.85 217.644 500.541 217.671Z" stroke="#FBF950" stroke-width="0.385305"/>
<path opacity="0.987342" d="M500.38 218.238C571.884 218.238 636.61 237.086 683.454 267.547C730.3 298.009 759.241 340.07 759.241 386.501C759.241 432.931 730.3 474.992 683.454 505.454C636.61 535.915 571.884 554.763 500.38 554.763C428.876 554.763 364.151 535.915 317.307 505.454C270.461 474.992 241.519 432.932 241.519 386.501C241.519 340.07 270.461 298.009 317.307 267.547C364.151 237.086 428.876 218.238 500.38 218.238Z" stroke="#FBF950" stroke-width="0.385305"/>
<path d="M500.38 218.805C572.697 218.805 638.159 237.589 685.536 267.948C732.915 298.309 762.185 340.228 762.185 386.501C762.185 432.774 732.915 474.693 685.536 505.054C638.159 535.413 572.697 554.197 500.38 554.197C428.063 554.197 362.6 535.413 315.224 505.054C267.845 474.693 238.574 432.774 238.574 386.501C238.574 340.228 267.845 298.309 315.224 267.948C362.6 237.589 428.063 218.805 500.38 218.805Z" stroke="#FBF950" stroke-width="0.385305"/>
</g>
<defs>
<filter id="filter0_f_179_64" x="226.966" y="202.632" width="546.831" height="367.739" filterUnits="userSpaceOnUse" color-interpolation-filters="sRGB">
<feFlood flood-opacity="0" result="BackgroundImageFix"/>
<feBlend mode="normal" in="SourceGraphic" in2="BackgroundImageFix" result="shape"/>
<feGaussianBlur stdDeviation="1.15592" result="effect1_foregroundBlur_179_64"/>
</filter>
</defs>
</svg>
