<svg width="200" height="200" viewBox="0 0 200 200" fill="none" xmlns="http://www.w3.org/2000/svg">
<g clip-path="url(#clip0_55_38873)">
<path d="M23.6132 93.1008C23.5016 93.1008 23.4085 93.1889 23.4023 93.2993V172.096C23.4085 172.206 23.5016 172.295 23.6132 172.295H69.0032C69.1173 172.296 69.2141 172.209 69.2265 172.096V93.2993C69.2141 93.1864 69.1173 93.0996 69.0032 93.1008H23.6132Z" fill="#FBF950"/>
<path d="M180.004 114.016C179.994 109.483 178.159 105.139 174.918 101.97C177.229 99.0502 178.492 95.4354 178.503 91.7114C178.513 87.3076 176.75 83.0813 173.615 79.9887C170.314 76.6592 165.824 74.7711 161.136 74.7414H124.839L127.158 59.6072C127.446 57.6857 127.591 55.7443 127.593 53.8017C127.593 38.8164 117.483 21.4122 104.445 21.4122C100.668 21.4022 97.0044 22.7197 94.0991 25.1337L92.7594 26.2501L94.6573 51.1346C94.733 52.1878 94.6449 53.2472 94.3968 54.2731C94.1462 55.299 93.727 56.2752 93.1563 57.1634L73.2215 94.1056L72.4771 94.7507C71.976 91.343 69.0248 88.79 65.58 88.7838H26.9879C23.156 88.7838 20.0039 91.936 20.0039 95.7679V168.685C20.0101 172.512 23.161 175.656 26.9879 175.656H65.642C69.4689 175.656 72.6198 172.512 72.626 168.685V164.963C77.3895 168.752 83.2521 170.901 89.3356 171.091H147.59C156.499 170.615 163.571 163.154 163.571 154.232C163.571 152.946 163.425 151.665 163.133 150.412C171.581 146.78 175.57 136.863 171.99 128.393C176.987 125.337 180.032 119.873 180.004 114.016ZM65.8777 168.709C65.8665 168.807 65.7896 168.884 65.6916 168.895H26.9879C26.8862 168.891 26.8019 168.811 26.7894 168.709V95.7927C26.7956 95.6885 26.8837 95.6066 26.9879 95.6066H65.642C65.7412 95.6128 65.8219 95.6934 65.8281 95.7927V168.709H65.8777ZM166.197 123.617L161.595 125.044L164.498 128.902C165.798 130.636 166.501 132.746 166.501 134.913C166.501 139.803 162.922 144.015 158.097 144.805L153.482 145.574L155.69 149.767C156.432 151.195 156.819 152.78 156.819 154.388C156.819 159.654 152.671 164.066 147.416 164.392H89.4472C84.9727 164.21 80.6657 162.635 77.129 159.889C76.1664 159.034 75.0847 158.323 73.9161 157.781L72.6756 157.21V103.645L78.7169 98.4722L99.1107 60.6617C100.939 57.6596 101.778 54.1552 101.505 50.6508L99.8674 29.4382C101.274 28.6269 102.871 28.2002 104.495 28.1977C113.302 28.1977 120.844 42.265 120.844 53.7893C120.842 55.3883 120.722 56.9848 120.485 58.5652L116.924 81.5393H161.136C164.014 81.5616 166.769 82.7277 168.79 84.777C170.648 86.5857 171.699 89.0692 171.705 91.6618C171.699 94.7879 170.216 97.7328 167.711 99.601L163.604 102.715L168.095 105.258C171.248 107.04 173.205 110.393 173.205 114.016C173.205 118.403 170.334 122.307 166.147 123.617H166.197Z" fill="white"/>
</g>
<defs>
<clipPath id="clip0_55_38873">
<rect width="200" height="200" fill="white"/>
</clipPath>
</defs>
</svg>
