<svg width="394" height="97" viewBox="0 0 394 97" fill="none" xmlns="http://www.w3.org/2000/svg">
<path d="M138.114 0.0702167C137.102 0.396392 133.496 3.49209 131.146 6.05999C129.79 7.5426 128.034 9.74873 127.772 10.2943C127.641 10.5726 127.569 10.8748 127.561 11.1821C127.553 11.4894 127.609 11.795 127.725 12.0797C127.842 12.3644 128.016 12.6221 128.237 12.8363C128.458 13.0506 128.721 13.2169 129.01 13.3248C129.474 13.5027 130.117 13.5086 130.581 13.3307C131.057 13.1469 131.36 12.8563 132.14 11.8244C134.199 9.09638 136.971 6.32686 139.667 4.3105C140.75 3.50396 141.023 3.02952 140.982 2.06285C140.962 1.64723 140.823 1.24599 140.581 0.906551C140.34 0.567109 140.006 0.303651 139.619 0.147313C139.197 -0.0128098 138.495 -0.0483926 138.114 0.0702167Z" fill="#FBF950"/>
<path d="M124.821 15.928C124.19 16.1415 123.869 16.4558 123.28 17.4166C122.281 19.0593 121.102 21.9652 119.877 25.8378C118.895 28.9276 118.163 31.4718 116.116 38.8849C112.957 50.3307 111.463 55.1047 109.803 59.0959C108.762 61.5985 107.578 63.6505 106.798 64.291L106.584 64.463L106.376 64.3562C105.775 64.03 104.96 62.7253 104.317 61.0648C103.46 58.8587 102.895 56.7711 101.479 50.5975C99.7713 43.1607 98.8966 40.2429 97.5697 37.6276C96.231 34.9767 94.7137 33.5297 92.7026 32.9781C92.3753 32.8892 92.0897 32.8654 91.3638 32.8654C90.5605 32.8654 90.382 32.8832 89.9953 33.0018C87.7699 33.6957 86.0503 35.7714 84.5628 39.5372C83.6168 41.9331 82.9622 44.157 81.3974 50.2714C80.2133 54.8971 79.7254 56.6466 79.1006 58.5147C78.2141 61.1834 77.2263 63.1464 76.3933 63.9055C76.0125 64.2554 75.834 64.3206 75.6317 64.1902C75.364 64.0122 74.8761 63.2828 74.4358 62.3991C73.692 60.8928 73.2814 59.7542 71.9367 55.4605C70.9966 52.4478 70.5503 51.1253 70.0208 49.7969C68.3904 45.6812 66.5162 43.7656 64.0231 43.647C63.4876 43.6233 63.2734 43.6411 62.8509 43.7419C61.8691 43.9732 61.0302 44.4536 60.2567 45.2245C59.3701 46.1141 58.7215 47.0748 57.9242 48.6998C57.0734 50.4255 56.5795 51.7125 55.086 56.0832C53.6104 60.3947 52.9797 61.9722 52.224 63.2294C51.9206 63.7335 51.5576 64.2079 51.4684 64.2079C51.3494 64.2079 50.9269 63.7157 50.5223 63.093C49.8321 62.0433 49.2847 60.9343 47.8864 57.7437C46.5655 54.737 45.5183 52.7325 44.6258 51.5286C43.8641 50.4967 42.7277 49.536 41.853 49.192C40.5916 48.6879 39.4194 48.7532 38.3186 49.3936C37.682 49.7673 36.7597 50.7221 36.135 51.665C35.2662 52.9697 34.7902 53.8949 33.2016 57.3286C32.0413 59.8431 31.1428 61.646 30.6609 62.4466C30.2682 63.093 29.7148 63.8521 29.6256 63.8521C29.572 63.8521 28.9115 62.8973 28.5902 62.3398C28.5129 62.2094 27.906 61.0411 27.2455 59.7364C26.585 58.4317 25.8294 57.0321 25.5795 56.6169C24.086 54.1202 22.6401 52.9994 20.9146 52.9994C19.5639 52.9994 18.2549 53.711 17.2612 54.9801C16.3925 56.0832 15.8689 57.127 14.5182 60.4421C13.7923 62.2272 12.9772 63.8521 12.8165 63.8521C12.7332 63.8521 12.2572 62.8202 11.8407 61.7468C10.6745 58.7341 10.2996 57.9039 9.69866 57.0024C8.61575 55.3775 7.26507 54.5947 5.65855 54.6718C4.67678 54.7251 3.84376 55.0988 2.86795 55.9349C1.96948 56.7059 0.60691 58.4139 0.184453 59.2857C0.0178503 59.6296 0 59.7245 0 60.2049C0.0059501 60.6081 0.0357006 60.8157 0.136852 61.0648C0.343611 61.5612 0.724212 61.9658 1.20787 62.2034C1.57678 62.3873 1.64818 62.3991 2.20154 62.3991C2.7192 62.3991 2.8382 62.3814 3.1238 62.245C3.57006 62.0374 3.83781 61.7942 4.17102 61.2842C4.55711 60.6926 4.99092 60.1333 5.46814 59.6118L5.80135 59.256L5.9263 59.4043C6.13455 59.6474 6.65221 60.7386 7.08062 61.8358C8.06239 64.3621 8.27064 64.8662 8.55029 65.4237C9.43686 67.185 10.4008 68.1221 11.7217 68.5135C12.2037 68.6617 13.1914 68.6617 13.7031 68.5194C14.8396 68.211 15.857 67.3985 16.7019 66.1353C17.2136 65.3644 18.011 63.7157 18.8023 61.7764C19.5401 59.9617 20.385 58.2004 20.6766 57.8623L20.8551 57.6548L21.0574 57.892C21.4382 58.3249 22.1165 59.5288 23.3244 61.8832C24.5977 64.3799 24.9071 64.9315 25.5795 65.9278C26.0614 66.6394 26.9599 67.5764 27.4835 67.9145C28.2451 68.4067 29.1852 68.638 30.0064 68.5372C31.7378 68.3178 33.154 67.0664 34.7069 64.3859L35.0639 63.7632L37.7653 63.7335C40.4071 63.7038 40.4666 63.6979 40.8058 63.5615C41.2461 63.3895 41.8054 62.8795 42.0018 62.4703C42.6563 61.1182 41.8649 59.5703 40.3714 59.2857C40.1989 59.256 39.4313 59.2264 38.6697 59.2264C37.9081 59.2264 37.2774 59.2086 37.2774 59.1908C37.2774 59.1374 38.271 57.0143 38.634 56.2908C39.235 55.0928 40.1275 53.6161 40.3238 53.4975C40.425 53.4323 40.8415 53.8949 41.2937 54.5709C42.0256 55.6621 42.5551 56.7356 44.0426 60.1159C44.9411 62.156 45.6908 63.7157 46.1966 64.5934C47.333 66.5564 48.4041 67.7188 49.6238 68.3C50.445 68.6973 51.2661 68.8396 52.0336 68.721C54.3185 68.3652 55.9309 66.4852 57.6208 62.2212C58.1325 60.9403 58.5133 59.8728 59.501 56.9728C60.9945 52.5902 61.8156 50.6213 62.7379 49.2335C63.0651 48.7294 63.672 48.0771 63.8089 48.0771C63.9279 48.0771 64.2789 48.4388 64.5705 48.8599C65.4452 50.1231 66.2246 52.1276 67.7121 56.9135C68.9676 60.9699 69.6935 62.9507 70.4849 64.5104C71.5262 66.5623 72.7043 67.8315 74.0906 68.4008C75.2628 68.8811 76.8039 68.7981 78.0058 68.1932C79.4457 67.4697 80.7667 65.9278 81.8377 63.7038C83.0693 61.1656 83.9262 58.4376 85.8004 51.1016C87.2642 45.3669 87.9008 43.2022 88.7517 41.0791C89.5133 39.1932 90.4534 37.6869 91.0782 37.3667C92.1135 36.8329 93.5653 38.9086 94.8505 42.7812C95.4872 44.6908 96.0049 46.7071 97.1949 51.9082C98.849 59.1137 99.6642 61.8654 100.866 64.3147C102.336 67.2977 104.353 68.8989 106.638 68.893C109.458 68.8871 111.743 66.2539 114.165 60.2345C115.843 56.0654 117.378 51.1075 120.49 39.8337C122.643 32.0174 123.465 29.2004 124.458 26.1937C125.547 22.8963 126.463 20.6961 127.255 19.4863C127.612 18.9289 127.725 18.6442 127.761 18.1698C127.792 17.6839 127.662 17.2012 127.391 16.7961C127.12 16.391 126.723 16.0859 126.261 15.928C125.851 15.7857 125.238 15.7857 124.821 15.928Z" fill="#FBF950"/>
<path d="M3.15352 86.8867C3.01144 86.8884 2.87336 86.8399 2.76379 86.7497C2.64907 86.6546 2.56607 86.527 2.52578 86.3838L0.0576807 78.2122C-0.0226457 77.9376 -0.0226457 77.7318 0.080291 77.5723C0.172518 77.4122 0.332575 77.3351 0.539044 77.3351C0.674166 77.3323 0.80668 77.3724 0.91747 77.4495C1.03923 77.538 1.12398 77.668 1.15547 77.8149L3.29751 85.2784H3.02738L5.01114 77.8949C5.04381 77.7691 5.12146 77.6594 5.22951 77.5865C5.34257 77.5042 5.47918 77.4601 5.61924 77.4608C5.75204 77.4627 5.88222 77.498 5.99766 77.5634C6.05481 77.5968 6.10457 77.6414 6.14395 77.6945C6.18332 77.7476 6.21148 77.8081 6.22674 77.8724L8.22241 85.2671H7.98143L10.1371 77.7467C10.2175 77.4721 10.4239 77.3351 10.7679 77.3351C10.9969 77.3351 11.1463 77.4264 11.2153 77.5978C11.2843 77.7692 11.2837 77.975 11.2153 78.2152L8.74959 86.3755C8.70028 86.5212 8.61325 86.6513 8.4973 86.7527C8.38772 86.8428 8.24964 86.8914 8.10757 86.8897C7.95935 86.8947 7.81509 86.8415 7.70594 86.7414C7.59641 86.6459 7.51428 86.5231 7.46793 86.3856L5.4931 78.772H5.7906L3.79553 86.363C3.74553 86.5084 3.65861 86.6383 3.54325 86.7402C3.43727 86.8375 3.29756 86.89 3.15352 86.8867V86.8867Z" fill="#FBF950"/>
<path d="M15.3202 86.887C15.2136 86.8892 15.1084 86.8628 15.0156 86.8107C14.9227 86.7585 14.8457 86.6825 14.7924 86.5905C14.6663 86.3965 14.6549 86.1907 14.7585 85.9618L18.2095 77.7559C18.3357 77.47 18.5302 77.333 18.8045 77.333C19.1021 77.333 19.2972 77.47 19.3996 77.7559L22.8625 85.985C22.9541 86.2133 22.9428 86.4191 22.8167 86.6023C22.7019 86.785 22.5192 86.8763 22.2776 86.8763C22.1552 86.8773 22.0354 86.8416 21.9337 86.7737C21.8217 86.7102 21.7362 86.6088 21.6927 86.4879L18.654 78.9562H18.9979L15.9039 86.4879C15.8526 86.6103 15.7645 86.714 15.6516 86.7844C15.5531 86.8491 15.4382 86.8847 15.3202 86.887V86.887ZM15.9622 84.784L16.4554 83.7326H21.2602L21.7534 84.784H15.9622Z" fill="#FBF950"/>
<path d="M28.0255 86.8868C27.9406 86.8888 27.8562 86.8736 27.7774 86.8422C27.6986 86.8108 27.627 86.7637 27.567 86.7039C27.507 86.6441 27.4597 86.5727 27.4282 86.4941C27.3966 86.4156 27.3814 86.3315 27.3835 86.2469V77.9721C27.3795 77.8872 27.3938 77.8024 27.4255 77.7236C27.4572 77.6447 27.5056 77.5735 27.5673 77.5149C27.6907 77.3974 27.8549 77.3319 28.0255 77.3322C28.1422 77.3302 28.2571 77.3614 28.3566 77.4221C28.4562 77.4828 28.5364 77.5705 28.5878 77.675L32.4292 85.3443H32.0394L35.7773 77.675C35.8241 77.5865 35.891 77.5101 35.9726 77.452C36.0543 77.3938 36.1484 77.3554 36.2475 77.3398C36.3467 77.3243 36.4481 77.332 36.5437 77.3624C36.6393 77.3928 36.7265 77.445 36.7983 77.5149C36.8599 77.5735 36.9082 77.6447 36.9398 77.7236C36.9714 77.8025 36.9857 77.8873 36.9816 77.9721V86.2469C36.9824 86.3324 36.9654 86.4171 36.9318 86.4958C36.8983 86.5745 36.8488 86.6454 36.7864 86.7041C36.7285 86.7635 36.6589 86.8104 36.5821 86.8418C36.5052 86.8732 36.4226 86.8885 36.3396 86.8868C36.2546 86.8889 36.1702 86.8738 36.0913 86.8424C36.0124 86.811 35.9408 86.7639 35.8807 86.7041C35.8206 86.6443 35.7733 86.5729 35.7417 86.4943C35.7101 86.4157 35.6949 86.3315 35.697 86.2469V79.7323L35.935 79.673L32.7219 86.1965C32.5845 86.4135 32.4006 86.5167 32.1715 86.5167C32.0466 86.5231 31.9229 86.4901 31.8179 86.4224C31.7129 86.3546 31.632 86.2557 31.5866 86.1395L28.4105 79.7939L28.6485 79.7346V86.2493C28.6514 86.334 28.6367 86.4184 28.6051 86.4971C28.5736 86.5758 28.5259 86.6471 28.4652 86.7065C28.3465 86.8194 28.1896 86.8837 28.0255 86.8868Z" fill="#FBF950"/>
<path d="M43.1398 86.8873C43.0549 86.8894 42.9704 86.8743 42.8916 86.8429C42.8127 86.8115 42.7411 86.7644 42.6811 86.7046C42.621 86.6447 42.5738 86.5733 42.5423 86.4947C42.5108 86.4162 42.4956 86.332 42.4978 86.2474V77.9726C42.4937 77.8878 42.5079 77.803 42.5395 77.7241C42.5711 77.6453 42.6194 77.5741 42.681 77.5154C42.8046 77.3978 42.969 77.3324 43.1398 77.3327C43.2249 77.3286 43.3099 77.3428 43.3891 77.3743C43.4682 77.4059 43.5396 77.454 43.5985 77.5154C43.6579 77.5757 43.7047 77.6472 43.7362 77.7257C43.7676 77.8042 43.7831 77.8881 43.7818 77.9726V86.2474C43.7843 86.3319 43.7691 86.4161 43.7372 86.4945C43.7054 86.5729 43.6575 86.6438 43.5967 86.7028C43.5373 86.7631 43.466 86.8105 43.3874 86.8422C43.3088 86.874 43.2245 86.8893 43.1398 86.8873Z" fill="#FBF950"/>
<path d="M52.348 86.9987C51.8376 87.0018 51.3301 86.9217 50.8456 86.7615C50.3932 86.6118 49.9728 86.3791 49.6062 86.0753C49.2696 85.8048 49.0055 85.4554 48.8375 85.0583C48.7967 84.9843 48.7764 84.9008 48.7785 84.8165C48.7806 84.7321 48.805 84.6498 48.8494 84.5779C48.941 84.4296 49.0785 84.3407 49.2849 84.2926C49.4335 84.2589 49.5894 84.2834 49.7205 84.3608C49.8605 84.4393 49.9727 84.559 50.0418 84.7036C50.1585 84.9237 50.3229 85.1152 50.5231 85.264C50.7695 85.4459 51.0449 85.585 51.3377 85.6756C51.6644 85.7815 52.0057 85.8353 52.3492 85.8352C52.7203 85.8407 53.0893 85.7788 53.4381 85.6525C53.7476 85.5452 54.0241 85.3601 54.2408 85.1152C54.4501 84.8795 54.561 84.5729 54.5508 84.2582C54.5508 83.8241 54.3788 83.4351 54.0462 83.0923C53.7023 82.7495 53.1537 82.5437 52.3718 82.4524C51.3603 82.3492 50.56 82.0521 49.9751 81.5628C49.3902 81.0599 49.104 80.4538 49.104 79.7114C49.104 79.1741 49.2528 78.7168 49.5622 78.3396C49.8601 77.9625 50.273 77.6768 50.801 77.4827C51.3555 77.2805 51.9421 77.18 52.5325 77.1862C52.9775 77.1782 53.4205 77.2478 53.8415 77.3919C54.1981 77.5229 54.5282 77.7165 54.8161 77.9636C55.0986 78.2162 55.342 78.5089 55.5385 78.8325C55.6533 79.0151 55.6991 79.1752 55.6759 79.3354C55.6664 79.4118 55.6401 79.4851 55.599 79.5503C55.5579 79.6155 55.5029 79.6709 55.4379 79.7125C55.3644 79.7612 55.2804 79.7919 55.1927 79.8022C55.1051 79.8125 55.0162 79.8021 54.9334 79.7718C54.8484 79.7478 54.7691 79.7071 54.7001 79.6521C54.6311 79.5971 54.5739 79.529 54.5317 79.4516C54.413 79.2236 54.2493 79.0219 54.0504 78.8586C53.8515 78.6936 53.6267 78.5624 53.3851 78.4701C53.0978 78.3733 52.7958 78.3269 52.4926 78.3331C51.8845 78.3213 51.38 78.4357 50.9676 78.6646C50.5553 78.8935 50.3595 79.2577 50.3595 79.7386C50.3628 79.9885 50.43 80.2335 50.5547 80.4503C50.6808 80.6786 50.9117 80.8731 51.2538 81.0333C51.5959 81.1934 52.0797 81.3072 52.7217 81.376C53.6963 81.4792 54.4532 81.7645 54.9923 82.2656C55.5313 82.7572 55.8062 83.4084 55.8062 84.2227C55.8062 84.6912 55.7146 85.0909 55.52 85.4343C55.3305 85.7731 55.068 86.0657 54.7513 86.2912C54.4176 86.5259 54.045 86.6999 53.6505 86.8054C53.2306 86.9436 52.7901 87.0089 52.348 86.9987V86.9987Z" fill="#FBF950"/>
<path d="M65.2362 86.9988C64.5613 87.0055 63.8916 86.8812 63.2644 86.6329C62.6862 86.405 62.1626 86.0584 61.7274 85.6158C61.2902 85.1723 60.9504 84.643 60.7296 84.0614C60.4916 83.4684 60.3726 82.8042 60.3726 82.0842C60.3629 81.4121 60.4842 80.7444 60.7296 80.1183C60.9578 79.5442 61.2968 79.0203 61.7274 78.5764C62.1627 78.1337 62.6863 77.787 63.2644 77.5587C64.5337 77.0716 65.9393 77.0716 67.2087 77.5587C67.7854 77.7904 68.3087 78.137 68.7464 78.5772C69.1842 79.0174 69.5273 79.542 69.7547 80.1189C69.9992 80.7453 70.1204 81.4127 70.1117 82.0848C70.1203 82.7606 69.9992 83.4317 69.7547 84.062C69.5301 84.6419 69.1882 85.1694 68.7502 85.6118C68.3121 86.0542 67.7874 86.402 67.2087 86.6335C66.6125 86.8867 65.9586 86.9988 65.2362 86.9988ZM65.2362 85.856C65.7401 85.8631 66.2399 85.7657 66.7041 85.5702C67.1415 85.3861 67.536 85.1137 67.8626 84.7701C68.1911 84.4286 68.4484 84.0254 68.6194 83.584C68.7959 83.1125 68.8852 82.613 68.883 82.1097C68.8863 81.6064 68.7969 81.1067 68.6194 80.6354C68.4555 80.1905 68.1974 79.7859 67.8626 79.4493C67.5363 79.1083 67.1415 78.8395 66.7041 78.6606C66.2382 78.4708 65.7395 78.3739 65.2362 78.3753C64.7326 78.3684 64.233 78.4655 63.7689 78.6606C63.3315 78.8395 62.9368 79.1083 62.6104 79.4493C62.2855 79.7937 62.0287 80.1961 61.8536 80.6354C61.4871 81.5843 61.4871 82.6351 61.8536 83.584C62.026 84.0248 62.2831 84.4277 62.6104 84.7701C62.936 85.1154 63.3299 85.3896 63.7671 85.5755C64.2336 85.7646 64.7327 85.8607 65.2362 85.8584V85.856Z" fill="#FBF950"/>
<path d="M75.0411 86.8869C74.9562 86.889 74.8718 86.8739 74.793 86.8425C74.7141 86.8111 74.6425 86.7641 74.5824 86.7042C74.5224 86.6444 74.4752 86.573 74.4437 86.4944C74.4121 86.4158 74.397 86.3316 74.3991 86.247V77.9723C74.395 77.8874 74.4093 77.8027 74.4409 77.7238C74.4725 77.6449 74.5208 77.5737 74.5824 77.515C74.706 77.3975 74.8703 77.332 75.0411 77.3324H80.5914C80.7589 77.3272 80.9224 77.3842 81.0501 77.4925C81.1075 77.5489 81.1525 77.6167 81.1821 77.6915C81.2117 77.7662 81.2253 77.8463 81.2221 77.9266C81.2253 78.0035 81.2115 78.0802 81.1818 78.1513C81.1521 78.2224 81.1072 78.2862 81.0501 78.3382C80.9233 78.4479 80.7592 78.5052 80.5914 78.4983H75.6832V81.4694H79.2038C79.3713 81.4646 79.5347 81.5216 79.6626 81.6296C79.7729 81.7429 79.8345 81.8945 79.8345 82.0524C79.8345 82.2103 79.7729 82.3619 79.6626 82.4752C79.5477 82.5897 79.3984 82.6354 79.2038 82.6354H75.6832V86.2358C75.686 86.3205 75.6712 86.4048 75.6397 86.4836C75.6081 86.5623 75.5605 86.6336 75.4999 86.693C75.4409 86.755 75.3697 86.8042 75.2908 86.8376C75.2119 86.871 75.1269 86.8878 75.0411 86.8869V86.8869Z" fill="#FBF950"/>
<path d="M85.4639 78.5092C85.3071 78.5125 85.155 78.4551 85.0397 78.3491C84.9254 78.2465 84.879 78.0977 84.879 77.9263C84.8761 77.77 84.9336 77.6186 85.0397 77.5034C85.0953 77.4488 85.1618 77.4063 85.2348 77.3787C85.3079 77.3512 85.3859 77.3391 85.4639 77.3433H92.0233C92.1801 77.3404 92.332 77.3977 92.4475 77.5034C92.5024 77.5589 92.545 77.6251 92.5727 77.6979C92.6003 77.7707 92.6124 77.8485 92.6082 77.9263C92.6111 78.0825 92.5536 78.234 92.4475 78.3491C92.3446 78.4636 92.1953 78.5092 92.0233 78.5092H85.4639ZM88.7436 86.8866C88.6587 86.8887 88.5743 86.8736 88.4954 86.8422C88.4166 86.8108 88.345 86.7637 88.2849 86.7039C88.2249 86.644 88.1776 86.5727 88.1461 86.4941C88.1146 86.4155 88.0995 86.3313 88.1016 86.2467V77.332H89.3743V86.2467C89.3765 86.3304 89.3617 86.4136 89.3309 86.4915C89.3001 86.5694 89.2539 86.6403 89.1951 86.7C89.1363 86.7597 89.066 86.8069 88.9884 86.839C88.9108 86.8711 88.8276 86.8873 88.7436 86.8866Z" fill="#FBF950"/>
<path d="M99.1331 86.8867C98.9908 86.8885 98.8525 86.8399 98.7428 86.7497C98.6282 86.6545 98.5452 86.5269 98.5048 86.3838L96.0391 78.2122C95.9587 77.9376 95.9587 77.7318 96.0623 77.5723C96.1539 77.4122 96.3146 77.3351 96.521 77.3351C96.6561 77.3325 96.7886 77.3725 96.8994 77.4495C97.0211 77.5381 97.1058 77.6681 97.1375 77.8149L99.2795 85.2783H99.0046L100.988 77.8949C101.021 77.7691 101.098 77.6595 101.206 77.5865C101.319 77.5045 101.456 77.4604 101.596 77.4608C101.729 77.4627 101.859 77.498 101.974 77.5634C102.032 77.5968 102.081 77.6414 102.121 77.6945C102.16 77.7476 102.189 77.8081 102.204 77.8724L104.199 85.2671H103.961L106.117 77.7467C106.197 77.4721 106.404 77.3351 106.747 77.3351C106.977 77.3351 107.126 77.4264 107.195 77.5978C107.264 77.7692 107.264 77.975 107.195 78.2152L104.729 86.3755C104.68 86.5211 104.593 86.6513 104.477 86.7527C104.367 86.843 104.229 86.8915 104.087 86.8896C103.939 86.8948 103.795 86.8415 103.686 86.7414C103.575 86.6463 103.492 86.5235 103.445 86.3856L101.473 78.7738H101.77L99.7751 86.3648C99.7257 86.5104 99.6387 86.6405 99.5229 86.742C99.4166 86.8386 99.2769 86.8905 99.1331 86.8867V86.8867Z" fill="#FBF950"/>
<path d="M111.289 86.887C111.182 86.8891 111.077 86.8627 110.984 86.8105C110.892 86.7584 110.815 86.6824 110.761 86.5905C110.635 86.3965 110.623 86.1907 110.727 85.9618L114.178 77.7559C114.304 77.47 114.499 77.333 114.773 77.333C115.071 77.333 115.266 77.47 115.368 77.7559L118.831 85.985C118.923 86.2133 118.911 86.4191 118.785 86.6023C118.67 86.785 118.488 86.8763 118.246 86.8763C118.124 86.8774 118.004 86.8416 117.902 86.7737C117.791 86.7097 117.707 86.6083 117.664 86.4879L114.625 78.9562H114.969L111.875 86.4879C111.824 86.6104 111.736 86.714 111.623 86.7844C111.524 86.8512 111.408 86.887 111.289 86.887V86.887ZM111.943 84.784L112.436 83.7326H117.241L117.734 84.784H111.943Z" fill="#FBF950"/>
<path d="M124.006 86.8866C123.921 86.8887 123.837 86.8736 123.758 86.8422C123.679 86.8108 123.607 86.7637 123.547 86.7039C123.487 86.644 123.44 86.5727 123.409 86.4941C123.377 86.4155 123.362 86.3313 123.364 86.2467V77.9719C123.36 77.8871 123.374 77.8023 123.406 77.7235C123.437 77.6446 123.486 77.5734 123.547 77.5147C123.671 77.3971 123.835 77.3316 124.006 77.332H126.219C126.827 77.332 127.377 77.4578 127.847 77.7205C128.312 77.9628 128.697 78.3315 128.959 78.7838C129.224 79.2292 129.361 79.7552 129.361 80.3495C129.371 80.8647 129.233 81.3722 128.966 81.813C128.698 82.2538 128.31 82.61 127.847 82.8402C127.341 83.0897 126.783 83.2151 126.219 83.2062H124.648V86.2461C124.651 86.3308 124.636 86.4152 124.605 86.494C124.573 86.5727 124.525 86.644 124.465 86.7034C124.341 86.8213 124.177 86.887 124.006 86.8866V86.8866ZM124.637 82.0296H126.208C126.553 82.0387 126.895 81.9642 127.205 81.8125C127.482 81.6817 127.716 81.4762 127.882 81.2195C128.044 80.9552 128.127 80.6498 128.12 80.34C128.127 80.0081 128.045 79.6805 127.882 79.3911C127.72 79.1167 127.486 78.8913 127.205 78.7387C126.919 78.5792 126.586 78.5104 126.208 78.5104H124.637L124.637 82.0296ZM129.099 86.8866C128.992 86.8884 128.886 86.865 128.789 86.8184C128.691 86.7639 128.609 86.6851 128.551 86.5895L126.338 83.0466L127.576 82.6908L129.583 85.9134C129.732 86.1506 129.755 86.3707 129.643 86.5764C129.533 86.784 129.35 86.8866 129.1 86.8866H129.099Z" fill="#FBF950"/>
<path d="M134.818 86.8869C134.734 86.889 134.649 86.8739 134.57 86.8425C134.491 86.8111 134.42 86.7641 134.36 86.7042C134.3 86.6444 134.253 86.573 134.221 86.4944C134.189 86.4158 134.174 86.3316 134.176 86.247V77.9723C134.172 77.8874 134.187 77.8027 134.218 77.7238C134.25 77.6449 134.298 77.5737 134.36 77.515C134.483 77.3975 134.648 77.332 134.818 77.3324H140.369C140.536 77.3272 140.7 77.3842 140.827 77.4925C140.885 77.5487 140.93 77.6163 140.959 77.6908C140.989 77.7654 141.003 77.8453 140.999 77.9254C141.003 78.0024 140.989 78.0791 140.959 78.1502C140.93 78.2213 140.885 78.2851 140.827 78.337C140.701 78.4471 140.537 78.5044 140.369 78.4971H135.461V81.4683H138.981C139.149 81.4634 139.312 81.5204 139.44 81.6284C139.55 81.7417 139.612 81.8934 139.612 82.0512C139.612 82.2091 139.55 82.3608 139.44 82.4741C139.325 82.5885 139.176 82.6342 138.981 82.6342H135.461V85.6973H140.369C140.536 85.6921 140.7 85.7492 140.827 85.8574C140.885 85.9093 140.93 85.973 140.959 86.0441C140.989 86.1152 141.003 86.192 140.999 86.269C141.003 86.3493 140.989 86.4294 140.96 86.5041C140.93 86.5789 140.885 86.6467 140.827 86.7031C140.713 86.8175 140.564 86.8632 140.369 86.8632H134.818V86.8869Z" fill="#FBF950"/>
<g clip-path="url(#clip0_220_1411)">
<path d="M224.738 24.9014C225.576 24.9014 227.252 26.9488 227.103 28.7727C226.943 30.6991 225.621 32.4026 224.536 32.4026C224.034 32.4026 222.093 32.4955 211.319 32.4955C210.4 40.1946 205.553 81.2415 205.388 82.0927C205.218 83.6104 202.296 85.3254 197.534 85.4229C193.941 85.5169 189.683 84.0901 189.931 82.475C190.097 81.2415 195.11 40.6714 196.198 32.4955H181.939C180.938 32.4955 179 31.0058 179 28.7967C179 26.7889 180.535 24.9014 181.533 24.9014H224.738Z" fill="#3E634C"/>
<path d="M305.203 38.6641H281.189C266.671 38.6641 255.662 42.1729 253.29 57.6156C250.915 72.9651 258.319 79.0271 271.225 79.0271H282.99L284.213 72.3929H275.402C270.561 72.3929 267.335 68.7045 269.043 57.8019C270.75 47.0043 275.875 46.2441 277.965 46.2441H294.573C292.298 61.9755 290.681 72.3929 290.681 72.3929H290.667L289.504 79.0271H289.541C288.21 86.8936 284.607 89.2588 281.57 89.2588H257.182C257.182 89.2588 256.805 89.2588 256.329 89.5464C255.382 90.6814 254.9 92.1949 254.9 93.7124C254.9 94.4693 254.997 95.2288 255.187 95.8918C272.839 95.9828 285.268 95.9828 285.268 95.9828C297.703 95.9828 303.871 87.6469 305.203 79.0271C305.864 74.9541 309.946 47.6634 310.325 45.2994C310.989 41.223 309.47 38.6641 305.203 38.6641Z" fill="#3E634C"/>
<path d="M241.986 85.2002C241.986 85.2002 241.896 85.6321 241.714 85.7421C239.622 86.7082 237.252 87.2507 234.429 87.2507C231.696 87.2507 229.235 86.7082 227.23 85.7421C227.139 85.7421 226.958 85.5219 226.958 85.3104C232.697 39.8352 232.697 39.6231 232.697 39.6231C232.697 39.6231 232.788 39.2967 232.972 39.1907C235.065 38.1086 237.527 37.5674 240.257 37.5674C243.081 37.5674 245.452 38.1086 247.545 39.1907C247.729 39.2967 247.729 39.6231 247.729 39.6231C247.729 39.7302 242.537 80.6617 241.986 85.2002Z" fill="#3E634C"/>
<path fill-rule="evenodd" clip-rule="evenodd" d="M344.222 87.7002C356.415 87.7002 374.86 87.1664 378.192 64.1346C381.426 41.1039 368.501 38.7627 350.268 38.7627C329.735 38.7627 318.48 41.852 316.084 60.7265C313.271 82.7968 320.978 87.7002 344.222 87.7002ZM344.222 79.7045C335.36 79.7045 330.881 77.4683 333.384 61.3651C335.36 48.6765 340.572 46.7565 349.014 46.7565C357.87 46.7565 363.712 49.8471 361.625 62.5357C358.812 79.4895 353.81 79.7045 344.222 79.7045Z" fill="#3E634C"/>
<path d="M234.73 30.0606C234.73 30.0606 230.214 14.3049 256.501 16.1503C256.501 16.1503 251.236 18.1501 249.05 29.2224C249.05 29.2224 245.408 39.7203 235.942 33.4331C235.942 33.4331 235.085 31.543 234.73 30.0606Z" fill="#55B947"/>
<path d="M254.702 16.0889C254.702 16.0889 246.015 19.4128 241.919 22.7349C241.919 22.7349 241.456 19.4396 244.768 16.6149L243.853 16.8265C243.853 16.8265 240.941 19.0337 241.301 23.1752C241.301 23.1752 234.914 28.3167 236.017 33.5161L236.633 33.8963C236.633 33.8963 235.15 29.7897 240.171 25.0115C240.171 25.0115 243.752 29.1005 248.592 27.7417L248.752 27.1003C248.752 27.1003 244.298 28.5739 240.626 24.5636C240.626 24.5636 244.784 20.705 254.774 16.5904L255.532 16.1408L254.702 16.0889Z" fill="white"/>
<path fill-rule="evenodd" clip-rule="evenodd" d="M387.324 41.1166C388.927 41.1166 390.294 40.5501 391.423 39.4163C392.553 38.283 393.119 36.9163 393.119 35.3157C393.119 33.7205 392.553 32.3613 391.423 31.2383C390.294 30.1152 388.927 29.5537 387.324 29.5537C385.731 29.5537 384.372 30.1152 383.247 31.2383C382.116 32.3662 381.551 33.7253 381.551 35.3157C381.551 36.9212 382.111 38.2884 383.232 39.4163C384.355 40.5501 385.721 41.1166 387.324 41.1166ZM383.807 31.8047C382.84 32.7756 382.356 33.9483 382.356 35.3233C382.356 36.7089 382.837 37.8893 383.799 38.8657C384.765 39.8414 385.94 40.3299 387.324 40.3299C388.706 40.3299 389.88 39.8414 390.847 38.8657C391.814 37.8893 392.298 36.7089 392.298 35.3233C392.298 33.9483 391.814 32.7756 390.847 31.8047C389.875 30.8289 388.701 30.3405 387.324 30.3405C385.95 30.3405 384.779 30.8289 383.807 31.8047ZM388.947 32.3559C388.579 32.2037 388 32.1274 387.212 32.1274H384.99V38.472H386.109V35.9769H386.991C387.585 35.9769 388 36.0445 388.237 36.1809C388.637 36.416 388.837 36.9001 388.837 37.6326V38.1347L388.859 38.3382C388.866 38.3648 388.871 38.3881 388.876 38.4092C388.881 38.4303 388.886 38.4509 388.891 38.472H389.941L389.9 38.3935C389.875 38.3409 389.857 38.231 389.845 38.0631C389.836 37.8954 389.83 37.7383 389.83 37.5915V37.1276C389.83 36.8075 389.715 36.4804 389.485 36.1446C389.254 35.809 388.891 35.6021 388.394 35.5236C388.787 35.4603 389.092 35.3579 389.313 35.216C389.727 34.948 389.933 34.5305 389.933 33.9635C389.933 33.1648 389.603 32.6294 388.947 32.3559ZM388.422 33.127C388.14 32.9699 387.688 32.8908 387.065 32.8908H386.109V35.1895H387.121C387.595 35.1895 387.951 35.1424 388.189 35.0476C388.626 34.8749 388.844 34.544 388.844 34.0562C388.844 33.5943 388.704 33.2845 388.422 33.127Z" fill="#3E634C"/>
</g>
<defs>
<clipPath id="clip0_220_1411">
<rect width="214.311" height="80.9994" fill="white" transform="translate(179 16)"/>
</clipPath>
</defs>
</svg>
