<svg width="100" height="38" viewBox="0 0 100 38" fill="none" xmlns="http://www.w3.org/2000/svg">
<g clip-path="url(#clip0_55_36773)">
<path d="M21.342 4.15356C21.7328 4.15356 22.515 5.10891 22.4456 5.95996C22.3705 6.85887 21.7539 7.65375 21.2477 7.65375C21.0135 7.65375 20.1076 7.69708 15.0806 7.69708C14.6517 11.2895 12.3902 30.4425 12.3128 30.8397C12.2338 31.5479 10.8704 32.3481 8.64811 32.3936C6.97147 32.4375 4.98479 31.7718 5.10046 31.0181C5.17783 30.4425 7.51733 11.5121 8.02488 7.69708H1.37137C0.90448 7.69708 0 7.00196 0 5.97119C0 5.0343 0.716452 4.15356 1.18202 4.15356H21.342Z" fill="#3E634C"/>
<path d="M58.8875 10.5752H47.6824C40.9081 10.5752 35.7713 12.2124 34.6646 19.4182C33.5564 26.5805 37.0109 29.4091 43.0334 29.4091H48.5231L49.0937 26.3135H44.9822C42.7235 26.3135 41.2179 24.5924 42.0151 19.5051C42.8114 14.4668 45.2028 14.1121 46.1782 14.1121H53.9275C52.866 21.4526 52.1116 26.3135 52.1116 26.3135H52.1051L51.5626 29.4091H51.5797C50.9583 33.0797 49.2772 34.1833 47.8603 34.1833H36.4803C36.4803 34.1833 36.3045 34.1833 36.0825 34.3175C35.6407 34.8471 35.4157 35.5533 35.4157 36.2614C35.4157 36.6146 35.4612 36.969 35.5498 37.2783C43.7864 37.3208 49.5857 37.3208 49.5857 37.3208C55.388 37.3208 58.2664 33.4312 58.8875 29.4091C59.196 27.5086 61.1007 14.7744 61.2775 13.6713C61.5875 11.7692 60.8787 10.5752 58.8875 10.5752Z" fill="#3E634C"/>
<path d="M29.3903 32.29C29.3903 32.29 29.3483 32.4915 29.2633 32.5429C28.287 32.9936 27.181 33.2468 25.8641 33.2468C24.5888 33.2468 23.4403 32.9936 22.5047 32.5429C22.4624 32.5429 22.3779 32.4401 22.3779 32.3414C25.0557 11.1222 25.0557 11.0232 25.0557 11.0232C25.0557 11.0232 25.0982 10.8709 25.1841 10.8214C26.1606 10.3165 27.3093 10.064 28.5833 10.064C29.9013 10.064 31.0075 10.3165 31.9838 10.8214C32.07 10.8709 32.07 11.0232 32.07 11.0232C32.07 11.0732 29.6473 30.1723 29.3903 32.29Z" fill="#3E634C"/>
<path fill-rule="evenodd" clip-rule="evenodd" d="M77.0945 33.4561C82.784 33.4561 91.3903 33.2071 92.9454 22.4602C94.4541 11.7138 88.4234 10.6213 79.9155 10.6213C70.3345 10.6213 65.0828 12.0628 63.965 20.8699C62.6522 31.1682 66.2487 33.4561 77.0945 33.4561ZM77.0945 29.7253C72.9595 29.7253 70.8692 28.6818 72.0376 21.1679C72.9595 15.2472 75.3914 14.3513 79.3305 14.3513C83.4628 14.3513 86.1887 15.7935 85.2147 21.7141C83.9021 29.625 81.5683 29.7253 77.0945 29.7253Z" fill="#3E634C"/>
<path d="M26.004 6.56134C26.004 6.56134 23.8969 -0.790488 36.1627 0.0706326C36.1627 0.0706326 33.7061 1.00374 32.6861 6.1702C32.6861 6.1702 30.9866 11.0687 26.5697 8.13498C26.5697 8.13498 26.1698 7.25303 26.004 6.56134Z" fill="#55B947"/>
<path d="M35.3233 0.0410156C35.3233 0.0410156 31.2701 1.59199 29.3587 3.14214C29.3587 3.14214 29.1427 1.60451 30.6882 0.28645L30.2613 0.385222C30.2613 0.385222 28.9024 1.41512 29.0703 3.34758C29.0703 3.34758 26.0899 5.74668 26.6047 8.17278L26.8921 8.35018C26.8921 8.35018 26.2002 6.434 28.5431 4.20442C28.5431 4.20442 30.2142 6.11238 32.4722 5.47839L32.5473 5.17908C32.5473 5.17908 30.4688 5.86667 28.7554 3.99544C28.7554 3.99544 30.6954 2.19496 35.3571 0.275021L35.7106 0.0652325L35.3233 0.0410156Z" fill="white"/>
<path fill-rule="evenodd" clip-rule="evenodd" d="M97.2064 11.7199C97.9544 11.7199 98.5922 11.4555 99.119 10.9265C99.6466 10.3977 99.9103 9.75994 99.9103 9.01308C99.9103 8.26875 99.6466 7.63453 99.119 7.1105C98.5922 6.58648 97.9544 6.32446 97.2064 6.32446C96.4631 6.32446 95.8292 6.58648 95.304 7.1105C94.7765 7.6368 94.5127 8.27096 94.5127 9.01308C94.5127 9.76222 94.7741 10.4002 95.2969 10.9265C95.8214 11.4555 96.4584 11.7199 97.2064 11.7199ZM95.5654 7.37479C95.1143 7.82782 94.8883 8.37505 94.8883 9.01663C94.8883 9.66316 95.1127 10.214 95.5615 10.6695C96.0127 11.1248 96.5607 11.3528 97.2064 11.3528C97.8513 11.3528 98.3993 11.1248 98.8505 10.6695C99.3017 10.214 99.5277 9.66316 99.5277 9.01663C99.5277 8.37505 99.3017 7.82782 98.8505 7.37479C98.3969 6.91949 97.8489 6.69158 97.2064 6.69158C96.5655 6.69158 96.019 6.91949 95.5654 7.37479ZM97.9639 7.632C97.7922 7.561 97.5221 7.52538 97.1544 7.52538H96.1174V10.4858H96.6395V9.32159H97.0513C97.3284 9.32159 97.5221 9.35316 97.6324 9.41679C97.819 9.52647 97.9127 9.75238 97.9127 10.0942V10.3284L97.9229 10.4234C97.9261 10.4358 97.9284 10.4467 97.9308 10.4565C97.9332 10.4664 97.9355 10.476 97.9379 10.4858H98.4277L98.4088 10.4492C98.3969 10.4247 98.3883 10.3734 98.3828 10.2951C98.3788 10.2168 98.3757 10.1435 98.3757 10.075V9.85852C98.3757 9.70915 98.3221 9.55655 98.2151 9.39986C98.1072 9.24324 97.9379 9.14671 97.7056 9.11009C97.8891 9.08057 98.0316 9.03277 98.1347 8.96655C98.3277 8.84151 98.4237 8.64671 98.4237 8.38214C98.4237 8.00946 98.2702 7.7596 97.9639 7.632ZM97.719 7.99182C97.5875 7.91852 97.3765 7.88159 97.0859 7.88159H96.6395V8.95419H97.1119C97.3332 8.95419 97.4993 8.93222 97.6103 8.88797C97.8143 8.80742 97.9158 8.65301 97.9158 8.42537C97.9158 8.20986 97.8505 8.06529 97.719 7.99182Z" fill="#3E634C"/>
</g>
<defs>
<clipPath id="clip0_55_36773">
<rect width="100" height="37.7953" fill="white"/>
</clipPath>
</defs>
</svg>
