<svg width="141" height="87" viewBox="0 0 141 87" fill="none" xmlns="http://www.w3.org/2000/svg">
<path d="M138.114 0.0702167C137.102 0.396392 133.496 3.49209 131.146 6.05999C129.789 7.5426 128.034 9.74873 127.772 10.2943C127.641 10.5726 127.569 10.8748 127.561 11.1821C127.553 11.4894 127.609 11.795 127.725 12.0797C127.842 12.3644 128.016 12.6221 128.237 12.8363C128.458 13.0506 128.721 13.2169 129.01 13.3248C129.474 13.5027 130.117 13.5086 130.581 13.3307C131.057 13.1469 131.36 12.8563 132.14 11.8244C134.199 9.09638 136.971 6.32686 139.667 4.3105C140.75 3.50396 141.023 3.02952 140.982 2.06285C140.962 1.64723 140.823 1.24599 140.581 0.906551C140.34 0.567109 140.006 0.303651 139.619 0.147313C139.197 -0.0128098 138.495 -0.0483926 138.114 0.0702167Z" fill="#FBF950"/>
<path d="M124.821 15.9283C124.19 16.1418 123.869 16.4561 123.28 17.4168C122.281 19.0596 121.102 21.9655 119.877 25.8381C118.895 28.9279 118.163 31.472 116.116 38.8851C112.957 50.3309 111.463 55.1049 109.803 59.0961C108.762 61.5988 107.578 63.6507 106.798 64.2912L106.584 64.4632L106.376 64.3564C105.775 64.0303 104.96 62.7256 104.317 61.065C103.46 58.8589 102.895 56.7714 101.479 50.5978C99.7713 43.161 98.8966 40.2432 97.5697 37.6278C96.231 34.9769 94.7137 33.5299 92.7026 32.9784C92.3753 32.8894 92.0897 32.8657 91.3638 32.8657C90.5605 32.8657 90.382 32.8835 89.9953 33.0021C87.7699 33.6959 86.0503 35.7716 84.5628 39.5375C83.6168 41.9334 82.9622 44.1573 81.3974 50.2716C80.2133 54.8974 79.7254 56.6468 79.1006 58.5149C78.2141 61.1837 77.2263 63.1466 76.3933 63.9057C76.0125 64.2556 75.834 64.3209 75.6317 64.1904C75.364 64.0125 74.8761 63.283 74.4358 62.3994C73.692 60.8931 73.2814 59.7544 71.9367 55.4608C70.9966 52.4481 70.5503 51.1256 70.0208 49.7972C68.3904 45.6814 66.5162 43.7659 64.0231 43.6473C63.4876 43.6235 63.2734 43.6413 62.8509 43.7422C61.8691 43.9734 61.0302 44.4538 60.2567 45.2248C59.3701 46.1143 58.7215 47.0751 57.9242 48.7C57.0734 50.4258 56.5795 51.7127 55.086 56.0835C53.6104 60.3949 52.9797 61.9724 52.224 63.2297C51.9206 63.7337 51.5576 64.2082 51.4684 64.2082C51.3494 64.2082 50.9269 63.716 50.5223 63.0933C49.8321 62.0436 49.2847 60.9346 47.8864 57.744C46.5655 54.7372 45.5183 52.7327 44.6258 51.5289C43.8641 50.497 42.7277 49.5362 41.853 49.1923C40.5916 48.6882 39.4194 48.7534 38.3186 49.3939C37.682 49.7675 36.7597 50.7223 36.135 51.6653C35.2662 52.97 34.7902 53.8951 33.2016 57.3288C32.0413 59.8434 31.1428 61.6462 30.6609 62.4468C30.2682 63.0933 29.7148 63.8524 29.6256 63.8524C29.572 63.8524 28.9115 62.8976 28.5902 62.3401C28.5129 62.2096 27.906 61.0413 27.2455 59.7366C26.5851 58.4319 25.8294 57.0323 25.5795 56.6172C24.086 54.1205 22.6401 52.9996 20.9146 52.9996C19.5639 52.9996 18.2549 53.7113 17.2612 54.9804C16.3925 56.0835 15.8689 57.1272 14.5182 60.4423C13.7923 62.2274 12.9772 63.8524 12.8165 63.8524C12.7332 63.8524 12.2572 62.8205 11.8407 61.747C10.6745 58.7344 10.2996 57.9041 9.69866 57.0027C8.61575 55.3777 7.26507 54.5949 5.65855 54.672C4.67678 54.7254 3.84376 55.099 2.86795 55.9352C1.96948 56.7062 0.60691 58.4141 0.184453 59.2859C0.0178503 59.6299 0 59.7248 0 60.2051C0.0059501 60.6084 0.0357006 60.816 0.136852 61.065C0.343611 61.5614 0.724212 61.9661 1.20787 62.2037C1.57678 62.3875 1.64818 62.3994 2.20154 62.3994C2.7192 62.3994 2.8382 62.3816 3.1238 62.2452C3.57006 62.0376 3.83781 61.7945 4.17102 61.2845C4.55711 60.6928 4.99092 60.1335 5.46814 59.6121L5.80135 59.2562L5.9263 59.4045C6.13455 59.6477 6.65221 60.7389 7.08062 61.836C8.06239 64.3624 8.27064 64.8665 8.55029 65.4239C9.43686 67.1853 10.4008 68.1223 11.7217 68.5137C12.2037 68.662 13.1914 68.662 13.7031 68.5196C14.8396 68.2113 15.857 67.3988 16.7019 66.1356C17.2136 65.3646 18.011 63.716 18.8023 61.7767C19.5401 59.962 20.385 58.2006 20.6766 57.8626L20.8551 57.655L21.0574 57.8922C21.4382 58.3252 22.1165 59.529 23.3244 61.8834C24.5977 64.3802 24.9071 64.9317 25.5795 65.928C26.0614 66.6397 26.9599 67.5767 27.4835 67.9147C28.2451 68.407 29.1852 68.6382 30.0064 68.5374C31.7378 68.318 33.154 67.0667 34.7069 64.3861L35.0639 63.7634L37.7653 63.7337C40.4071 63.7041 40.4666 63.6982 40.8058 63.5618C41.2461 63.3898 41.8054 62.8798 42.0018 62.4706C42.6563 61.1184 41.8649 59.5706 40.3714 59.2859C40.1989 59.2562 39.4313 59.2266 38.6697 59.2266C37.9081 59.2266 37.2774 59.2088 37.2774 59.191C37.2774 59.1376 38.271 57.0145 38.634 56.291C39.235 55.0931 40.1275 53.6164 40.3238 53.4978C40.425 53.4325 40.8415 53.8951 41.2937 54.5712C42.0256 55.6624 42.5551 56.7358 44.0426 60.1162C44.9411 62.1562 45.6908 63.716 46.1966 64.5937C47.333 66.5566 48.4041 67.719 49.6238 68.3002C50.445 68.6975 51.2661 68.8399 52.0336 68.7213C54.3185 68.3654 55.9309 66.4855 57.6208 62.2215C58.1325 60.9405 58.5133 59.873 59.501 56.973C60.9945 52.5904 61.8156 50.6215 62.7379 49.2338C63.0651 48.7297 63.672 48.0773 63.8089 48.0773C63.9279 48.0773 64.2789 48.4391 64.5705 48.8601C65.4452 50.1233 66.2246 52.1278 67.7121 56.9137C68.9676 60.9702 69.6935 62.9509 70.4849 64.5106C71.5262 66.5626 72.7043 67.8317 74.0906 68.401C75.2628 68.8814 76.8039 68.7984 78.0058 68.1935C79.4457 67.4699 80.7667 65.928 81.8377 63.7041C83.0693 61.1659 83.9262 58.4378 85.8004 51.1019C87.2642 45.3671 87.9008 43.2025 88.7517 41.0794C89.5133 39.1935 90.4534 37.6871 91.0782 37.3669C92.1135 36.8332 93.5653 38.9088 94.8505 42.7814C95.4872 44.691 96.0049 46.7074 97.1949 51.9084C98.849 59.1139 99.6642 61.8657 100.866 64.3149C102.336 67.298 104.353 68.8992 106.638 68.8932C109.458 68.8873 111.743 66.2542 114.165 60.2348C115.842 56.0657 117.378 51.1078 120.49 39.834C122.643 32.0176 123.465 29.2007 124.458 26.1939C125.547 22.8966 126.463 20.6964 127.255 19.4866C127.612 18.9291 127.725 18.6444 127.761 18.17C127.792 17.6841 127.662 17.2014 127.391 16.7963C127.12 16.3912 126.723 16.0862 126.261 15.9283C125.851 15.786 125.238 15.786 124.821 15.9283Z" fill="#FBF950"/>
<path d="M3.15352 86.8869C3.01144 86.8886 2.87336 86.8401 2.76379 86.75C2.64907 86.6548 2.56607 86.5272 2.52578 86.384L0.0576807 78.2125C-0.0226457 77.9379 -0.0226457 77.7321 0.080291 77.5726C0.172518 77.4124 0.332575 77.3353 0.539044 77.3353C0.674166 77.3326 0.80668 77.3726 0.91747 77.4498C1.03923 77.5382 1.12398 77.6683 1.15547 77.8151L3.29751 85.2786H3.02738L5.01114 77.8952C5.04381 77.7693 5.12146 77.6596 5.22951 77.5868C5.34257 77.5044 5.47918 77.4603 5.61924 77.4611C5.75204 77.4629 5.88222 77.4982 5.99766 77.5637C6.05481 77.5971 6.10457 77.6417 6.14395 77.6948C6.18332 77.7479 6.21148 77.8084 6.22674 77.8726L8.22241 85.2673H7.98143L10.1371 77.7469C10.2175 77.4723 10.4239 77.3353 10.7679 77.3353C10.9969 77.3353 11.1463 77.4267 11.2153 77.5981C11.2843 77.7694 11.2837 77.9752 11.2153 78.2154L8.74959 86.3757C8.70028 86.5214 8.61325 86.6515 8.4973 86.7529C8.38772 86.8431 8.24964 86.8916 8.10757 86.8899C7.95935 86.895 7.81509 86.8417 7.70594 86.7416C7.59641 86.6461 7.51428 86.5233 7.46793 86.3858L5.4931 78.7723H5.7906L3.79553 86.3633C3.74553 86.5086 3.65861 86.6386 3.54325 86.7405C3.43727 86.8377 3.29756 86.8903 3.15352 86.8869Z" fill="#FBF950"/>
<path d="M15.3202 86.887C15.2136 86.8892 15.1084 86.8628 15.0156 86.8107C14.9227 86.7585 14.8457 86.6825 14.7924 86.5905C14.6663 86.3965 14.6549 86.1907 14.7585 85.9618L18.2095 77.7559C18.3357 77.47 18.5302 77.333 18.8045 77.333C19.1021 77.333 19.2972 77.47 19.3996 77.7559L22.8625 85.985C22.9541 86.2133 22.9428 86.4191 22.8167 86.6023C22.7019 86.785 22.5192 86.8763 22.2776 86.8763C22.1552 86.8773 22.0354 86.8416 21.9337 86.7737C21.8217 86.7102 21.7362 86.6088 21.6927 86.4879L18.654 78.9562H18.9979L15.9039 86.4879C15.8526 86.6103 15.7645 86.714 15.6516 86.7844C15.5531 86.8491 15.4382 86.8847 15.3202 86.887ZM15.9622 84.784L16.4554 83.7326H21.2602L21.7534 84.784H15.9622Z" fill="#FBF950"/>
<path d="M28.0255 86.8868C27.9406 86.8888 27.8562 86.8736 27.7774 86.8422C27.6986 86.8108 27.627 86.7637 27.567 86.7039C27.507 86.6441 27.4597 86.5727 27.4282 86.4941C27.3966 86.4156 27.3814 86.3315 27.3835 86.2469V77.9721C27.3795 77.8872 27.3938 77.8024 27.4255 77.7236C27.4572 77.6447 27.5056 77.5735 27.5673 77.5149C27.6907 77.3974 27.8549 77.3319 28.0255 77.3322C28.1422 77.3302 28.2571 77.3614 28.3566 77.4221C28.4562 77.4828 28.5364 77.5705 28.5878 77.675L32.4292 85.3443H32.0394L35.7773 77.675C35.8241 77.5865 35.891 77.5101 35.9726 77.452C36.0543 77.3938 36.1484 77.3554 36.2475 77.3398C36.3467 77.3243 36.4481 77.332 36.5437 77.3624C36.6393 77.3928 36.7265 77.445 36.7983 77.5149C36.8599 77.5735 36.9082 77.6447 36.9398 77.7236C36.9714 77.8025 36.9857 77.8873 36.9816 77.9721V86.2469C36.9824 86.3324 36.9654 86.4171 36.9318 86.4958C36.8983 86.5745 36.8488 86.6454 36.7864 86.7041C36.7285 86.7635 36.6589 86.8104 36.5821 86.8418C36.5052 86.8732 36.4226 86.8885 36.3396 86.8868C36.2546 86.8889 36.1702 86.8738 36.0913 86.8424C36.0124 86.811 35.9408 86.7639 35.8807 86.7041C35.8206 86.6443 35.7733 86.5729 35.7417 86.4943C35.7101 86.4157 35.6949 86.3315 35.697 86.2469V79.7323L35.935 79.673L32.7219 86.1965C32.5845 86.4135 32.4006 86.5167 32.1715 86.5167C32.0466 86.5231 31.9229 86.4901 31.8179 86.4224C31.7129 86.3546 31.632 86.2557 31.5866 86.1395L28.4105 79.7939L28.6485 79.7346V86.2493C28.6514 86.334 28.6367 86.4184 28.6051 86.4971C28.5736 86.5758 28.5259 86.6471 28.4652 86.7065C28.3465 86.8194 28.1896 86.8837 28.0255 86.8868Z" fill="#FBF950"/>
<path d="M43.1398 86.8868C43.0549 86.8889 42.9704 86.8738 42.8916 86.8424C42.8127 86.811 42.7411 86.7639 42.6811 86.7041C42.621 86.6442 42.5738 86.5729 42.5423 86.4943C42.5108 86.4157 42.4956 86.3315 42.4978 86.2469V77.9721C42.4937 77.8873 42.5079 77.8025 42.5395 77.7237C42.5711 77.6448 42.6194 77.5736 42.681 77.5149C42.8046 77.3974 42.969 77.3319 43.1398 77.3322C43.2249 77.3281 43.3099 77.3423 43.3891 77.3739C43.4682 77.4054 43.5396 77.4535 43.5985 77.5149C43.6579 77.5752 43.7047 77.6467 43.7362 77.7252C43.7676 77.8037 43.7831 77.8876 43.7818 77.9721V86.2469C43.7843 86.3314 43.7691 86.4156 43.7372 86.494C43.7054 86.5724 43.6575 86.6433 43.5967 86.7024C43.5373 86.7626 43.466 86.81 43.3874 86.8417C43.3088 86.8735 43.2245 86.8888 43.1398 86.8868Z" fill="#FBF950"/>
<path d="M52.348 86.999C51.8376 87.0021 51.3301 86.9219 50.8456 86.7617C50.3932 86.6121 49.9728 86.3793 49.6062 86.0756C49.2696 85.805 49.0055 85.4556 48.8375 85.0585C48.7967 84.9845 48.7764 84.9011 48.7785 84.8167C48.7806 84.7323 48.805 84.65 48.8494 84.5781C48.941 84.4299 49.0785 84.3409 49.2849 84.2929C49.4335 84.2592 49.5894 84.2836 49.7205 84.3611C49.8605 84.4396 49.9727 84.5593 50.0418 84.7039C50.1585 84.924 50.3229 85.1154 50.5231 85.2643C50.7695 85.4461 51.0449 85.5853 51.3377 85.6759C51.6644 85.7817 52.0057 85.8356 52.3492 85.8354C52.7203 85.8409 53.0893 85.779 53.4381 85.6527C53.7476 85.5455 54.0241 85.3604 54.2408 85.1154C54.4501 84.8797 54.561 84.5731 54.5508 84.2585C54.5508 83.8244 54.3788 83.4353 54.0462 83.0926C53.7023 82.7498 53.1537 82.544 52.3718 82.4527C51.3603 82.3495 50.56 82.0523 49.9751 81.5631C49.3902 81.0602 49.104 80.4541 49.104 79.7116C49.104 79.1743 49.2528 78.7171 49.5622 78.3399C49.8601 77.9627 50.273 77.6771 50.801 77.4829C51.3555 77.2807 51.9421 77.1803 52.5325 77.1864C52.9775 77.1784 53.4205 77.2481 53.8415 77.3922C54.1981 77.5231 54.5282 77.7168 54.8161 77.9639C55.0986 78.2164 55.342 78.5092 55.5385 78.8327C55.6533 79.0154 55.6991 79.1755 55.6759 79.3356C55.6664 79.412 55.6401 79.4854 55.599 79.5506C55.5579 79.6157 55.5029 79.6711 55.4379 79.7128C55.3644 79.7614 55.2804 79.7922 55.1927 79.8025C55.1051 79.8128 55.0162 79.8024 54.9334 79.7721C54.8484 79.7481 54.7691 79.7074 54.7001 79.6524C54.6311 79.5974 54.5739 79.5292 54.5317 79.4518C54.413 79.2239 54.2493 79.0221 54.0504 78.8588C53.8515 78.6939 53.6267 78.5626 53.3851 78.4703C53.0978 78.3735 52.7958 78.3272 52.4926 78.3334C51.8845 78.3215 51.38 78.436 50.9676 78.6649C50.5553 78.8938 50.3595 79.2579 50.3595 79.7389C50.3628 79.9888 50.43 80.2337 50.5547 80.4505C50.6808 80.6789 50.9117 80.8734 51.2538 81.0335C51.5959 81.1936 52.0797 81.3075 52.7217 81.3763C53.6963 81.4795 54.4532 81.7647 54.9923 82.2658C55.5313 82.7575 55.8062 83.4086 55.8062 84.2229C55.8062 84.6914 55.7146 85.0911 55.52 85.4345C55.3305 85.7733 55.068 86.066 54.7513 86.2914C54.4176 86.5261 54.045 86.7002 53.6505 86.8056C53.2306 86.9438 52.7901 87.0092 52.348 86.999Z" fill="#FBF950"/>
<path d="M65.2362 86.9988C64.5613 87.0055 63.8916 86.8812 63.2644 86.6329C62.6862 86.405 62.1626 86.0584 61.7274 85.6158C61.2902 85.1723 60.9504 84.643 60.7296 84.0614C60.4916 83.4684 60.3726 82.8042 60.3726 82.0842C60.3629 81.4121 60.4842 80.7444 60.7296 80.1183C60.9578 79.5442 61.2968 79.0203 61.7274 78.5764C62.1627 78.1337 62.6863 77.787 63.2644 77.5587C64.5337 77.0716 65.9393 77.0716 67.2087 77.5587C67.7854 77.7904 68.3087 78.137 68.7464 78.5772C69.1842 79.0174 69.5273 79.542 69.7547 80.1189C69.9992 80.7453 70.1204 81.4127 70.1117 82.0848C70.1203 82.7606 69.9992 83.4317 69.7547 84.062C69.5301 84.6419 69.1882 85.1694 68.7502 85.6118C68.3121 86.0542 67.7874 86.402 67.2087 86.6335C66.6125 86.8867 65.9586 86.9988 65.2362 86.9988ZM65.2362 85.856C65.7401 85.8631 66.2399 85.7657 66.7041 85.5702C67.1415 85.3861 67.536 85.1137 67.8626 84.7701C68.1911 84.4286 68.4484 84.0254 68.6194 83.584C68.7959 83.1125 68.8852 82.613 68.883 82.1097C68.8863 81.6064 68.7969 81.1067 68.6194 80.6354C68.4555 80.1905 68.1974 79.7859 67.8626 79.4493C67.5363 79.1083 67.1415 78.8395 66.7041 78.6606C66.2382 78.4708 65.7395 78.3739 65.2362 78.3753C64.7326 78.3684 64.233 78.4655 63.7689 78.6606C63.3315 78.8395 62.9368 79.1083 62.6104 79.4493C62.2855 79.7937 62.0287 80.1961 61.8536 80.6354C61.4871 81.5843 61.4871 82.6351 61.8536 83.584C62.026 84.0248 62.2831 84.4277 62.6104 84.7701C62.936 85.1154 63.3299 85.3896 63.7671 85.5755C64.2336 85.7646 64.7327 85.8607 65.2362 85.8584V85.856Z" fill="#FBF950"/>
<path d="M75.0411 86.8869C74.9562 86.889 74.8718 86.8739 74.793 86.8425C74.7141 86.8111 74.6425 86.7641 74.5824 86.7042C74.5224 86.6444 74.4752 86.573 74.4437 86.4944C74.4121 86.4158 74.397 86.3316 74.3991 86.247V77.9723C74.395 77.8874 74.4093 77.8027 74.4409 77.7238C74.4725 77.6449 74.5208 77.5737 74.5824 77.515C74.706 77.3975 74.8703 77.332 75.0411 77.3324H80.5914C80.7589 77.3272 80.9224 77.3842 81.0501 77.4925C81.1075 77.5489 81.1525 77.6167 81.1821 77.6915C81.2117 77.7662 81.2253 77.8463 81.2221 77.9266C81.2253 78.0035 81.2115 78.0802 81.1818 78.1513C81.1521 78.2224 81.1072 78.2862 81.0501 78.3382C80.9233 78.4479 80.7592 78.5052 80.5914 78.4983H75.6832V81.4694H79.2038C79.3713 81.4646 79.5347 81.5216 79.6626 81.6296C79.7729 81.7429 79.8345 81.8945 79.8345 82.0524C79.8345 82.2103 79.7729 82.3619 79.6626 82.4752C79.5477 82.5897 79.3984 82.6354 79.2038 82.6354H75.6832V86.2358C75.686 86.3205 75.6712 86.4048 75.6397 86.4836C75.6081 86.5623 75.5605 86.6336 75.4999 86.693C75.4409 86.755 75.3697 86.8042 75.2908 86.8376C75.2119 86.871 75.1269 86.8878 75.0411 86.8869Z" fill="#FBF950"/>
<path d="M85.4639 78.5097C85.3071 78.5129 85.155 78.4556 85.0397 78.3496C84.9254 78.247 84.879 78.0981 84.879 77.9268C84.8761 77.7705 84.9336 77.6191 85.0397 77.5039C85.0953 77.4493 85.1618 77.4068 85.2348 77.3792C85.3079 77.3516 85.3859 77.3396 85.4639 77.3438H92.0233C92.1801 77.3409 92.332 77.3982 92.4475 77.5039C92.5024 77.5594 92.545 77.6256 92.5727 77.6984C92.6003 77.7712 92.6124 77.849 92.6082 77.9268C92.6111 78.083 92.5536 78.2344 92.4475 78.3496C92.3446 78.4641 92.1953 78.5097 92.0233 78.5097H85.4639ZM88.7436 86.8871C88.6587 86.8892 88.5743 86.8741 88.4954 86.8427C88.4166 86.8113 88.345 86.7642 88.2849 86.7044C88.2249 86.6445 88.1776 86.5731 88.1461 86.4945C88.1146 86.416 88.0995 86.3318 88.1016 86.2472V77.3325H89.3743V86.2472C89.3765 86.3309 89.3617 86.4141 89.3309 86.492C89.3001 86.5698 89.2539 86.6407 89.1951 86.7004C89.1363 86.7601 89.066 86.8074 88.9884 86.8395C88.9108 86.8716 88.8276 86.8878 88.7436 86.8871Z" fill="#FBF950"/>
<path d="M99.1331 86.8869C98.9908 86.8887 98.8525 86.8402 98.7428 86.7499C98.6282 86.6547 98.5452 86.5271 98.5048 86.384L96.0391 78.2124C95.9587 77.9379 95.9587 77.7321 96.0623 77.5725C96.1539 77.4124 96.3146 77.3353 96.521 77.3353C96.6561 77.3327 96.7886 77.3728 96.8994 77.4498C97.0211 77.5383 97.1058 77.6683 97.1375 77.8151L99.2795 85.2786H99.0046L100.988 77.8952C101.021 77.7694 101.098 77.6597 101.206 77.5868C101.319 77.5047 101.456 77.4607 101.596 77.4611C101.729 77.4629 101.859 77.4982 101.974 77.5636C102.032 77.597 102.081 77.6416 102.121 77.6947C102.16 77.7478 102.189 77.8083 102.204 77.8726L104.199 85.2673H103.961L106.117 77.7469C106.197 77.4723 106.404 77.3353 106.747 77.3353C106.977 77.3353 107.126 77.4266 107.195 77.598C107.264 77.7694 107.264 77.9752 107.195 78.2154L104.729 86.3757C104.68 86.5214 104.593 86.6515 104.477 86.7529C104.367 86.8432 104.229 86.8918 104.087 86.8899C103.939 86.8951 103.795 86.8418 103.686 86.7416C103.575 86.6466 103.492 86.5237 103.445 86.3858L101.473 78.7741H101.77L99.7751 86.365C99.7257 86.5106 99.6387 86.6407 99.5229 86.7422C99.4166 86.8389 99.2769 86.8907 99.1331 86.8869Z" fill="#FBF950"/>
<path d="M111.289 86.887C111.182 86.8891 111.077 86.8627 110.984 86.8105C110.892 86.7584 110.815 86.6824 110.761 86.5905C110.635 86.3965 110.623 86.1907 110.727 85.9618L114.178 77.7559C114.304 77.47 114.499 77.333 114.773 77.333C115.071 77.333 115.266 77.47 115.368 77.7559L118.831 85.985C118.923 86.2133 118.911 86.4191 118.785 86.6023C118.67 86.785 118.488 86.8763 118.246 86.8763C118.124 86.8774 118.004 86.8416 117.902 86.7737C117.791 86.7097 117.707 86.6083 117.664 86.4879L114.625 78.9562H114.969L111.875 86.4879C111.824 86.6104 111.736 86.714 111.623 86.7844C111.524 86.8512 111.408 86.887 111.289 86.887ZM111.943 84.784L112.436 83.7326H117.241L117.734 84.784H111.943Z" fill="#FBF950"/>
<path d="M124.006 86.8871C123.921 86.8892 123.837 86.8741 123.758 86.8427C123.679 86.8113 123.607 86.7642 123.547 86.7044C123.487 86.6445 123.44 86.5731 123.409 86.4945C123.377 86.416 123.362 86.3318 123.364 86.2472V77.9724C123.36 77.8876 123.374 77.8028 123.406 77.7239C123.437 77.6451 123.486 77.5739 123.547 77.5152C123.671 77.3975 123.835 77.3321 124.006 77.3325H126.219C126.827 77.3325 127.377 77.4583 127.847 77.721C128.312 77.9633 128.697 78.332 128.959 78.7843C129.224 79.2297 129.361 79.7557 129.361 80.3499C129.371 80.8652 129.233 81.3727 128.966 81.8135C128.698 82.2543 128.31 82.6105 127.847 82.8407C127.341 83.0902 126.783 83.2156 126.219 83.2066H124.648V86.2466C124.651 86.3313 124.636 86.4157 124.605 86.4944C124.573 86.5732 124.525 86.6445 124.465 86.7038C124.341 86.8218 124.177 86.8875 124.006 86.8871ZM124.637 82.03H126.208C126.553 82.0392 126.895 81.9647 127.205 81.813C127.482 81.6822 127.716 81.4767 127.882 81.2199C128.044 80.9557 128.127 80.6503 128.12 80.3405C128.127 80.0086 128.045 79.681 127.882 79.3916C127.72 79.1172 127.486 78.8918 127.205 78.7392C126.919 78.5797 126.586 78.5109 126.208 78.5109H124.637L124.637 82.03ZM129.099 86.8871C128.992 86.8889 128.886 86.8655 128.789 86.8189C128.691 86.7644 128.609 86.6855 128.551 86.59L126.338 83.0471L127.576 82.6913L129.583 85.9139C129.732 86.1511 129.755 86.3711 129.643 86.5769C129.533 86.7845 129.35 86.8871 129.1 86.8871H129.099Z" fill="#FBF950"/>
<path d="M134.818 86.8869C134.734 86.889 134.649 86.8739 134.57 86.8425C134.491 86.8111 134.42 86.7641 134.36 86.7042C134.3 86.6444 134.253 86.573 134.221 86.4944C134.189 86.4158 134.174 86.3316 134.176 86.247V77.9723C134.172 77.8874 134.187 77.8027 134.218 77.7238C134.25 77.6449 134.298 77.5737 134.36 77.515C134.483 77.3975 134.648 77.332 134.818 77.3324H140.369C140.536 77.3272 140.7 77.3842 140.827 77.4925C140.885 77.5487 140.93 77.6163 140.959 77.6908C140.989 77.7654 141.003 77.8453 140.999 77.9254C141.003 78.0024 140.989 78.0791 140.959 78.1502C140.93 78.2213 140.885 78.2851 140.827 78.337C140.701 78.4471 140.537 78.5044 140.369 78.4971H135.461V81.4683H138.981C139.149 81.4634 139.312 81.5204 139.44 81.6284C139.55 81.7417 139.612 81.8934 139.612 82.0512C139.612 82.2091 139.55 82.3608 139.44 82.4741C139.325 82.5885 139.176 82.6342 138.981 82.6342H135.461V85.6973H140.369C140.536 85.6921 140.7 85.7492 140.827 85.8574C140.885 85.9093 140.93 85.973 140.959 86.0441C140.989 86.1152 141.003 86.192 140.999 86.269C141.003 86.3493 140.989 86.4294 140.96 86.5041C140.93 86.5789 140.885 86.6467 140.827 86.7031C140.713 86.8175 140.564 86.8632 140.369 86.8632H134.818V86.8869Z" fill="#FBF950"/>
</svg>
