<svg width="200" height="200" viewBox="0 0 200 200" fill="none" xmlns="http://www.w3.org/2000/svg">
<g clip-path="url(#clip0_55_38855)">
<path d="M103.909 43.2381V35.2381H115.338V20H77.2425V35.2381H88.671V43.2381C54.3854 47.0476 27.7188 75.9999 27.7188 111.428C27.7188 149.333 58.3854 180 96.2901 180C134.195 180 164.861 149.333 164.861 111.428C164.861 76.1904 138.195 47.0476 103.909 43.2381ZM96.2901 172.381C62.7663 172.381 35.3378 144.952 35.3378 111.428C35.3378 77.9047 62.7663 50.4762 96.2901 50.4762C129.814 50.4762 157.242 77.9047 157.242 111.428C157.242 144.952 129.814 172.381 96.2901 172.381Z" fill="white"/>
<path fill-rule="evenodd" clip-rule="evenodd" d="M134.148 79.5274C124.766 68.3687 110.904 61.9309 96.2812 61.9309V111.454L134.148 79.5274Z" fill="#FBF950"/>
<path d="M145.432 34.8572L134.385 45.9048C145.432 52.381 154.766 61.7143 161.242 72.7619L172.289 61.7143C165.432 50.8572 156.099 41.7143 145.432 34.8572Z" fill="white"/>
</g>
<defs>
<clipPath id="clip0_55_38855">
<rect width="200" height="200" fill="white"/>
</clipPath>
</defs>
</svg>
