<svg width="200" height="200" viewBox="0 0 200 200" fill="none" xmlns="http://www.w3.org/2000/svg">
<g clip-path="url(#clip0_55_38750)">
<path d="M53.7671 125.816C53.3522 125.195 52.7305 124.573 51.9022 124.573L22.0576 124.572C20.8145 124.572 19.9844 125.4 19.9844 126.645V134.106C19.9844 135.142 20.6061 135.971 21.6428 136.179L33.6633 139.287H48.5855C49.8286 139.287 50.6587 138.459 50.6587 137.214C50.6587 133.898 51.695 130.168 53.5599 128.095C53.9736 127.266 54.1801 126.438 53.7668 125.816L53.7671 125.816ZM46.7195 135.142H34.492L24.1294 132.448V128.718H48.3778C47.5496 130.79 46.9278 132.863 46.7195 135.142Z" fill="white"/>
<path d="M152.211 84.159C152.004 83.3308 151.175 82.7075 150.346 82.7075L135.216 82.709C133.973 82.709 133.143 83.5373 133.143 84.7823V104.056C133.143 105.299 133.971 106.129 135.216 106.129H156.563C157.184 106.129 157.806 105.714 158.221 105.301C158.636 104.679 158.636 104.057 158.428 103.436L152.211 84.159ZM137.289 101.983V86.8537H148.688L153.663 101.983H137.289Z" fill="white"/>
<path d="M178.739 108.615L166.719 102.605L158.429 77.7353L156.15 71.3109C155.943 70.4826 155.113 69.8594 154.285 69.8594L127.755 69.8579C126.511 69.8579 125.682 70.6862 125.682 71.9312V124.573H80.7081C79.8798 124.573 79.2566 124.988 78.8432 125.816C78.4283 126.438 78.6363 127.268 79.0501 127.889C80.7081 130.169 81.9512 133.899 81.9512 137.009C81.9512 137.63 82.1581 138.046 82.573 138.46C82.9879 138.875 83.4013 139.082 84.0245 139.082L132.314 138.254C133.351 138.254 134.387 137.217 134.387 136.18C134.387 128.719 141.02 122.294 149.103 122.294C154.284 122.294 160.087 125.818 162.574 130.377C163.817 132.657 164.438 134.522 164.438 135.973V137.01C164.438 138.254 165.267 139.083 166.511 139.083H177.911C179.154 139.083 179.984 138.255 179.984 137.01L179.981 110.48C179.981 109.651 179.566 109.029 178.738 108.615L178.739 108.615ZM175.838 135.143H168.377C168.17 133.278 167.34 131.205 166.097 128.718C162.989 122.709 155.734 118.356 149.101 118.356C139.567 118.356 131.484 125.402 130.45 134.315L86.0978 135.143C85.8909 133.07 85.2695 130.79 84.4394 128.925H127.755C128.998 128.925 129.828 128.097 129.828 126.852V74.2102H153.04L163.196 104.883C163.403 105.504 163.817 105.919 164.232 106.126L175.838 111.929L175.838 135.143Z" fill="white"/>
<path d="M65.9957 124.366C58.9495 124.366 53.1465 130.169 53.1465 137.215C53.1465 144.261 58.9495 150.064 65.9957 150.064C73.0419 150.064 78.8449 144.261 78.8449 137.215C78.8449 130.169 73.0419 124.366 65.9957 124.366ZM65.9957 145.919C61.2293 145.919 57.2911 141.981 57.2911 137.215C57.2911 132.448 61.2293 128.51 65.9957 128.51C70.7621 128.51 74.7003 132.448 74.7003 137.215C74.7003 141.982 70.7621 145.919 65.9957 145.919Z" fill="white"/>
<path d="M149.103 124.366C142.057 124.366 136.254 130.169 136.254 137.215C136.254 144.261 142.057 150.064 149.103 150.064C156.149 150.064 161.952 144.261 161.952 137.215C161.954 130.169 156.151 124.366 149.103 124.366ZM149.103 145.919C144.337 145.919 140.399 141.981 140.399 137.215C140.399 132.448 144.337 128.51 149.103 128.51C153.87 128.51 157.808 132.448 157.808 137.215C157.808 141.982 153.871 145.919 149.103 145.919Z" fill="white"/>
<path d="M22.0576 121.671H119.88C121.124 121.671 121.954 120.843 121.954 119.598V59.4952C121.954 58.2521 121.125 57.4224 119.88 57.4224L22.0576 57.4238C20.8145 57.4238 19.9844 58.2521 19.9844 59.4967V119.6C19.9844 120.636 21.021 121.671 22.0576 121.671ZM24.1294 61.3613H117.807V117.319H24.1294V61.3613Z" fill="white"/>
<path fill-rule="evenodd" clip-rule="evenodd" d="M47.2702 96.1694V110.822C47.2702 111.399 47.7387 111.866 48.3138 111.866H54.2857C54.8609 111.866 55.3294 111.397 55.3294 110.822C55.3294 110.247 54.8609 109.778 54.2857 109.778H49.3575V99.3861L56.7881 110.838C57.2033 111.478 57.913 111.866 58.6784 111.866H89.6465C91.4346 111.866 92.5105 109.885 91.5365 108.387L78.8668 88.8523C78.4517 88.2122 77.7396 87.825 76.9766 87.825H46.0062C44.2204 87.825 43.1445 89.8055 44.1162 91.3037L47.2702 96.1694ZM55.682 105.3H64.7778L67.7626 109.778H58.6784C58.6204 109.778 58.5692 109.751 58.5391 109.702L55.682 105.3ZM67.2847 105.3L70.272 109.778H79.5116L76.4967 105.3H67.2847ZM86.9051 105.3V105.08L89.7855 109.523C89.8574 109.632 89.7787 109.778 89.6465 109.778H82.0256L79.0129 105.3H86.9051ZM81.7821 97.1852H73.5513L77.6076 103.213H85.6946L81.7821 97.1852ZM50.4197 97.1852L54.3276 103.213H63.3863L59.3671 97.1852H50.4197ZM61.8765 97.1852L65.8932 103.213H75.0911L71.035 97.1852H61.8765ZM80.43 95.0979H72.1482L68.6579 89.9122H76.9766C77.0322 89.9122 77.0857 89.9424 77.1159 89.9888L80.43 95.0979ZM54.5201 89.9122L57.9756 95.0979H49.0653L45.8671 90.1674C45.7952 90.0583 45.874 89.9122 46.0062 89.9122H54.5201ZM57.0271 89.9122L60.485 95.0979H69.6317L66.1414 89.9122H57.0271Z" fill="#FBF950" stroke="#FBF950" stroke-width="6.00089" stroke-miterlimit="2" stroke-linejoin="round"/>
<path fill-rule="evenodd" clip-rule="evenodd" d="M61.8757 85.354C63.9876 80.0064 69.181 76.4733 74.9308 76.4733C82.6305 76.4733 88.967 82.8098 88.967 90.5095C88.967 92.9268 88.3424 95.3034 87.1542 97.4088C86.8709 97.9103 87.0483 98.5475 87.5501 98.8305C88.0516 99.1138 88.6888 98.9365 88.9718 98.4346C90.3371 96.0165 91.054 93.2863 91.054 90.5095C91.054 81.6646 83.7757 74.3862 74.9308 74.3862C68.3262 74.3862 62.3604 78.4445 59.9345 84.5875C59.7229 85.1232 59.9861 85.7298 60.5218 85.9413C61.0575 86.1529 61.6641 85.8897 61.8757 85.354Z" fill="#FBF950" stroke="#FBF950" stroke-width="6.00249" stroke-miterlimit="2" stroke-linejoin="round"/>
<path fill-rule="evenodd" clip-rule="evenodd" d="M73.9844 68.2734V72.3157C73.9844 72.8932 74.4529 73.3593 75.028 73.3593C75.6055 73.3593 76.0716 72.8932 76.0716 72.3157V68.2734C76.0716 67.6982 75.6055 67.2297 75.028 67.2297C74.4529 67.2297 73.9844 67.6982 73.9844 68.2734Z" fill="#FBF950" stroke="#FBF950" stroke-width="6.00089" stroke-miterlimit="2" stroke-linejoin="round"/>
<path fill-rule="evenodd" clip-rule="evenodd" d="M97.1517 89.3708H93.1094C92.5319 89.3708 92.0657 89.8393 92.0657 90.4145C92.0657 90.992 92.5319 91.4581 93.1094 91.4581H97.1517C97.7268 91.4581 98.1953 90.992 98.1953 90.4145C98.1953 89.8393 97.7268 89.3708 97.1517 89.3708Z" fill="#FBF950" stroke="#FBF950" stroke-width="6.00089" stroke-miterlimit="2" stroke-linejoin="round"/>
<path fill-rule="evenodd" clip-rule="evenodd" d="M63.1415 71.9603L65.2505 75.3889C65.5517 75.8787 66.1689 76.0166 66.6322 75.6976C67.0936 75.3799 67.2262 74.7258 66.9249 74.236L64.816 70.8073C64.5159 70.3195 63.8957 70.1809 63.4342 70.4986C62.971 70.8176 62.8414 71.4725 63.1415 71.9603Z" fill="#FBF950" stroke="#FBF950" stroke-width="6.00089" stroke-miterlimit="2" stroke-linejoin="round"/>
<path fill-rule="evenodd" clip-rule="evenodd" d="M85.227 70.8071L83.118 74.2357C82.8168 74.7255 82.9494 75.3797 83.4108 75.6974C83.8741 76.0164 84.4912 75.8785 84.7925 75.3887L86.9015 71.9601C87.2016 71.4722 87.072 70.8174 86.6087 70.4984C86.1473 70.1807 85.5271 70.3192 85.227 70.8071Z" fill="#FBF950" stroke="#FBF950" stroke-width="6.00089" stroke-miterlimit="2" stroke-linejoin="round"/>
<path fill-rule="evenodd" clip-rule="evenodd" d="M93.5887 78.472L90.1499 80.5771C89.6586 80.8778 89.5173 81.4977 89.8308 81.9607C90.1455 82.4256 90.7961 82.5581 91.2874 82.2574L94.7262 80.1523C95.2155 79.8528 95.36 79.2335 95.0453 78.7686C94.7319 78.3056 94.078 78.1724 93.5887 78.472Z" fill="#FBF950" stroke="#FBF950" stroke-width="6.00089" stroke-miterlimit="2" stroke-linejoin="round"/>
<path fill-rule="evenodd" clip-rule="evenodd" d="M55.4144 80.1958L58.8533 82.3009C59.3445 82.6016 59.9951 82.4691 60.3098 82.0042C60.6233 81.5411 60.482 80.9212 59.9907 80.6205L56.5519 78.5154C56.0626 78.2159 55.4088 78.3491 55.0953 78.8121C54.7806 79.277 54.9251 79.8962 55.4144 80.1958Z" fill="#FBF950" stroke="#FBF950" stroke-width="6.00089" stroke-miterlimit="2" stroke-linejoin="round"/>
</g>
<defs>
<clipPath id="clip0_55_38750">
<rect width="200" height="200" fill="white"/>
</clipPath>
</defs>
</svg>
